<?xml version="1.0" encoding="UTF-8"?>
<!DOCTYPE svg PUBLIC "-//W3C//DTD SVG 1.0//EN" "http://www.w3.org/TR/2001/REC-SVG-20010904/DTD/svg10.dtd">
<!-- Creator: CorelDRAW -->
<svg xmlns="http://www.w3.org/2000/svg" xml:space="preserve" width="0.6in" height="0.366661in" version="1.0" style="shape-rendering:geometricPrecision; text-rendering:geometricPrecision; image-rendering:optimizeQuality; fill-rule:evenodd; clip-rule:evenodd"
viewBox="0 0 80.51 49.2"
 xmlns:xlink="http://www.w3.org/1999/xlink"
 xmlns:xodm="http://www.corel.com/coreldraw/odm/2003">
 <defs>
  <style type="text/css">
   <![CDATA[
    .fil1 {fill:none}
    .fil0 {fill:#ED3237;fill-rule:nonzero}
   ]]>
  </style>
 </defs>
 <g id="Layer_x0020_1">
  <metadata id="CorelCorpID_0Corel-Layer"/>
  <path class="fil0" d="M32.85 17.89l0 5.97 -1.07 0 0 -6.03c-0.11,0.24 -0.28,0.5 -0.57,0.74 -0.25,0.22 -0.62,0.45 -1.18,0.64l0 12.28 1.75 0 0 -5.99 1.07 0 0 5.99 1.75 0 0 -13.61 -1.75 0zm37.16 16.37c-0.04,-0.1 -0.06,-0.22 -0.06,-0.34 0,-0.12 0.02,-0.24 0.06,-0.34 0.16,-0.44 0.66,-0.71 1.38,-0.71 0.72,0 1.22,0.28 1.38,0.71 0.04,0.1 0.06,0.22 0.06,0.34 0,0.12 -0.02,0.24 -0.06,0.34 -0.15,0.43 -0.65,0.71 -1.38,0.71 -0.72,0 -1.22,-0.27 -1.38,-0.71zm2.43 -0.09c0.03,-0.08 0.04,-0.16 0.04,-0.25 0,-0.09 -0.01,-0.17 -0.04,-0.25 -0.12,-0.32 -0.49,-0.53 -1.05,-0.53 -0.56,0 -0.94,0.21 -1.05,0.53 -0.03,0.08 -0.04,0.16 -0.04,0.25 0,0.09 0.01,0.17 0.04,0.25 0.12,0.32 0.49,0.53 1.05,0.53 0.56,0 0.93,-0.2 1.05,-0.53zm-4.57 -1.24l0.33 0 0 1.97 -0.33 0 0 -1.97zm-4.13 1.97l0 -1.97 1.25 0c0.54,0 0.92,0.23 1.07,0.62 0.04,0.11 0.06,0.23 0.06,0.36 0,0.13 -0.02,0.25 -0.06,0.36 -0.14,0.39 -0.52,0.63 -1.07,0.63l-1.25 0zm0.33 -0.28l0.94 0c0.36,0 0.62,-0.17 0.72,-0.44 0.03,-0.08 0.04,-0.17 0.04,-0.27 0,-0.1 -0.01,-0.19 -0.05,-0.27 -0.1,-0.27 -0.36,-0.44 -0.72,-0.44l-0.94 0 0 1.42zm-4.4 -0.58l0 -1.11 0.34 0 0 1.1c0,0.41 0.29,0.66 0.76,0.66 0.47,0 0.76,-0.25 0.76,-0.66l0 -1.1 0.34 0 0 1.11c0,0.58 -0.42,0.93 -1.1,0.93 -0.68,0 -1.1,-0.35 -1.1,-0.93zm-1.6 -1.11l0 0.28 -0.96 0 0 1.7 -0.33 0 0 -1.7 -0.96 0 0 -0.28 2.24 0zm-5.86 1.35l0 -0.03 0.34 0 0 0.02c0,0.28 0.29,0.43 0.72,0.43 0.34,0 0.58,-0.08 0.66,-0.21 0.02,-0.04 0.03,-0.08 0.03,-0.14 0,-0.04 -0.01,-0.08 -0.03,-0.12 -0.05,-0.08 -0.16,-0.14 -0.41,-0.16l-0.58 -0.04c-0.37,-0.03 -0.56,-0.14 -0.65,-0.29 -0.04,-0.07 -0.06,-0.15 -0.06,-0.25 0,-0.09 0.03,-0.18 0.07,-0.25 0.13,-0.24 0.5,-0.37 0.98,-0.37 0.64,0 1.04,0.24 1.04,0.68l0 0.03 -0.34 0 0 -0.02c0,-0.29 -0.26,-0.42 -0.71,-0.42 -0.34,0 -0.59,0.08 -0.67,0.21 -0.02,0.04 -0.03,0.08 -0.03,0.13 0,0.04 0.01,0.08 0.03,0.12 0.05,0.08 0.16,0.14 0.42,0.16l0.58 0.04c0.37,0.03 0.56,0.13 0.65,0.28 0.04,0.07 0.06,0.16 0.06,0.26 0,0.1 -0.02,0.19 -0.07,0.26 -0.14,0.23 -0.49,0.37 -0.98,0.37 -0.64,0 -1.05,-0.25 -1.05,-0.69zm-5.67 0.62l0 -1.97 1.77 0 0 0.28 -1.44 0 0 0.57 1.41 0 0 0.27 -1.41 0 0 0.58 1.44 0 0 0.28 -1.77 0zm-4.39 -0.63c-0.04,-0.11 -0.06,-0.23 -0.06,-0.36 0,-0.13 0.02,-0.25 0.06,-0.36 0.17,-0.46 0.69,-0.7 1.36,-0.7 0.73,0 1.23,0.32 1.28,0.77l-0.34 0c-0.08,-0.3 -0.41,-0.5 -0.94,-0.5 -0.51,0 -0.91,0.17 -1.03,0.52 -0.03,0.08 -0.04,0.17 -0.04,0.26 0,0.1 0.02,0.18 0.04,0.26 0.13,0.34 0.52,0.52 1.03,0.52 0.51,0 0.82,-0.19 0.92,-0.5l0.34 0c-0.08,0.46 -0.54,0.77 -1.27,0.77 -0.65,0 -1.18,-0.24 -1.34,-0.7zm-4.09 0.63l0 -1.97 0.48 0 1.35 1.5 0.07 0.27 0.04 0 0 -1.77 0.33 0 0 1.97 -0.48 0 -1.36 -1.5 -0.07 -0.27 -0.04 0 0 1.77 -0.33 0zm-2.03 0l-0.35 -0.67 -1.14 0 -0.35 0.67 -0.38 0 1.06 -1.97 0.49 0 1.06 1.97 -0.38 0zm-1.34 -0.95l0.85 0 -0.37 -0.71 -0.03 -0.14 -0.04 0 -0.03 0.14 -0.37 0.71zm-4.67 0.95l0 -1.97 1.25 0c0.54,0 0.93,0.23 1.07,0.62 0.04,0.11 0.06,0.23 0.06,0.36 0,0.13 -0.02,0.25 -0.06,0.36 -0.14,0.39 -0.52,0.63 -1.07,0.63l-1.25 0zm0.33 -0.28l0.94 0c0.36,0 0.62,-0.17 0.72,-0.44 0.03,-0.08 0.04,-0.17 0.04,-0.27 0,-0.1 -0.01,-0.19 -0.05,-0.27 -0.1,-0.27 -0.36,-0.44 -0.72,-0.44l-0.94 0 0 1.42zm40.45 -3.13l-0.8 -5.79 -0.33 0 0 5.79 -1.75 0 0 -13.61 1.98 0c1.05,0 1.83,0.41 2.29,1.21 0.33,0.58 0.39,1.11 0.39,2.53 0,1.28 -0.06,1.89 -0.39,2.47 -0.29,0.49 -0.78,0.74 -1.3,0.86l0 0.23 0.78 0.25 0.93 6.07 -1.81 0zm-1.13 -11.96l0 4.12 0.23 0c0.31,0 0.56,-0.12 0.72,-0.39 0.16,-0.27 0.19,-0.58 0.19,-1.65 0,-1.03 -0.04,-1.42 -0.17,-1.67 -0.17,-0.29 -0.41,-0.41 -0.74,-0.41l-0.23 0zm-6.36 11.96l0 -13.61 3.75 0 0 1.65 -2 0 0 4.32 1.87 0 0 1.65 -1.87 0 0 4.33 2 0 0 1.65 -3.75 0zm-0.68 -13.61l0 1.65 -1.44 0 0 11.96 -1.75 0 0 -11.96 -1.44 0 0 -1.65 4.63 0zm-9.41 12.44c-0.19,-0.56 -0.25,-1.24 -0.25,-5.64 0,-4.41 0.06,-5.09 0.25,-5.66 0.31,-0.82 0.93,-1.3 2.12,-1.3 1.67,0 2.33,0.86 2.33,3.36l0 2.51 -1.81 0 0 -2.8c0,-1.05 -0.14,-1.42 -0.53,-1.42 -0.23,0 -0.35,0.12 -0.45,0.35 -0.1,0.25 -0.12,0.78 -0.12,4.96 0,4.18 0.02,4.68 0.12,4.96 0.1,0.23 0.21,0.33 0.43,0.33 0.41,0 0.49,-0.49 0.49,-1.22l0 -2.97 1.79 0 0 2.64c0,2.1 -0.53,3.23 -2.27,3.23 -1.17,0 -1.79,-0.49 -2.1,-1.32zm-2.7 1.17l-0.27 -4.49 -1.11 0 -0.25 4.49 -1.87 0 1.07 -13.61 3.25 0 1.05 13.61 -1.87 0zm-1.28 -6.14l0.91 0 -0.29 -4.84 -0.02 -1.61 -0.29 0 -0.02 1.61 -0.29 4.84zm-4.67 6.14l-0.8 -5.79 -0.33 0 0 5.79 -1.75 0 0 -13.61 1.98 0c1.05,0 1.83,0.41 2.29,1.21 0.33,0.58 0.39,1.11 0.39,2.53 0,1.28 -0.06,1.89 -0.39,2.47 -0.29,0.49 -0.78,0.74 -1.3,0.86l0 0.23 0.78 0.25 0.93 6.07 -1.81 0zm-1.13 -11.96l0 4.12 0.23 0c0.31,0 0.56,-0.12 0.72,-0.39 0.16,-0.27 0.19,-0.58 0.19,-1.65 0,-1.03 -0.04,-1.42 -0.17,-1.67 -0.17,-0.29 -0.41,-0.41 -0.74,-0.41l-0.23 0zm-4.49 11.96l-0.27 -4.49 -1.11 0 -0.25 4.49 -1.87 0 1.07 -13.61 3.25 0 1.05 13.61 -1.87 0zm-1.28 -6.14l0.91 0 -0.29 -4.84 -0.02 -1.61 -0.29 0 -0.02 1.61 -0.29 4.84zm-6.38 -8.32c-0.04,-0.52 -0.38,-0.91 -0.87,-1.19 -0.27,-0.15 -1.53,-0.65 -3.28,-0.19 -0.63,0.17 -2.06,0.62 -3.88,2 -0.05,-0.02 -0.09,-0.03 -0.14,-0.05 -0.25,-0.1 -0.46,-0.19 -0.64,-0.27 -0.66,-0.31 -1.31,-0.7 -1.57,-0.85 -0.61,-0.37 -2.69,-1.68 -3.14,-1.92 -0.66,-0.34 -0.97,-0.34 -1.4,-0.34 -1.19,0 -2.1,0.8 -2.12,1.87 -0.04,1.63 2.52,2.95 4.01,3.47 0.5,0.17 1.18,0.38 1.93,0.57 -0.56,0.57 -1.21,1.26 -1.85,1.95 0,0 -2.66,0.79 -3.42,1 -3.57,0.87 -7.42,2.18 -7.25,4.64 0.1,1.42 2.22,2.23 4.97,2.23 0.33,0 0.67,-0.01 1.02,-0.04 -0.45,2.48 0.93,3.99 2.88,4.39 1.26,0.26 2.4,-0.02 2.7,-0.09 2.93,-0.62 5.77,-3.28 7.47,-5.15 0.05,0.56 0.17,1.38 0.33,1.82 0.15,0.41 0.45,0.76 0.98,0.73 0.48,-0.03 0.77,-0.36 0.77,-0.76 0,-0.4 -0.37,-0.8 -0.39,-0.83 -0.2,-0.23 -0.4,-0.46 -0.58,-0.7 -0.2,-0.26 -0.44,-0.71 -0.49,-1.01 0.55,-0.62 1.33,-1.57 1.59,-2.29 0.1,-0.26 0.18,-0.51 0.16,-0.8 -0.01,-0.13 -0.05,-0.25 -0.13,-0.35 -0.12,-0.15 -0.34,-0.23 -0.54,-0.23 -0.07,0 -0.15,0.01 -0.21,0.03 -0.25,0.08 -0.43,0.25 -0.58,0.44 -0.31,0.39 -0.48,0.85 -0.62,1.32 -0.17,0.58 -0.25,1.42 -0.27,2.01 -1.57,1.68 -4.21,2.73 -6.24,2.6 -0.04,-0 -0.09,-0.01 -0.14,-0.01 -0.21,-0.02 -0.41,-0.05 -0.6,-0.1 -0.86,-0.23 -1.62,-0.85 -1.94,-1.87 0.45,-0.15 0.89,-0.32 1.32,-0.51 4.21,-1.87 5.38,-3.3 5.65,-3.71 0.07,-0.1 0.12,-0.23 0.08,-0.35 -0.03,-0.09 -0.13,-0.18 -0.27,-0.18 -0.13,0 -0.36,-0 -0.64,0.23 -1.16,0.97 -2.34,2.59 -6.27,3.98 -0.09,-0.64 -0.02,-1.41 0.27,-2.3 0.32,-0.91 0.82,-1.84 1.31,-2.64 0.49,-0.75 0.99,-1.43 1.47,-2.03 0.38,-0.13 1.96,-0.67 2.48,-0.85 0.82,0.13 1.37,0.07 1.47,0.06 1.7,-0.11 2.28,-1.31 1.39,-1.31 -0.03,0 -0.05,0 -0.08,0 -0.23,0.02 -0.71,0.17 -1.35,0.41 0,-0.01 -0.35,0.13 -1.25,0.48 -0.11,0.04 -0.23,0.09 -0.34,0.13 -0.1,-0.02 -0.2,-0.03 -0.31,-0.05 -0.24,-0.05 -0.54,-0.11 -0.86,-0.19 0.35,-0.36 0.69,-0.69 1.01,-0.98 0.29,-0.25 0.59,-0.5 0.9,-0.74 0.29,0.08 0.56,0.14 0.8,0.19 0,0 0.03,0.01 0.05,0.01 0.63,0.13 1.02,0.16 1.02,0.16l0 0c0.13,0.02 0.24,0.03 0.32,0.04 3,0.22 4.31,-0.39 4.82,-0.84 0.32,-0.28 0.53,-0.63 0.5,-1.07zm-3.74 8.97c0.18,-0.28 0.34,-0.36 0.49,-0.34 0.11,0.01 0.21,0.06 0.25,0.22 0.02,0.09 0.11,0.48 -0.28,1.12 -0.22,0.35 -0.66,0.87 -0.8,0.99 -0.12,-0.83 0.11,-1.62 0.34,-1.99zm-1.77 -6.2c0.09,-0 0.12,0.04 0.13,0.12 0.04,0.41 -0.71,0.63 -0.92,0.66 -0.67,0.11 -1.39,0.01 -1.4,0.01 0,0 1.91,-0.78 2.19,-0.79zm-5.74 0.03c-1.9,-0.51 -2.28,-0.7 -2.8,-0.98 -1.61,-1.06 -0.95,-2.48 0.53,-2.48 0.37,0 0.68,0.1 0.88,0.18 0.62,0.26 2.06,0.86 3,1.26 0.18,0.08 0.36,0.15 0.53,0.22 0.21,0.09 0.34,0.14 0.34,0.14 -0.59,0.45 -1.32,1.01 -2.11,1.76 -0.22,-0.05 -0.36,-0.09 -0.37,-0.09zm-8.43 9.33c-1.73,-0.87 -1.01,-2.88 0.64,-4.18 1.02,-0.79 2.21,-1.32 4.17,-1.97 0.22,-0.07 0.87,-0.29 1.53,-0.5 -1.18,1.34 -3.45,3.82 -4.2,6.87 -1.3,0.09 -1.92,-0.11 -2.15,-0.22zm11.04 -8.5c-0.06,0.02 -0.12,0.04 -0.17,0.06l-1.44 0.48c0.21,-0.25 0.42,-0.49 0.63,-0.71 0.62,0.13 0.99,0.17 0.99,0.17zm6.48 -2.69c-0.31,0.2 -0.81,0.43 -2.2,0.41 -0.42,-0.01 -0.85,-0.04 -1.26,-0.09 -0.03,-0 -0.84,-0.11 -1.2,-0.23 3.48,-2.44 4.61,-1.38 4.61,-1.38 0.44,0.29 0.57,0.97 0.06,1.3z"/>
  <rect class="fil1" width="80.51" height="49.2"/>
 </g>
</svg>
