<?xml version="1.0" encoding="UTF-8"?>
<!DOCTYPE svg PUBLIC "-//W3C//DTD SVG 1.0//EN" "http://www.w3.org/TR/2001/REC-SVG-20010904/DTD/svg10.dtd">
<!-- Creator: CorelDRAW -->
<svg xmlns="http://www.w3.org/2000/svg" xml:space="preserve" width="0.6in" height="0.366661in" version="1.0" style="shape-rendering:geometricPrecision; text-rendering:geometricPrecision; image-rendering:optimizeQuality; fill-rule:evenodd; clip-rule:evenodd"
viewBox="0 0 116.25 71.04"
 xmlns:xlink="http://www.w3.org/1999/xlink"
 xmlns:xodm="http://www.corel.com/coreldraw/odm/2003">
 <defs>
  <style type="text/css">
   <![CDATA[
    .fil0 {fill:#FEFEFE}
    .fil1 {fill:#494B33}
    .fil2 {fill:#C9B8A5}
    .fil3 {fill:#FEFEFE}
   ]]>
  </style>
 </defs>
 <g id="Layer_x0020_1">
  <metadata id="CorelCorpID_0Corel-Layer"/>
  <rect class="fil0" width="116.25" height="71.04"/>
  <rect class="fil1" y="22.24" width="116.25" height="26.55"/>
  <g id="_1835871539920">
   <g>
    <path class="fil2" d="M37.49 45.16l-0.41 0c-0.02,0 -0.03,-0.01 -0.04,-0.03l-1.06 -1.72 -0.74 0 0 1.69c0,0.03 -0.02,0.05 -0.05,0.05l-0.33 0c-0.03,0 -0.05,-0.02 -0.05,-0.05l0 -3.87c0,-0.03 0.02,-0.05 0.05,-0.05l1.1 0c0.24,0 0.45,0.04 0.64,0.13 0.19,0.08 0.33,0.21 0.44,0.38 0.11,0.17 0.16,0.38 0.16,0.63 0,0.52 -0.25,0.87 -0.76,1.04l1.1 1.73c0.01,0.02 0.01,0.03 0.01,0.05 0,0.02 -0.02,0.03 -0.06,0.03zm-1.53 -2.12c0.26,0 0.46,-0.07 0.59,-0.2 0.14,-0.13 0.21,-0.31 0.21,-0.53 0,-0.22 -0.07,-0.39 -0.21,-0.54 -0.14,-0.14 -0.33,-0.21 -0.59,-0.21l-0.72 0 0 1.48 0.72 0z"/>
    <path class="fil2" d="M39.29 45.22c-0.41,0 -0.76,-0.13 -1.02,-0.38 -0.26,-0.25 -0.4,-0.61 -0.4,-1.07 0,-0.46 0.12,-0.82 0.35,-1.07 0.24,-0.25 0.54,-0.38 0.92,-0.38 0.27,0 0.49,0.06 0.68,0.17 0.19,0.11 0.34,0.26 0.44,0.46 0.1,0.2 0.15,0.43 0.15,0.69l0 0.26c0,0.03 -0.02,0.05 -0.05,0.05l-2.06 0c0.03,0.22 0.11,0.41 0.23,0.57 0.16,0.2 0.41,0.3 0.74,0.3 0.26,0 0.5,-0.04 0.73,-0.12l0.02 -0c0.03,0 0.05,0.02 0.05,0.05l0.03 0.29c0,0.02 -0.01,0.04 -0.03,0.05 -0.24,0.09 -0.5,0.13 -0.79,0.13zm0.68 -1.65c0,-0.23 -0.06,-0.43 -0.19,-0.6 -0.12,-0.17 -0.33,-0.26 -0.63,-0.26 -0.49,0 -0.77,0.29 -0.83,0.86l1.65 0zm1.61 1.65c-0.21,0 -0.46,-0.04 -0.75,-0.12 -0.02,-0.01 -0.04,-0.02 -0.04,-0.05l0.03 -0.31c0.01,-0.03 0.02,-0.05 0.05,-0.05 0.01,0 0.02,0 0.03,0.01 0.21,0.08 0.44,0.12 0.69,0.12 0.2,0 0.35,-0.04 0.45,-0.12 0.09,-0.08 0.14,-0.16 0.14,-0.26 0,-0.09 -0.04,-0.18 -0.13,-0.26 -0.08,-0.08 -0.24,-0.16 -0.49,-0.24 -0.24,-0.08 -0.43,-0.18 -0.56,-0.3 -0.13,-0.12 -0.2,-0.3 -0.2,-0.52 0,-0.22 0.09,-0.42 0.28,-0.58 0.19,-0.16 0.44,-0.24 0.74,-0.24 0.09,0 0.18,0.01 0.28,0.03 0.1,0.02 0.22,0.04 0.34,0.07 0.02,0.01 0.04,0.02 0.04,0.05l-0.03 0.3c-0.01,0.03 -0.02,0.05 -0.05,0.05 -0.01,0 -0.02,-0 -0.02,-0 -0.21,-0.07 -0.4,-0.1 -0.56,-0.1 -0.2,0 -0.35,0.04 -0.45,0.12 -0.09,0.08 -0.14,0.16 -0.14,0.26 0,0.09 0.03,0.17 0.1,0.24 0.07,0.06 0.15,0.12 0.24,0.16 0.09,0.04 0.18,0.07 0.25,0.1 0.23,0.08 0.42,0.18 0.56,0.3 0.14,0.12 0.21,0.3 0.21,0.52 0,0.22 -0.09,0.41 -0.28,0.57 -0.19,0.16 -0.43,0.24 -0.74,0.24zm2.71 0c-0.57,0 -0.85,-0.29 -0.85,-0.87l0 -1.6 -0.43 0c-0.03,0 -0.05,-0.02 -0.05,-0.05l0 -0.27c0,-0.03 0.02,-0.05 0.05,-0.05l0.43 0 0 -0.7c0,-0.03 0.02,-0.05 0.05,-0.05l0.33 0c0.03,0 0.05,0.02 0.05,0.05l0 0.7 0.69 0c0.03,0 0.05,0.02 0.05,0.05l0 0.27c0,0.03 -0.02,0.05 -0.05,0.05l-0.69 0 0 1.6c0,0.32 0.14,0.48 0.42,0.48 0.11,0 0.22,-0.02 0.33,-0.05 0.01,-0 0.02,-0.01 0.03,-0.01 0.03,0 0.04,0.02 0.05,0.05l0.01 0.27c0,0.02 -0.01,0.04 -0.03,0.05 -0.14,0.05 -0.26,0.07 -0.38,0.07zm1.77 0c-0.28,0 -0.52,-0.08 -0.74,-0.24 -0.21,-0.16 -0.32,-0.39 -0.32,-0.69 0,-0.28 0.1,-0.51 0.3,-0.68 0.2,-0.17 0.48,-0.25 0.84,-0.25 0.24,0 0.48,0.03 0.72,0.1l0 -0.07c0,-0.23 -0.06,-0.4 -0.19,-0.51 -0.12,-0.11 -0.3,-0.17 -0.52,-0.17l-0.17 0c-0.09,0 -0.19,0 -0.29,0.01 -0.1,0.01 -0.19,0.03 -0.27,0.07l-0.02 0c-0.03,0 -0.05,-0.02 -0.05,-0.05l-0.03 -0.28c0,-0.03 0.01,-0.04 0.04,-0.05 0.3,-0.07 0.57,-0.1 0.8,-0.1 0.34,0 0.61,0.09 0.83,0.27 0.21,0.18 0.32,0.45 0.32,0.81l0 1.06c0,0.22 0.02,0.43 0.05,0.64l0 0.01c0,0.04 -0.02,0.06 -0.05,0.06l-0.31 0c-0.02,0 -0.04,-0.01 -0.05,-0.03 -0.02,-0.08 -0.04,-0.18 -0.05,-0.3 -0.17,0.26 -0.45,0.4 -0.84,0.4zm0.06 -0.4c0.2,0 0.38,-0.07 0.52,-0.22 0.15,-0.15 0.22,-0.32 0.22,-0.52l0 -0.22c-0.17,-0.07 -0.39,-0.1 -0.67,-0.1 -0.27,0 -0.46,0.05 -0.58,0.15 -0.12,0.1 -0.18,0.22 -0.18,0.37 0,0.1 0.02,0.19 0.07,0.27 0.05,0.08 0.12,0.15 0.22,0.2 0.1,0.05 0.23,0.07 0.39,0.07zm2.79 0.39c-0.34,0 -0.6,-0.09 -0.79,-0.25 -0.19,-0.17 -0.29,-0.46 -0.29,-0.88l0 -1.65c0,-0.03 0.02,-0.05 0.05,-0.05l0.33 0c0.03,0 0.05,0.02 0.05,0.05l0 1.65c0,0.26 0.05,0.45 0.15,0.57 0.1,0.12 0.29,0.18 0.56,0.18 0.2,0 0.38,-0.07 0.53,-0.22 0.15,-0.15 0.22,-0.36 0.22,-0.63l0 -1.54c0,-0.03 0.02,-0.05 0.05,-0.05l0.33 0c0.03,0 0.05,0.02 0.05,0.05l0 2.03c0,0.22 0.02,0.43 0.05,0.64l0 0.01c0,0.04 -0.02,0.06 -0.05,0.06l-0.31 0c-0.02,0 -0.04,-0.01 -0.05,-0.03 -0.02,-0.08 -0.04,-0.18 -0.05,-0.31 -0.17,0.26 -0.45,0.4 -0.84,0.4zm2.28 -0.06l-0.33 0c-0.03,0 -0.05,-0.02 -0.05,-0.05l0 -2.03c0,-0.22 -0.02,-0.44 -0.05,-0.64 0,-0.04 0.02,-0.06 0.05,-0.06l0.31 0c0.05,0 0.08,0.11 0.09,0.34 0.18,-0.25 0.44,-0.39 0.76,-0.4 0.03,0 0.05,0.02 0.05,0.05l0.04 0.3c0,0.03 -0.02,0.05 -0.05,0.05 -0.25,0.02 -0.44,0.11 -0.58,0.25 -0.13,0.15 -0.2,0.35 -0.2,0.6l0 1.54c0,0.03 -0.02,0.05 -0.05,0.05z"/>
    <path class="fil2" d="M53.41 45.22c-0.28,0 -0.52,-0.08 -0.74,-0.24 -0.21,-0.16 -0.32,-0.39 -0.32,-0.69 0,-0.28 0.1,-0.51 0.3,-0.68 0.2,-0.17 0.48,-0.25 0.84,-0.25 0.24,0 0.48,0.03 0.72,0.1l0 -0.07c0,-0.23 -0.06,-0.4 -0.19,-0.51 -0.12,-0.11 -0.3,-0.17 -0.52,-0.17l-0.17 0c-0.09,0 -0.19,0 -0.29,0.01 -0.1,0.01 -0.19,0.03 -0.27,0.07l-0.02 0c-0.03,0 -0.05,-0.02 -0.05,-0.05l-0.03 -0.28c0,-0.03 0.01,-0.04 0.04,-0.05 0.3,-0.07 0.57,-0.1 0.8,-0.1 0.34,0 0.61,0.09 0.83,0.27 0.21,0.18 0.32,0.45 0.32,0.81l0 1.06c0,0.22 0.02,0.43 0.05,0.64l0 0.01c0,0.04 -0.02,0.06 -0.05,0.06l-0.31 0c-0.02,0 -0.04,-0.01 -0.05,-0.03 -0.02,-0.08 -0.04,-0.18 -0.05,-0.3 -0.17,0.26 -0.45,0.4 -0.84,0.4zm0.06 -0.4c0.2,0 0.38,-0.07 0.52,-0.22 0.15,-0.15 0.22,-0.32 0.22,-0.52l0 -0.22c-0.17,-0.07 -0.39,-0.1 -0.67,-0.1 -0.27,0 -0.46,0.05 -0.58,0.15 -0.12,0.1 -0.18,0.22 -0.18,0.37 0,0.1 0.02,0.19 0.07,0.27 0.05,0.08 0.12,0.15 0.22,0.2 0.1,0.05 0.23,0.07 0.39,0.07zm4.01 0.34l-0.33 0c-0.03,0 -0.05,-0.02 -0.05,-0.05l0 -1.65c0,-0.26 -0.05,-0.45 -0.15,-0.57 -0.1,-0.12 -0.29,-0.18 -0.56,-0.18 -0.2,0 -0.37,0.07 -0.52,0.22 -0.15,0.15 -0.22,0.36 -0.22,0.63l0 1.54c0,0.03 -0.02,0.05 -0.05,0.05l-0.33 0c-0.03,0 -0.05,-0.02 -0.05,-0.05l0 -2.03c0,-0.22 -0.02,-0.44 -0.05,-0.64 0,-0.04 0.02,-0.06 0.05,-0.06l0.31 0c0.05,0 0.08,0.11 0.09,0.34 0.17,-0.26 0.45,-0.4 0.84,-0.4 0.34,0 0.6,0.09 0.79,0.25 0.19,0.17 0.29,0.46 0.29,0.88l0 1.65c0,0.03 -0.02,0.05 -0.05,0.05zm1.85 0.06c-0.57,0 -0.85,-0.29 -0.85,-0.87l0 -1.6 -0.43 0c-0.03,0 -0.05,-0.02 -0.05,-0.05l0 -0.27c0,-0.03 0.02,-0.05 0.05,-0.05l0.43 0 0 -0.7c0,-0.03 0.02,-0.05 0.05,-0.05l0.33 0c0.03,0 0.05,0.02 0.05,0.05l0 0.7 0.69 0c0.03,0 0.05,0.02 0.05,0.05l0 0.27c0,0.03 -0.02,0.05 -0.05,0.05l-0.69 0 0 1.6c0,0.32 0.14,0.48 0.42,0.48 0.11,0 0.22,-0.02 0.33,-0.05 0.01,-0 0.02,-0.01 0.03,-0.01 0.03,0 0.04,0.02 0.05,0.05l0.01 0.27c0,0.02 -0.01,0.04 -0.03,0.05 -0.14,0.05 -0.26,0.07 -0.38,0.07z"/>
    <path class="fil2" d="M62.43 45.22c-0.22,0 -0.42,-0.04 -0.61,-0.12 -0.19,-0.08 -0.34,-0.2 -0.46,-0.36 -0.12,-0.16 -0.18,-0.35 -0.18,-0.59 0,-0.48 0.28,-0.89 0.84,-1.23 -0.21,-0.27 -0.32,-0.53 -0.32,-0.79 0,-0.3 0.08,-0.53 0.25,-0.68 0.17,-0.16 0.37,-0.23 0.6,-0.23 0.24,0 0.44,0.07 0.59,0.22 0.15,0.15 0.23,0.34 0.23,0.59 0,0.23 -0.08,0.43 -0.23,0.59 -0.12,0.13 -0.29,0.26 -0.48,0.4l0.83 0.99c0.06,-0.16 0.11,-0.35 0.15,-0.56 0.01,-0.03 0.03,-0.04 0.06,-0.04l0.3 0.06c0.03,0.01 0.04,0.02 0.04,0.05l0 0.01c-0.06,0.32 -0.15,0.59 -0.26,0.82l0.62 0.74c0.02,0.02 0.02,0.03 0.02,0.05 0,0.02 -0.02,0.03 -0.06,0.04l-0.44 0.05c-0.02,0 -0.03,-0.01 -0.04,-0.02l-0.37 -0.45c-0.27,0.31 -0.64,0.47 -1.1,0.47zm0 -0.4c0.35,0 0.63,-0.13 0.83,-0.39l-0.99 -1.2c-0.25,0.15 -0.42,0.3 -0.51,0.44 -0.1,0.16 -0.15,0.32 -0.15,0.48 0,0.18 0.08,0.33 0.23,0.47 0.15,0.14 0.35,0.2 0.59,0.2zm-0.01 -2.09c0.09,-0.05 0.17,-0.1 0.26,-0.17 0.08,-0.06 0.15,-0.14 0.21,-0.22 0.05,-0.08 0.08,-0.18 0.08,-0.29 0,-0.14 -0.03,-0.25 -0.1,-0.33 -0.06,-0.08 -0.17,-0.13 -0.31,-0.13 -0.1,0 -0.18,0.02 -0.24,0.07 -0.06,0.05 -0.11,0.11 -0.13,0.19 -0.03,0.08 -0.04,0.16 -0.04,0.26 0,0.18 0.08,0.37 0.23,0.55l0.05 0.06z"/>
    <path class="fil2" d="M66.68 45.22c-0.41,-0.02 -0.61,-0.31 -0.61,-0.86l0 -3.2c0,-0.03 0.02,-0.05 0.05,-0.05l0.33 0c0.03,0 0.05,0.02 0.05,0.05l0 3.2c0,0.29 0.07,0.45 0.22,0.48 0.03,0.01 0.05,0.03 0.05,0.06l-0.04 0.28c-0.01,0.03 -0.02,0.05 -0.05,0.05zm1.69 0c-0.39,0 -0.71,-0.13 -0.95,-0.38 -0.24,-0.25 -0.37,-0.61 -0.37,-1.07 0,-0.46 0.12,-0.82 0.37,-1.07 0.24,-0.25 0.56,-0.38 0.95,-0.38 0.39,0 0.7,0.13 0.95,0.38 0.24,0.25 0.37,0.61 0.37,1.07 0,0.46 -0.12,0.82 -0.37,1.07 -0.24,0.25 -0.56,0.38 -0.95,0.38zm0 -0.4c0.31,0 0.54,-0.1 0.67,-0.3 0.14,-0.2 0.21,-0.45 0.21,-0.75 0,-0.3 -0.07,-0.56 -0.21,-0.76 -0.14,-0.2 -0.36,-0.3 -0.67,-0.3 -0.31,0 -0.54,0.1 -0.68,0.3 -0.14,0.2 -0.21,0.45 -0.21,0.76 0,0.3 0.07,0.55 0.21,0.75 0.14,0.2 0.36,0.3 0.68,0.3zm2.83 0.39c-0.34,0 -0.6,-0.09 -0.79,-0.25 -0.19,-0.17 -0.29,-0.46 -0.29,-0.88l0 -1.65c0,-0.03 0.02,-0.05 0.05,-0.05l0.33 0c0.03,0 0.05,0.02 0.05,0.05l0 1.65c0,0.26 0.05,0.45 0.15,0.57 0.1,0.12 0.29,0.18 0.56,0.18 0.2,0 0.38,-0.07 0.53,-0.22 0.15,-0.15 0.22,-0.36 0.22,-0.63l0 -1.54c0,-0.03 0.02,-0.05 0.05,-0.05l0.33 0c0.03,0 0.05,0.02 0.05,0.05l0 2.03c0,0.22 0.02,0.43 0.05,0.64l0 0.01c0,0.04 -0.02,0.06 -0.05,0.06l-0.31 0c-0.02,0 -0.04,-0.01 -0.05,-0.03 -0.02,-0.08 -0.04,-0.18 -0.05,-0.31 -0.17,0.26 -0.45,0.4 -0.84,0.4zm4.17 -0.06l-0.33 0c-0.03,0 -0.05,-0.02 -0.05,-0.05l0 -1.65c0,-0.26 -0.05,-0.45 -0.15,-0.57 -0.1,-0.12 -0.29,-0.18 -0.56,-0.18 -0.2,0 -0.37,0.07 -0.52,0.22 -0.15,0.15 -0.22,0.36 -0.22,0.63l0 1.54c0,0.03 -0.02,0.05 -0.05,0.05l-0.33 0c-0.03,0 -0.05,-0.02 -0.05,-0.05l0 -2.03c0,-0.22 -0.02,-0.44 -0.05,-0.64 0,-0.04 0.02,-0.06 0.05,-0.06l0.31 0c0.05,0 0.08,0.11 0.09,0.34 0.17,-0.26 0.45,-0.4 0.84,-0.4 0.34,0 0.6,0.09 0.79,0.25 0.19,0.17 0.29,0.46 0.29,0.88l0 1.65c0,0.03 -0.02,0.05 -0.05,0.05zm1.73 1.24c-0.27,0 -0.51,-0.03 -0.71,-0.1 -0.02,-0.01 -0.04,-0.03 -0.04,-0.05l0.03 -0.3c0.01,-0.03 0.02,-0.05 0.05,-0.05 0.01,0 0.02,0 0.03,0.01 0.19,0.07 0.4,0.1 0.64,0.1 0.31,0 0.54,-0.08 0.69,-0.23 0.15,-0.15 0.22,-0.39 0.22,-0.69l0 -0.13c-0.2,0.18 -0.48,0.27 -0.83,0.27 -0.36,0 -0.66,-0.13 -0.91,-0.38 -0.25,-0.25 -0.37,-0.61 -0.37,-1.07 0,-0.46 0.12,-0.82 0.37,-1.07 0.25,-0.25 0.56,-0.38 0.93,-0.38 0.39,0 0.66,0.13 0.84,0.4 0.01,-0.12 0.02,-0.22 0.05,-0.31 0.01,-0.02 0.03,-0.03 0.05,-0.03l0.31 0c0.04,0 0.05,0.02 0.05,0.06l0 0.01c-0.03,0.21 -0.05,0.42 -0.05,0.64l0 2c0,0.46 -0.12,0.8 -0.37,1.01 -0.25,0.21 -0.57,0.32 -0.97,0.32zm0.16 -1.58c0.33,0 0.58,-0.12 0.74,-0.36l0 -0.9c0,-0.28 -0.07,-0.49 -0.22,-0.63 -0.15,-0.15 -0.32,-0.22 -0.52,-0.22 -0.33,0 -0.57,0.1 -0.72,0.3 -0.15,0.2 -0.22,0.45 -0.22,0.75 0,0.3 0.07,0.55 0.22,0.75 0.15,0.2 0.39,0.3 0.72,0.3zm3.06 0.4c-0.41,0 -0.76,-0.13 -1.02,-0.38 -0.27,-0.25 -0.4,-0.61 -0.4,-1.07 0,-0.46 0.12,-0.82 0.35,-1.07 0.24,-0.25 0.54,-0.38 0.92,-0.38 0.27,0 0.49,0.06 0.68,0.17 0.19,0.11 0.33,0.26 0.44,0.46 0.1,0.2 0.15,0.43 0.15,0.69l0 0.26c0,0.03 -0.02,0.05 -0.05,0.05l-2.06 0c0.03,0.22 0.11,0.41 0.23,0.57 0.16,0.2 0.41,0.3 0.74,0.3 0.26,0 0.5,-0.04 0.73,-0.12l0.02 -0c0.03,0 0.05,0.02 0.05,0.05l0.03 0.29c0,0.02 -0.01,0.04 -0.03,0.05 -0.24,0.09 -0.5,0.13 -0.8,0.13zm0.68 -1.65c0,-0.23 -0.06,-0.43 -0.19,-0.6 -0.12,-0.17 -0.33,-0.26 -0.63,-0.26 -0.49,0 -0.77,0.29 -0.83,0.86l1.65 0z"/>
   </g>
   <path class="fil3" d="M19.6 35.92l0 -9.84 -1 0.26 -1.34 0.36 0.06 0.18 1.28 -0.33 0 9.37 -1.44 0 0 0.21 3.88 0 0 -0.21 -1.44 0zm8.24 -0.31c-0.15,0.14 -0.38,0.19 -0.59,0.15 -0.07,-0.01 -0.14,-0.04 -0.2,-0.08 -0.06,-0.04 -0.1,-0.1 -0.14,-0.15 -0.1,-0.11 -0.17,-0.25 -0.21,-0.4 -0.08,-0.21 -0.11,-0.42 -0.11,-0.64l0 -2.65c0,-0.42 -0.13,-0.84 -0.36,-1.18 -0.15,-0.21 -0.36,-0.39 -0.6,-0.53 -0.18,-0.11 -0.39,-0.18 -0.61,-0.24 -0.25,-0.08 -0.53,-0.13 -0.81,-0.13 -0.17,0 -0.33,0.01 -0.5,0.03 -0.18,0.03 -0.36,0.07 -0.53,0.13 -0.15,0.05 -0.28,0.11 -0.42,0.18 -0.11,0.07 -0.22,0.14 -0.33,0.22 -0.08,0.07 -0.17,0.15 -0.25,0.24 -0.07,0.08 -0.14,0.15 -0.2,0.24 -0.1,0.13 -0.18,0.28 -0.22,0.43 -0.06,0.22 0.11,0.39 0.42,0.4 0.35,0.03 0.52,0 0.56,-0.15 0.01,-0.11 0.03,-0.22 0.04,-0.32 0,-0.07 0.03,-0.14 0.04,-0.21 0.01,-0.08 0.04,-0.17 0.07,-0.24 0.04,-0.1 0.1,-0.18 0.17,-0.26l0.11 -0.13c0.06,-0.04 0.1,-0.08 0.15,-0.11 0.26,-0.17 0.59,-0.25 0.89,-0.25 0.25,0 0.49,0.08 0.68,0.22 0.14,0.1 0.25,0.24 0.35,0.39 0.2,0.33 0.31,0.7 0.33,1.07 -0.24,0.07 -0.72,0.2 -1.38,0.36 -0.11,0.03 -0.22,0.07 -0.33,0.1 -0.21,0.06 -0.39,0.1 -0.56,0.15l-0.18 0.06c-0.06,0.03 -0.11,0.06 -0.17,0.07 -0.06,0.03 -0.11,0.04 -0.17,0.07l-0.17 0.08c-0.49,0.25 -0.84,0.7 -0.95,1.24 -0.06,0.28 -0.06,0.56 0,0.84 0.04,0.14 0.08,0.29 0.15,0.42 0.06,0.14 0.13,0.25 0.22,0.36 0.14,0.17 0.31,0.32 0.5,0.43 0.28,0.14 0.59,0.22 0.89,0.24 0.25,0 0.51,-0.03 0.75,-0.08 0.1,-0.03 0.21,-0.06 0.32,-0.08 0.19,-0.06 0.39,-0.13 0.57,-0.22l0 0 0 -0.01 0.68 -0.38c0.04,0.11 0.11,0.22 0.2,0.31 0.15,0.22 0.38,0.38 0.63,0.46 0.11,0.04 0.22,0.06 0.33,0.07 0.11,0.01 0.24,0 0.33,-0.03 0.13,-0.03 0.24,-0.07 0.35,-0.11 0.13,-0.04 0.25,-0.13 0.36,-0.22l-0.14 -0.14zm-2.83 -0.13c-0.26,0.13 -0.54,0.18 -0.82,0.17 -0.21,-0.03 -0.42,-0.08 -0.6,-0.18 -0.2,-0.1 -0.38,-0.22 -0.53,-0.38 -0.08,-0.08 -0.17,-0.18 -0.24,-0.28 -0.04,-0.06 -0.07,-0.13 -0.1,-0.18 -0.03,-0.08 -0.04,-0.15 -0.07,-0.24 -0.03,-0.15 -0.04,-0.32 -0.03,-0.47 0.01,-0.13 0.04,-0.25 0.08,-0.36 0.07,-0.21 0.17,-0.39 0.29,-0.57l0.08 -0.11c0.04,-0.04 0.07,-0.08 0.11,-0.11 0.04,-0.04 0.07,-0.08 0.11,-0.11l0.14 -0.1c0.24,-0.17 0.5,-0.29 0.78,-0.36l0.03 0c0.61,-0.15 1.09,-0.28 1.34,-0.35l0 2.63c0,0.21 0.04,0.4 0.1,0.61l-0.68 0.39zm7.92 -4.1c0.25,0 0.39,-0.05 0.39,-0.24 -0.03,-0.31 -0.15,-0.6 -0.36,-0.82 -0.15,-0.18 -0.36,-0.31 -0.59,-0.38 -0.05,-0.03 -0.13,-0.04 -0.19,-0.06 -0.2,-0.07 -0.4,-0.1 -0.61,-0.1 -0.1,0 -0.21,0 -0.31,0.01 -0.29,0.03 -0.6,0.1 -0.88,0.21 -0.31,0.11 -0.59,0.25 -0.84,0.45 -0.31,0.22 -0.57,0.5 -0.75,0.84 -0.59,1.02 -0.59,2.29 0,3.32 0.18,0.32 0.45,0.6 0.75,0.82 0.25,0.2 0.53,0.35 0.84,0.45 0.28,0.11 0.59,0.18 0.88,0.21 0.1,0.01 0.2,0.01 0.31,0.01l0 0c0.59,0 1.16,-0.2 1.62,-0.57l0.07 -0.06 -0.11 -0.17 -0.08 0.07c-0.42,0.33 -0.95,0.53 -1.49,0.53l0 0c-0.38,0 -0.74,-0.11 -1.05,-0.31 -0.22,-0.15 -0.4,-0.36 -0.56,-0.59 -0.17,-0.25 -0.29,-0.52 -0.39,-0.79 -0.31,-0.82 -0.31,-1.73 0,-2.55 0.1,-0.28 0.22,-0.54 0.39,-0.79 0.14,-0.22 0.33,-0.42 0.56,-0.57 0.29,-0.21 0.66,-0.32 1.02,-0.32l0.03 0c0.18,0 0.36,0.03 0.53,0.08 0.06,0.03 0.13,0.06 0.18,0.1 0.14,0.08 0.25,0.22 0.29,0.38 0.07,0.28 -0.01,0.46 0,0.61 0,0.13 0.13,0.21 0.36,0.22zm7.79 4.53l-2.11 -3.75 1.83 -2.17 0 0 1.3 0 0 -0.2 -2.68 0 0 0.2 1.13 0 0 0 -1.67 1.98 -0.68 0.82 -1.51 1.77 0 -8.49 -0.99 0.26 -1.35 0.36 0.05 0.18 1.3 -0.33 0 9.37 -1.44 0 0 0.21 3.88 0 0 -0.21 -1.45 0 0 -1.05 1.6 -1.9 1.64 2.94 -1.31 0 0 0.2 3.88 0 0 -0.2 -1.42 0zm8.08 -4.49c-0.15,-0.31 -0.35,-0.6 -0.6,-0.84 -0.22,-0.2 -0.46,-0.38 -0.72,-0.5 -0.24,-0.14 -0.5,-0.22 -0.78,-0.26 -0.1,-0.03 -0.21,-0.03 -0.31,-0.03 -0.71,0 -1.34,0.42 -1.77,1.07l0 -4.8 -0.99 0.26 -1.35 0.36 0.06 0.18 1.3 -0.33 0 9.37 -0.99 0 0 0.2 1.98 0 0 -1.07c0.43,0.66 1.06,1.07 1.77,1.07l0 0c0.1,0 0.18,0 0.28,-0.01 0.28,-0.04 0.56,-0.14 0.81,-0.26 0.26,-0.14 0.5,-0.31 0.72,-0.52 0.25,-0.24 0.45,-0.53 0.6,-0.84 0.45,-0.98 0.45,-2.08 0,-3.05zm-0.82 2.75c-0.06,0.26 -0.14,0.53 -0.25,0.78 -0.11,0.24 -0.25,0.43 -0.43,0.61 -0.25,0.22 -0.57,0.35 -0.91,0.35 -0.74,0 -1.38,-0.5 -1.77,-1.27l0 -3.39c0.39,-0.77 1.03,-1.27 1.77,-1.27 0.33,0 0.66,0.13 0.91,0.36 0.18,0.17 0.32,0.36 0.43,0.6 0.11,0.25 0.2,0.52 0.25,0.78 0.21,0.79 0.21,1.64 0,2.44l0 0zm7.79 -1.38c-0.01,-0.49 -0.1,-0.98 -0.28,-1.42 -0.25,-0.61 -0.74,-1.1 -1.34,-1.37 -0.31,-0.13 -0.63,-0.19 -0.95,-0.21 -0.06,0 -0.1,0 -0.15,0 -0.11,0 -0.21,0 -0.31,0.03 -0.29,0.04 -0.57,0.13 -0.84,0.26 -0.26,0.14 -0.53,0.32 -0.75,0.53 -0.26,0.25 -0.47,0.54 -0.63,0.88 -0.04,0.1 -0.08,0.21 -0.13,0.32 -0.04,0.11 -0.07,0.24 -0.1,0.36 -0.03,0.14 -0.04,0.28 -0.07,0.43 -0.01,0.15 -0.01,0.32 -0.01,0.49 0,0.54 0.13,1.09 0.36,1.58 0.17,0.33 0.4,0.63 0.7,0.85 0.25,0.2 0.54,0.33 0.84,0.42 0.38,0.13 0.77,0.18 1.16,0.17 1.66,0 2.44,-1.31 2.44,-1.63l0 -0.1 -0.2 0 0 0.1c0,0.24 -0.75,1.44 -2.24,1.44 -0.07,0 -0.14,0 -0.21,-0.01 -0.29,-0.01 -0.57,-0.1 -0.81,-0.25 -0.22,-0.14 -0.4,-0.32 -0.54,-0.53 -0.14,-0.25 -0.25,-0.5 -0.32,-0.78 -0.11,-0.4 -0.17,-0.84 -0.17,-1.27 -0.01,-0.03 -0.01,-0.06 -0.01,-0.08l4.56 0 0 -0.2zm-4.54 0c0,-0.04 0,-0.07 0,-0.11 0.01,-0.11 0.01,-0.22 0.03,-0.33 0.01,-0.1 0.03,-0.21 0.04,-0.29 0.01,-0.1 0.04,-0.18 0.06,-0.26 0.07,-0.28 0.17,-0.54 0.28,-0.81 0.11,-0.24 0.26,-0.45 0.46,-0.63 0.25,-0.22 0.59,-0.35 0.93,-0.36l0.03 0c0.6,-0.03 1.14,0.32 1.37,0.88 0.11,0.24 0.19,0.5 0.24,0.77 0.07,0.38 0.11,0.77 0.11,1.16l-3.54 0zm10.64 -2.87c-0.08,-0.04 -0.17,-0.07 -0.26,-0.08 -0.04,-0.01 -0.1,-0.03 -0.14,-0.03l-0.17 -0.01c-0.27,-0.01 -0.53,0 -0.78,0.07 -0.33,0.08 -0.64,0.21 -0.93,0.39 -0.22,0.13 -0.42,0.28 -0.59,0.47l0 -0.95 -0.99 0.26 -0.86 0.24 0.04 0.2 0.81 -0.22 0 5.66 -1.44 0 0 0.2 3.88 0 0 -0.2 -1.44 0 0 -4.88c0.19,-0.22 0.45,-0.4 0.74,-0.5 0.26,-0.1 0.54,-0.11 0.82,-0.07 0.2,0.03 0.38,0.08 0.54,0.18l0.1 0.04c0.04,0.03 0.07,0.04 0.1,0.06 0.06,0.03 0.11,0.06 0.15,0.08 0.08,0.04 0.18,0.03 0.25,-0.01 0.11,-0.06 0.21,-0.15 0.26,-0.26 0.08,-0.1 0.13,-0.24 0.13,-0.36 -0.01,-0.13 -0.11,-0.22 -0.22,-0.26zm5.99 0c-0.08,-0.04 -0.17,-0.07 -0.26,-0.08 -0.04,-0.01 -0.1,-0.03 -0.14,-0.03l-0.17 -0.01c-0.26,-0.01 -0.53,0 -0.78,0.07 -0.33,0.08 -0.64,0.21 -0.93,0.39 -0.22,0.13 -0.42,0.28 -0.59,0.47l0 -0.95 -0.99 0.26 -0.86 0.24 0.04 0.2 0.81 -0.22 0 5.66 -1.44 0 0 0.2 3.88 0 0 -0.2 -1.44 0 0 -4.88c0.2,-0.22 0.45,-0.4 0.74,-0.5 0.26,-0.1 0.54,-0.11 0.82,-0.07 0.2,0.03 0.38,0.08 0.54,0.18l0.1 0.04c0.04,0.03 0.07,0.04 0.1,0.06 0.06,0.03 0.11,0.06 0.15,0.08 0.08,0.04 0.18,0.03 0.25,-0.01 0.11,-0.06 0.21,-0.15 0.26,-0.26 0.08,-0.1 0.13,-0.24 0.13,-0.36 -0.01,-0.13 -0.11,-0.22 -0.22,-0.26zm7.5 -0.14l-1.49 0 0 0.2 1.19 0 -2.02 4.54 -2.02 -4.54 1.34 0 0 -0.2 -3.88 0 0 0.2 1.44 0 2.58 5.77 -1.14 2.57c-0.14,0.31 -0.42,0.53 -0.74,0.6 -0.14,0.01 -0.27,-0.01 -0.39,-0.06 -0.11,-0.04 -0.2,-0.11 -0.28,-0.18 -0.03,-0.04 -0.07,-0.07 -0.1,-0.11 -0.01,-0.04 -0.04,-0.07 -0.05,-0.11 -0.03,-0.06 -0.04,-0.13 -0.06,-0.2 0.01,-0.08 0.01,-0.17 0.03,-0.26 0,-0.01 0,-0.04 0,-0.06 0,-0.1 -0.04,-0.2 -0.11,-0.28 -0.04,-0.04 -0.1,-0.1 -0.14,-0.14 -0.06,-0.06 -0.11,-0.1 -0.2,-0.14 -0.18,-0.07 -0.43,0.07 -0.52,0.33 -0.01,0.06 -0.03,0.1 -0.03,0.15 0,0.06 0,0.11 0,0.17 0.03,0.22 0.11,0.43 0.25,0.61 0.08,0.11 0.18,0.2 0.29,0.28 0.07,0.04 0.13,0.07 0.18,0.1 0.07,0.04 0.14,0.07 0.21,0.08 0.15,0.06 0.31,0.07 0.46,0.08 0.15,-0.01 0.31,-0.03 0.46,-0.08l0 0c0,0 0,0 0.01,0 0.39,-0.07 0.72,-0.35 0.89,-0.71l1.06 -2.4 0.54 -1.23 2.13 -4.8 1.28 0 0 -0.2 -1.18 0zm14.88 6.13l0 -9.84 -1 0.26 -1.34 0.36 0.06 0.18 1.28 -0.33 0 9.37 -1.44 0 0 0.21 3.88 0 0 -0.21 -1.44 0zm4.31 0l0 -6.57 -0.99 0.27 -1.35 0.36 0.06 0.19 1.3 -0.35 0 6.09 -1.44 0 0 0.2 3.88 0 0 -0.2 -1.45 0zm-0.56 -8.36c0.28,0 0.5,-0.22 0.5,-0.5 0,-0.26 -0.22,-0.49 -0.5,-0.49 -0.28,0 -0.5,0.22 -0.5,0.49 0,0.28 0.22,0.5 0.5,0.5zm6.71 6.8c0,-0.11 -0.01,-0.24 -0.06,-0.35 -0.03,-0.13 -0.08,-0.25 -0.17,-0.36 -0.17,-0.24 -0.38,-0.45 -0.63,-0.6 -0.25,-0.18 -0.52,-0.33 -0.78,-0.47 -0.59,-0.31 -0.93,-0.54 -1.14,-0.77 -0.39,-0.38 -0.42,-0.99 -0.08,-1.41 0.21,-0.24 0.5,-0.38 0.82,-0.39l0.01 0c0.04,-0.01 0.1,-0.01 0.17,-0.01 0.53,0 1.06,0.17 1.51,0.47l0 0.95 0.2 0 0 -1.03 -0.03 -0.03c-0.47,-0.38 -1.07,-0.57 -1.67,-0.56 -0.45,-0.01 -0.88,0.11 -1.23,0.36 -0.29,0.22 -0.5,0.53 -0.6,0.88 -0.06,0.2 -0.08,0.39 -0.06,0.6 0.03,0.24 0.13,0.47 0.25,0.68 0.15,0.24 0.35,0.45 0.57,0.61 0.25,0.19 0.52,0.36 0.81,0.52 0.29,0.15 0.53,0.28 0.75,0.4 0.15,0.08 0.29,0.18 0.43,0.31 0.04,0.04 0.08,0.08 0.11,0.14 0.03,0.06 0.06,0.11 0.08,0.18 0.04,0.11 0.06,0.24 0.07,0.36 0.01,0.25 -0.08,0.5 -0.26,0.68 -0.26,0.26 -0.64,0.4 -1,0.39l-0.03 0c-0.18,0 -0.36,0 -0.56,-0.03 -0.45,-0.06 -0.88,-0.22 -1.25,-0.49l0 -0.98 -0.2 0 0 1.07 0.04 0.03c0.4,0.31 0.88,0.5 1.39,0.56 0.18,0.03 0.38,0.04 0.57,0.03l0 0c0.06,0 0.11,0 0.15,0 0.03,0 0.05,0 0.07,-0.01l0.01 0c0.35,-0.01 0.68,-0.13 0.99,-0.31 0.31,-0.2 0.54,-0.5 0.65,-0.85 0.06,-0.18 0.08,-0.39 0.07,-0.59zm5.12 0c0,-0.11 -0.01,-0.24 -0.06,-0.35 -0.03,-0.13 -0.08,-0.25 -0.17,-0.36 -0.17,-0.24 -0.38,-0.45 -0.63,-0.6 -0.25,-0.18 -0.51,-0.33 -0.78,-0.47 -0.59,-0.31 -0.93,-0.54 -1.14,-0.77 -0.39,-0.38 -0.42,-0.99 -0.08,-1.41 0.21,-0.24 0.5,-0.38 0.82,-0.39l0.01 0c0.04,-0.01 0.1,-0.01 0.17,-0.01 0.53,0 1.06,0.17 1.51,0.47l0 0.95 0.2 0 0 -1.03 -0.03 -0.03c-0.47,-0.38 -1.07,-0.57 -1.67,-0.56 -0.45,-0.01 -0.88,0.11 -1.23,0.36 -0.29,0.22 -0.5,0.53 -0.6,0.88 -0.06,0.2 -0.08,0.39 -0.06,0.6 0.03,0.24 0.13,0.47 0.25,0.68 0.15,0.24 0.35,0.45 0.57,0.61 0.25,0.19 0.52,0.36 0.81,0.52 0.29,0.15 0.53,0.28 0.75,0.4 0.15,0.08 0.29,0.18 0.43,0.31 0.04,0.04 0.08,0.08 0.11,0.14 0.03,0.06 0.06,0.11 0.08,0.18 0.04,0.11 0.06,0.24 0.07,0.36 0.01,0.25 -0.08,0.5 -0.27,0.68 -0.26,0.26 -0.64,0.4 -1,0.39l-0.03 0c-0.18,0 -0.36,0 -0.56,-0.03 -0.45,-0.06 -0.88,-0.22 -1.25,-0.49l0 -0.98 -0.19 0 0 1.07 0.04 0.03c0.4,0.31 0.88,0.5 1.39,0.56 0.18,0.03 0.38,0.04 0.57,0.03l0 0c0.06,0 0.11,0 0.15,0 0.03,0 0.06,0 0.07,-0.01l0.01 0c0.35,-0.01 0.68,-0.13 0.99,-0.31 0.31,-0.2 0.54,-0.5 0.66,-0.85 0.06,-0.18 0.08,-0.39 0.07,-0.59zm-91.87 -3.83c0.66,0.14 1.21,0.48 1.65,1.01 0.43,0.53 0.65,1.14 0.65,1.83 0,0.39 -0.08,0.77 -0.23,1.13 -0.15,0.36 -0.36,0.67 -0.62,0.93 -0.26,0.26 -0.57,0.47 -0.93,0.62 -0.36,0.15 -0.73,0.23 -1.13,0.23l-2.87 0 0.34 -0.13 0.39 0 0 -8.59 0.68 1.85 0 1.06 0.92 0c0.77,0 1.42,-0.27 1.96,-0.81 0.54,-0.54 0.81,-1.19 0.81,-1.96 0,-0.76 -0.27,-1.42 -0.81,-1.96 -0.54,-0.54 -1.19,-0.82 -1.96,-0.82 -0.76,0 -0.92,0 -1.68,0l-0.37 -0.13 2.6 0c0.8,0 1.48,0.28 2.05,0.85 0.57,0.57 0.85,1.25 0.85,2.05 0,0.69 -0.22,1.3 -0.65,1.83 -0.44,0.53 -0.98,0.87 -1.65,1.01zm-1.15 5.62c0.77,-0 1.42,-0.27 1.96,-0.81 0.54,-0.54 0.81,-1.2 0.81,-1.96 0,-0.76 -0.27,-1.42 -0.81,-1.96 -0.54,-0.54 -1.19,-0.82 -1.96,-0.82l-0.92 0 0 5.55 0.92 0zm71.85 -5.76c0.66,-0.14 1.21,-0.48 1.65,-1.01 0.43,-0.53 0.65,-1.14 0.65,-1.83 0,-0.39 -0.08,-0.77 -0.23,-1.13 -0.15,-0.36 -0.36,-0.67 -0.62,-0.93 -0.26,-0.26 -0.57,-0.47 -0.93,-0.62 -0.36,-0.15 -0.73,-0.23 -1.13,-0.23l-2.87 0 0.34 0.13 0.39 0 0 8.59 0.68 -1.85 0 -1.06 0.92 0c0.77,0 1.42,0.27 1.96,0.81 0.54,0.54 0.81,1.19 0.81,1.96 0,0.76 -0.27,1.42 -0.81,1.96 -0.54,0.54 -1.19,0.81 -1.96,0.81 -0.76,0 -0.92,0 -1.68,0l-0.37 0.13 2.6 0c0.8,0 1.48,-0.28 2.05,-0.85 0.57,-0.57 0.85,-1.25 0.85,-2.05 0,-0.69 -0.22,-1.3 -0.65,-1.83 -0.44,-0.53 -0.98,-0.87 -1.65,-1.01zm-1.15 -5.62c0.77,0 1.42,0.27 1.96,0.81 0.54,0.54 0.81,1.2 0.81,1.96 0,0.77 -0.27,1.42 -0.81,1.96 -0.54,0.54 -1.19,0.82 -1.96,0.82l-0.92 0 0 -5.55 0.92 0z"/>
  </g>
 </g>
</svg>
