<?xml version="1.0" encoding="UTF-8"?>
<!DOCTYPE svg PUBLIC "-//W3C//DTD SVG 1.0//EN" "http://www.w3.org/TR/2001/REC-SVG-20010904/DTD/svg10.dtd">
<!-- Creator: CorelDRAW -->
<svg xmlns="http://www.w3.org/2000/svg" xml:space="preserve" width="0.6in" height="0.366661in" version="1.0" style="shape-rendering:geometricPrecision; text-rendering:geometricPrecision; image-rendering:optimizeQuality; fill-rule:evenodd; clip-rule:evenodd"
viewBox="0 0 60.48 36.96"
 xmlns:xlink="http://www.w3.org/1999/xlink"
 xmlns:xodm="http://www.corel.com/coreldraw/odm/2003">
 <defs>
  <style type="text/css">
   <![CDATA[
    .fil0 {fill:none}
    .fil8 {fill:#414042;fill-rule:nonzero}
    .fil2 {fill:url(#id0)}
    .fil1 {fill:url(#id1)}
    .fil7 {fill:url(#id2)}
    .fil3 {fill:url(#id3)}
    .fil5 {fill:url(#id4)}
    .fil6 {fill:url(#id5)}
    .fil4 {fill:url(#id6)}
   ]]>
  </style>
  <linearGradient id="id0" gradientUnits="userSpaceOnUse" x1="44.88" y1="11.75" x2="48.6" y2="18.18">
   <stop offset="0" style="stop-opacity:1; stop-color:#E9BE57"/>
   <stop offset="1" style="stop-opacity:1; stop-color:#99671C"/>
  </linearGradient>
  <linearGradient id="id1" gradientUnits="userSpaceOnUse" xlink:href="#id0" x1="14.93" y1="10.18" x2="20.45" y2="19.74">
  </linearGradient>
  <linearGradient id="id2" gradientUnits="userSpaceOnUse" xlink:href="#id0" x1="24.87" y1="11.36" x2="29.01" y2="18.53">
  </linearGradient>
  <linearGradient id="id3" gradientUnits="userSpaceOnUse" xlink:href="#id0" x1="6.36" y1="11.36" x2="10.5" y2="18.53">
  </linearGradient>
  <linearGradient id="id4" gradientUnits="userSpaceOnUse" xlink:href="#id0" x1="39.85" y1="10.7" x2="43.56" y2="17.13">
  </linearGradient>
  <linearGradient id="id5" gradientUnits="userSpaceOnUse" xlink:href="#id0" x1="49.05" y1="12.59" x2="53.58" y2="20.45">
  </linearGradient>
  <linearGradient id="id6" gradientUnits="userSpaceOnUse" xlink:href="#id0" x1="33.87" y1="9.89" x2="38.89" y2="18.58">
  </linearGradient>
 </defs>
 <g id="Layer_x0020_1">
  <metadata id="CorelCorpID_0Corel-Layer"/>
  <rect class="fil0" width="60.48" height="36.96"/>
  <g id="_1838113231440">
   <path class="fil1" d="M13.6 18.97l0.48 0 0 -6.7 3.12 6.7 0.48 0 3.12 -6.81 0 6.81 0.97 0 0 -8.02 -0.97 0 -3.09 6.81 -3.16 -6.81 -0.96 0 0 8.02z"/>
   <path class="fil2" d="M46.26 18.97l0.96 0 0 -8.02 -0.96 0 0 8.02z"/>
   <path class="fil3" d="M6.39 11.34c-0.62,0.38 -1.12,0.88 -1.49,1.51 -0.37,0.64 -0.56,1.33 -0.56,2.1 0,0.77 0.18,1.46 0.56,2.1 0.37,0.63 0.88,1.13 1.49,1.51 0.62,0.37 1.3,0.56 2.04,0.56 0.74,0 1.42,-0.18 2.04,-0.56 0.62,-0.38 1.12,-0.88 1.49,-1.51 0.37,-0.64 0.57,-1.33 0.57,-2.1 0,-0.77 -0.19,-1.46 -0.57,-2.1 -0.37,-0.63 -0.87,-1.13 -1.49,-1.51 -0.62,-0.37 -1.29,-0.57 -2.04,-0.57 -0.74,0 -1.41,0.19 -2.04,0.57zm0.45 6.82c-0.46,-0.32 -0.81,-0.76 -1.07,-1.31 -0.26,-0.55 -0.39,-1.19 -0.39,-1.89 0,-0.71 0.13,-1.34 0.39,-1.89 0.26,-0.56 0.62,-1 1.07,-1.32 0.46,-0.32 0.99,-0.47 1.58,-0.47 0.91,0.01 1.65,0.37 2.21,1.06 0.56,0.69 0.83,1.56 0.83,2.62 0,0.71 -0.13,1.34 -0.38,1.89 -0.25,0.56 -0.61,1 -1.07,1.31 -0.46,0.32 -0.99,0.48 -1.6,0.48 -0.61,0 -1.14,-0.16 -1.59,-0.48z"/>
   <path class="fil4" d="M37.13 18.97l1.09 0 -2.36 -3.84c0.59,-0.12 1.07,-0.37 1.45,-0.73 0.38,-0.36 0.56,-0.81 0.56,-1.33 0,-0.42 -0.12,-0.78 -0.37,-1.1 -0.25,-0.32 -0.57,-0.57 -0.99,-0.75 -0.42,-0.18 -0.87,-0.27 -1.37,-0.27l-3.1 0 0.39 0.48 2.71 0c0.47,0 0.88,0.15 1.2,0.45 0.33,0.3 0.49,0.69 0.49,1.19 0,0.5 -0.16,0.9 -0.49,1.2 -0.33,0.3 -0.73,0.45 -1.2,0.45l-0.67 0 2.67 4.25z"/>
   <path class="fil5" d="M39.42 18.97l0.96 0 0 -3.29 3.85 0 0 -0.48 -3.85 0 0 -3.77 4.81 0 0 -0.48 -5.77 0 0 8.02z"/>
   <path class="fil6" d="M48.28 18.97l0.48 0 1.28 -2.84 3.75 0 1.32 2.84 1.02 0 -3.6 -8.02 -0.65 0 -3.61 8.02zm3.61 -6.96l1.69 3.63 -3.32 0 1.63 -3.63z"/>
   <path class="fil7" d="M24.9 11.34c-0.62,0.38 -1.12,0.88 -1.49,1.51 -0.37,0.64 -0.56,1.33 -0.56,2.1 0,0.77 0.18,1.46 0.56,2.1 0.37,0.63 0.88,1.13 1.49,1.51 0.62,0.37 1.3,0.56 2.04,0.56 0.74,0 1.42,-0.18 2.04,-0.56 0.62,-0.38 1.12,-0.88 1.49,-1.51 0.37,-0.64 0.57,-1.33 0.57,-2.1 0,-0.77 -0.19,-1.46 -0.57,-2.1 -0.38,-0.63 -0.87,-1.13 -1.49,-1.51 -0.62,-0.37 -1.29,-0.57 -2.04,-0.57 -0.74,0 -1.41,0.19 -2.04,0.57zm0.45 6.82c-0.46,-0.32 -0.81,-0.76 -1.07,-1.31 -0.26,-0.55 -0.39,-1.19 -0.39,-1.89 0,-0.71 0.13,-1.34 0.39,-1.89 0.26,-0.56 0.62,-1 1.07,-1.32 0.46,-0.32 0.99,-0.47 1.58,-0.47 0.91,0.01 1.65,0.37 2.21,1.06 0.56,0.69 0.83,1.56 0.83,2.62 0,0.71 -0.13,1.34 -0.38,1.89 -0.25,0.56 -0.61,1 -1.07,1.31 -0.46,0.32 -0.99,0.48 -1.6,0.48 -0.61,0 -1.14,-0.16 -1.59,-0.48z"/>
   <path class="fil8" d="M20.33 24.25c-0.06,0.09 -0.13,0.17 -0.19,0.26 -0.55,0.73 -1.2,1.42 -1.67,1.5 -0.08,0.02 -0.16,-0.03 -0.18,-0.11 -0.02,-0.08 -0.01,-0.22 0.14,-0.39 0.32,-0.37 1.02,-0.85 1.77,-1.24l0.19 -0.1 -0.05 0.07zm1.67 -0.9c-0.28,0.07 -0.79,0.27 -1.13,0.42 0.23,-0.35 0.36,-0.57 0.37,-0.58 0.04,-0.08 -0.05,-0.17 -0.12,-0.11 -0.01,0.01 -0.01,0.01 -0.01,0.01 -0.01,0.01 -0.02,0.01 -0.03,0.02 -0.13,0.17 -0.37,0.38 -0.6,0.53 -0.11,0.07 -0.22,0.13 -0.31,0.16 -0.09,0.03 -0.13,0.02 -0.14,0.01 -0.01,-0.01 -0.02,-0.03 -0.01,-0.09 0.02,-0.06 0.06,-0.13 0.11,-0.21 0.06,-0.08 0.12,-0.15 0.18,-0.21 0.06,-0.06 0.11,-0.09 0.13,-0.09 0.04,-0.01 0.07,-0.06 0.06,-0.11 -0.01,-0.04 -0.06,-0.07 -0.11,-0.06 -0.06,0.02 -0.13,0.07 -0.2,0.13 -0.07,0.07 -0.14,0.15 -0.19,0.23 -0.06,0.08 -0.11,0.18 -0.13,0.26 -0.02,0.08 -0.03,0.19 0.05,0.26 0.04,0.04 0.1,0.06 0.16,0.06 0.15,0 0.35,-0.1 0.49,-0.2l0.12 -0.08 -0.11 0.18 -0.01 0.02 -0.21 0.1c-0.85,0.42 -1.7,0.98 -2.07,1.4 -0.17,0.2 -0.22,0.4 -0.17,0.56 0.06,0.16 0.21,0.25 0.37,0.22 0.56,-0.1 1.24,-0.86 1.78,-1.57l0.38 -0.52 0.04 -0.07 0.25 -0.11c0.33,-0.14 0.83,-0.34 1.1,-0.41 0.04,-0.01 0.07,-0.06 0.06,-0.11 -0.01,-0.04 -0.06,-0.07 -0.1,-0.06z"/>
   <path class="fil8" d="M48.17 24.85c0.08,-0.11 0.12,-0.22 0.12,-0.33 0,-0.14 -0.07,-0.27 -0.17,-0.4 -0.48,-0.61 -1.53,-1.27 -1.53,-2.05 0,-0.06 0.01,-0.13 0.02,-0.19 0.16,-0.71 1.13,-1.23 1.96,-1.42 0.26,-0.06 0.5,-0.09 0.72,-0.09 0.46,0 0.81,0.13 0.94,0.37l0.03 0.07 0 0.06c0.01,0.32 -0.3,0.7 -0.73,1.05 -0.12,0.12 -0.01,0.22 0.11,0.13 0.45,-0.36 0.86,-0.83 0.79,-1.27l0 -0.01c-0.11,-0.4 -0.59,-0.57 -1.15,-0.57 -0.24,0 -0.5,0.03 -0.75,0.09 -0.77,0.19 -1.86,0.65 -2.08,1.52 -0.02,0.09 -0.03,0.18 -0.03,0.27 0,0.88 1.1,1.52 1.57,2.14 0.08,0.1 0.13,0.19 0.13,0.29 0,0.07 -0.03,0.15 -0.09,0.23 -0.17,0.23 -0.54,0.35 -0.94,0.35 -0.17,0 -0.35,-0.02 -0.53,-0.07 -0.58,-0.14 -1.06,-0.53 -1.05,-1.1 0.01,-0.06 -0.02,-0.09 -0.08,-0.09 -0.04,-0.01 -0.08,0.04 -0.08,0.08 -0.02,0.69 0.54,1.11 1.16,1.27 0.18,0.05 0.38,0.07 0.57,0.07 0.44,0 0.85,-0.13 1.07,-0.42z"/>
   <path class="fil8" d="M42.69 23.22c-0.27,0.22 -0.51,0.39 -0.71,0.48 -0.11,0.06 -0.21,0.08 -0.27,0.08 -0.06,0 -0.09,-0.02 -0.11,-0.05 -0.04,-0.06 0.05,-0.24 0.32,-0.4 0.19,-0.11 0.43,-0.18 0.67,-0.16l0.12 0.02 -0.02 0.01zm-4.62 0.08c-0.11,0.07 -0.24,0.14 -0.37,0.2 -0.17,0.09 -0.34,0.16 -0.48,0.21 -0.07,0.02 -0.12,0.03 -0.17,0.04 -0.05,0 -0.06,-0.01 -0.06,-0.01l-0.01 -0.01c-0.02,-0.03 0.01,-0.08 0.03,-0.11 0.05,-0.07 0.14,-0.15 0.28,-0.22 0.16,-0.08 0.36,-0.13 0.56,-0.13 0.07,0 0.13,0.01 0.2,0.02l0.04 0.01 -0.02 0.01zm6.77 -2.37c-0.01,0.01 -0.54,0.59 -0.91,1.06l-0.06 0.08 -0.11 0.12c-0.27,0.3 -0.56,0.58 -0.84,0.83l-0.06 0.06 -0.03 -0.02c-0.11,-0.04 -0.22,-0.05 -0.33,-0.05 -0.24,0 -0.47,0.08 -0.66,0.18 -0.05,0.03 -0.1,0.06 -0.14,0.1 -0.01,0 -0.01,-0 -0.02,0 -0.07,0.05 -0.34,0.21 -0.59,0.31 -0.22,0.09 -0.64,0.18 -0.66,0.08 0,-0.11 0.21,-0.32 0.28,-0.41 0.06,-0.08 0.03,-0.18 -0.07,-0.2 -0.28,-0.03 -0.83,0.17 -1.11,0.31l0.16 -0.18c0.03,-0.03 0.02,-0.09 -0.01,-0.12 -0.03,-0.03 -0.09,-0.03 -0.12,0.01l-0.12 0.14c-0.01,0 -0.02,0 -0.03,0.01 -0.07,0.05 -0.3,0.19 -0.55,0.3 -0.27,0.12 -0.51,0.19 -0.64,0.16 -0.04,-0.01 -0.05,-0.02 -0.06,-0.03 0,-0.01 -0.01,-0.01 0,-0.03 0,-0.04 0.03,-0.11 0.09,-0.18 0.08,-0.11 0.19,-0.21 0.25,-0.26l0.01 -0.01 0.02 -0.01 0.02 -0.02c0.08,-0.07 -0.02,-0.19 -0.11,-0.13l0 0.01c-0.01,0 -0.01,0.01 -0.02,0.02l-0.01 0.01 -0.01 0.01 -0.13 0.09 -0.01 0 -0.06 -0.02c-0.12,-0.04 -0.25,-0.06 -0.37,-0.06 -0.23,0 -0.46,0.06 -0.64,0.15 -0.15,0.07 -0.27,0.17 -0.33,0.27 -0.04,0.06 -0.07,0.12 -0.07,0.18 0,0.06 0.02,0.11 0.06,0.16l0.02 0.02c0.09,0.08 0.26,0.04 0.38,0 0.15,-0.05 0.33,-0.13 0.51,-0.22l0.13 -0.07 0.13 -0.07 -0.01 0.01c-0.01,0.03 -0.02,0.07 -0.03,0.1 -0.02,0.11 0.05,0.2 0.18,0.24 0.19,0.06 0.5,-0.05 0.75,-0.16 0.06,-0.03 0.12,-0.06 0.18,-0.09l-0.03 0.04c-0.07,0.07 -0.1,0.12 -0.13,0.17 -0.06,0.09 0.08,0.16 0.14,0.08l0.11 -0.13c0.29,-0.23 0.9,-0.51 1.35,-0.55 -0.07,0.08 -0.13,0.17 -0.18,0.23 -0.05,0.06 -0.09,0.15 -0.09,0.23 0,0.07 0.03,0.14 0.13,0.18 0.04,0.02 0.09,0.02 0.16,0.02 0.18,0 0.41,-0.06 0.6,-0.13 0.1,-0.03 0.19,-0.08 0.28,-0.13 -0.02,0.07 -0.02,0.13 0.02,0.19 0.06,0.09 0.16,0.13 0.26,0.13 0.1,-0.01 0.22,-0.04 0.34,-0.1 0.25,-0.12 0.55,-0.33 0.86,-0.6l0.12 -0.11 -0.11 0.15c-0.25,0.34 -0.49,0.67 -0.68,0.96 -0.13,0.19 -0.23,0.36 -0.31,0.5 -0.06,0.12 -0.12,0.25 -0.1,0.34 0.01,0.04 0.03,0.09 0.09,0.11 0.04,0.01 0.09,-0.01 0.11,-0.06 0.01,-0.03 -0.01,-0.07 -0.03,-0.09l-0.01 0 0 -0.01c0.01,-0.03 0.03,-0.09 0.09,-0.21 0.07,-0.13 0.17,-0.3 0.3,-0.48 0.25,-0.38 0.59,-0.84 0.93,-1.29 0.22,-0.28 0.43,-0.56 0.63,-0.81l0.05 -0.06 0.12 -0.14c0.22,-0.26 0.68,-0.76 0.86,-1.01 0.06,-0.08 -0.06,-0.18 -0.13,-0.1z"/>
   <path class="fil8" d="M8.9 24.7c-0.22,0.15 -0.46,0.26 -0.69,0.32 -0.12,0.03 -0.22,0.02 -0.27,-0.02 -0.04,-0.02 -0.06,-0.07 -0.01,-0.16l0.01 -0.03 0.01 -0.01c0.04,-0.03 0.13,-0.07 0.27,-0.09 0.15,-0.02 0.35,-0.03 0.59,-0.03l0.12 0.01 -0.02 0.01zm1.53 -1.38c0.23,-0.32 0.45,-0.65 0.66,-0.96 0.42,-0.65 0.78,-1.25 1.09,-1.68 0.05,-0.07 0.46,-0.63 0.61,-0.53 0.14,0.08 0.21,0.25 0.21,0.46 0,0.22 -0.08,0.5 -0.22,0.81 -0.28,0.6 -0.81,1.24 -1.46,1.62 -0.36,0.2 -0.7,0.36 -1.01,0.46l-0.01 0.01 0.14 -0.19zm0.04 1.37c-0.37,-0.07 -0.75,-0.12 -1.09,-0.14l-0.01 0 0.12 -0.11c0.26,-0.24 0.34,-0.34 0.58,-0.65l0.04 -0.06 0.11 -0.03c0.36,-0.11 0.75,-0.28 1.17,-0.51 0.68,-0.41 1.23,-1.08 1.53,-1.69 0.14,-0.31 0.24,-0.62 0.24,-0.89 0,-0.26 -0.09,-0.47 -0.29,-0.6 -0.3,-0.17 -0.66,0.33 -0.84,0.58 -0.31,0.42 -0.67,1.04 -1.09,1.68 -0.27,0.41 -0.55,0.82 -0.84,1.2l-0.09 0.12 -0.09 0.02c-0.17,0.03 -0.32,0.06 -0.46,0.06 -0.06,0 -0.11,-0.01 -0.16,-0.01 -0.47,-0.06 -0.76,-0.36 -0.82,-0.94 -0.01,-0.04 -0.05,-0.08 -0.09,-0.07 -0.04,0.01 -0.08,0.04 -0.07,0.09 0.07,0.65 0.41,1.02 0.96,1.09 0.06,0.01 0.12,0.01 0.19,0.01 0.12,0 0.24,-0.01 0.37,-0.03l0.02 -0.01 -0.1 0.12c-0.24,0.28 -0.31,0.36 -0.56,0.57l-0.06 0.05 -0.14 -0.01c-0.06,0 -0.12,-0.01 -0.18,-0.01 -0.42,-0.01 -0.84,0.03 -0.99,0.19l-0.01 0.02c-0.04,0.08 -0.06,0.15 -0.06,0.22 0,0.09 0.04,0.16 0.11,0.21 0.07,0.04 0.14,0.06 0.23,0.06 0.06,0 0.12,-0.01 0.17,-0.02 0.29,-0.07 0.57,-0.22 0.84,-0.42l0.09 -0.07 0.18 0.02c0.34,0.03 0.71,0.08 1.08,0.14 0.59,0.11 1.18,0.26 1.64,0.44 0.47,0.19 0.8,0.4 0.9,0.61 0.02,0.04 0.07,0.06 0.11,0.04 0.04,-0.02 0.06,-0.07 0.04,-0.11 -0.26,-0.55 -1.54,-0.94 -2.67,-1.15z"/>
   <path class="fil8" d="M31.85 23.5c-0.14,0.18 -0.4,0.41 -0.56,0.36 -0.12,-0.03 0,-0.29 0.13,-0.44 0.01,-0.02 0.03,-0.03 0.04,-0.04 0.01,-0.01 0.02,-0.01 0.02,-0.02 0.11,-0.1 0.22,-0.18 0.3,-0.21 0.01,-0.01 0.02,-0.01 0.03,-0.02l0.01 -0.02c0.02,0.04 0.07,0.08 0.15,0.13 -0.01,0.07 -0.06,0.16 -0.12,0.25zm-3.27 -0.2c-0.11,0.07 -0.24,0.14 -0.37,0.2 -0.17,0.09 -0.34,0.16 -0.48,0.21 -0.07,0.02 -0.12,0.03 -0.17,0.04 -0.05,0 -0.06,-0.01 -0.06,-0.01l-0.01 -0.01c-0.02,-0.03 0.01,-0.08 0.03,-0.11 0.05,-0.07 0.14,-0.15 0.28,-0.22 0.16,-0.08 0.36,-0.13 0.56,-0.13 0.07,0 0.13,0.01 0.2,0.02l0.04 0.01 -0.02 0.01zm6.67 -0.01c-0.07,0.05 -0.34,0.21 -0.59,0.31 -0.22,0.09 -0.64,0.18 -0.66,0.08 0,-0.11 0.21,-0.32 0.28,-0.41 0.06,-0.08 0.03,-0.18 -0.07,-0.19 -0.28,-0.03 -0.83,0.17 -1.11,0.31l0.16 -0.18c0.03,-0.03 0.02,-0.09 -0.01,-0.12 -0.03,-0.03 -0.09,-0.03 -0.12,0.01l-0.07 0.08c-0,0 -0.01,-0 -0.01,-0 -0.13,0.03 -0.29,0.05 -0.44,0.05 -0.16,0 -0.32,-0.02 -0.47,-0.09l0 -0.01c-0.01,-0.08 -0.06,-0.14 -0.16,-0.18 -0.02,-0.01 -0.04,-0.01 -0.06,-0.01 -0.06,0 -0.1,0.02 -0.12,0.08l-0.01 -0.01c-0.03,-0.02 -0.06,-0.02 -0.09,-0.01 -0.12,0.06 -0.23,0.14 -0.32,0.23 -0,0 -0.01,0 -0.01,0 -0.16,0.11 -0.61,0.47 -1.01,0.71 -0.28,0.17 -0.53,0.28 -0.61,0.2 -0.02,-0.02 -0.04,-0.08 -0.01,-0.18 0.02,-0.1 0.08,-0.23 0.16,-0.37 0.17,-0.3 0.45,-0.66 0.75,-1.03 0.62,-0.74 1.37,-1.49 1.69,-1.76 0.03,-0.03 0.04,-0.08 0.01,-0.12 -0.03,-0.03 -0.08,-0.04 -0.12,-0.01 -0.34,0.28 -1.1,1.03 -1.72,1.77 -0.23,0.27 -0.43,0.53 -0.6,0.78 -0,0 -0,0 -0.01,0 -0.07,0.05 -0.3,0.19 -0.55,0.3 -0.27,0.12 -0.51,0.19 -0.64,0.16 -0.04,-0.01 -0.05,-0.02 -0.06,-0.03 0,-0.01 -0.01,-0.01 0,-0.03 0,-0.04 0.03,-0.11 0.09,-0.18 0.08,-0.11 0.19,-0.21 0.25,-0.26l0.01 -0.01 0.02 -0.01 0.02 -0.02c0.08,-0.07 -0.02,-0.19 -0.11,-0.13l0 0.01c-0.01,0 -0.01,0.01 -0.02,0.02l-0.01 0.01 -0.01 0.01 -0.13 0.09 -0.01 0 -0.06 -0.02c-0.12,-0.04 -0.25,-0.06 -0.37,-0.06 -0.23,0 -0.46,0.06 -0.64,0.15 -0.14,0.07 -0.27,0.17 -0.33,0.27 -0.04,0.06 -0.07,0.12 -0.07,0.18 0,0.06 0.02,0.11 0.06,0.16l0.02 0.02c0.09,0.08 0.26,0.04 0.38,0 0.15,-0.05 0.33,-0.13 0.51,-0.22l0.13 -0.07 0.13 -0.07 -0.01 0.01c-0.01,0.03 -0.02,0.07 -0.03,0.1 -0.02,0.11 0.05,0.2 0.18,0.24 0.2,0.06 0.5,-0.05 0.75,-0.16 0.1,-0.05 0.2,-0.1 0.29,-0.15 -0.1,0.18 -0.18,0.36 -0.18,0.52 0,0.08 0.02,0.14 0.07,0.2 0.06,0.06 0.13,0.08 0.21,0.08 0.17,0 0.37,-0.11 0.6,-0.24 0.24,-0.14 0.48,-0.32 0.68,-0.47 -0.02,0.06 -0.03,0.13 -0.02,0.18 0.01,0.09 0.07,0.17 0.19,0.19 0.28,0.03 0.58,-0.25 0.71,-0.42 0.06,-0.08 0.11,-0.17 0.13,-0.26l0.01 -0.01c0.15,0.04 0.31,0.07 0.5,0.07 0.08,0 0.17,-0.01 0.26,-0.02l-0.25 0.28c-0.07,0.07 -0.1,0.12 -0.13,0.17 -0.06,0.09 0.08,0.16 0.14,0.08l0.11 -0.13c0.29,-0.23 0.9,-0.51 1.35,-0.55 -0.07,0.08 -0.13,0.17 -0.18,0.23 -0.05,0.06 -0.09,0.15 -0.09,0.23 0,0.07 0.03,0.14 0.13,0.18 0.04,0.02 0.09,0.02 0.16,0.02 0.18,0 0.41,-0.06 0.6,-0.13 0.26,-0.09 0.54,-0.27 0.62,-0.32 0.03,-0.02 0.04,-0.08 0.02,-0.12 -0.03,-0.03 -0.08,-0.04 -0.12,-0.02z"/>
   <path class="fil8" d="M52 23.3c-0.11,0.07 -0.24,0.14 -0.37,0.2 -0.17,0.09 -0.34,0.16 -0.48,0.21 -0.07,0.02 -0.12,0.03 -0.17,0.04 -0.05,0 -0.06,-0.01 -0.06,-0.01l-0.01 -0.01c-0.02,-0.03 0.01,-0.08 0.03,-0.11 0.05,-0.07 0.14,-0.15 0.28,-0.22 0.16,-0.08 0.36,-0.13 0.56,-0.13 0.07,0 0.13,0.01 0.2,0.02l0.04 0.01 -0.02 0.01zm-2.15 0.32c-0.1,0.08 -0.19,0.12 -0.26,0.14l-0.03 0.01 -0.02 0c-0.06,-0.01 -0.1,-0.02 -0.12,-0.04l-0.02 -0.01 0.02 -0.02c0.09,-0.11 0.26,-0.27 0.42,-0.38 0.09,-0.07 0.17,-0.11 0.23,-0.12 0.02,0 0.05,-0.01 0.06,0.02 0.03,0.07 -0.07,0.26 -0.28,0.41zm3.48 -0.37c-0.07,0.05 -0.3,0.19 -0.55,0.3 -0.27,0.12 -0.51,0.19 -0.64,0.16 -0.04,-0.01 -0.05,-0.02 -0.06,-0.03 0,-0.01 -0.01,-0.01 0,-0.03 0,-0.04 0.03,-0.11 0.09,-0.18 0.08,-0.11 0.19,-0.21 0.25,-0.26l0.01 -0.01 0.02 -0.01 0.02 -0.02c0.08,-0.07 -0.02,-0.19 -0.11,-0.13l0 0.01c-0.01,0 -0.01,0.01 -0.02,0.02l-0.01 0.01 -0.01 0.01 -0.13 0.09 -0.01 0 -0.06 -0.02c-0.12,-0.04 -0.25,-0.06 -0.37,-0.06 -0.23,0 -0.46,0.06 -0.64,0.15 -0.01,0 -0.01,0.01 -0.02,0.01 -0.01,0 -0.02,0 -0.03,0.01 -0.31,0.17 -0.72,0.36 -1,0.43l-0.1 0.03 0.03 -0.03c0.17,-0.15 0.32,-0.37 0.26,-0.54 -0.04,-0.12 -0.16,-0.16 -0.26,-0.13 -0.17,0.04 -0.33,0.16 -0.47,0.31 0.28,-0.38 0.43,-0.56 0.54,-0.7 0.03,-0.04 0.03,-0.09 -0.01,-0.12 -0.04,-0.03 -0.09,-0.03 -0.12,0.01 -0.26,0.31 -1,1.25 -1.57,2.18l-0.04 0.08 -0.18 0.26c-0.2,0.31 -0.37,0.62 -0.46,0.86 -0.04,0.1 0.11,0.16 0.16,0.07 0.14,-0.28 0.33,-0.6 0.52,-0.93l0.1 -0.17 0.03 -0.05c0.25,-0.36 0.53,-0.72 0.76,-0.98l0.03 0.03c0.06,0.06 0.14,0.08 0.23,0.07l0.02 -0.01 0.03 0c0.13,0.01 0.27,-0.02 0.42,-0.05 0.2,-0.04 0.46,-0.14 0.73,-0.26 -0.01,0.02 -0.01,0.05 -0.01,0.07 0,0.06 0.02,0.11 0.06,0.16l0.02 0.02c0.09,0.08 0.26,0.04 0.38,0 0.15,-0.05 0.33,-0.13 0.51,-0.22l0.13 -0.07 0.13 -0.07 -0.01 0.01c-0.01,0.03 -0.02,0.07 -0.03,0.1 -0.02,0.11 0.05,0.2 0.18,0.24 0.2,0.06 0.5,-0.05 0.75,-0.16 0.26,-0.12 0.5,-0.26 0.58,-0.32 0.04,-0.03 0.04,-0.08 0.02,-0.12 -0.03,-0.04 -0.08,-0.04 -0.12,-0.02z"/>
   <path class="fil8" d="M14.81 23.31c-0.02,-0.04 -0.07,-0.06 -0.11,-0.03 -0.31,0.18 -0.69,0.43 -1.08,0.45 -0.03,-0.01 -0.08,-0.01 -0.09,-0.04 -0.01,-0.04 0.01,-0.13 0.08,-0.24 0.06,-0.1 0.13,-0.19 0.16,-0.23 0.07,-0.08 -0.06,-0.18 -0.13,-0.11 -0.15,0.16 -0.4,0.36 -0.63,0.5 -0.12,0.07 -0.23,0.12 -0.31,0.14 -0.09,0.03 -0.13,0.01 -0.15,0 -0.01,-0.01 -0.02,-0.03 0.01,-0.09 0.02,-0.06 0.06,-0.13 0.12,-0.21 0.06,-0.07 0.13,-0.14 0.19,-0.2 0.07,-0.06 0.12,-0.08 0.14,-0.09 0.04,-0.01 0.07,-0.05 0.06,-0.09 -0.01,-0.05 -0.06,-0.08 -0.1,-0.07 -0.07,0.02 -0.14,0.07 -0.21,0.12 -0.07,0.06 -0.15,0.14 -0.21,0.22 -0.07,0.08 -0.12,0.17 -0.15,0.26 -0.03,0.08 -0.04,0.19 0.04,0.27 0.04,0.05 0.11,0.07 0.18,0.07 0.15,0 0.33,-0.09 0.48,-0.18 0.06,-0.03 0.13,-0.07 0.19,-0.12l0.08 -0.06 0 0.01c-0.01,0.05 -0.01,0.1 0,0.15 0.04,0.12 0.15,0.16 0.25,0.16 0.37,0.02 0.86,-0.28 1.17,-0.47 0.04,-0.02 0.06,-0.07 0.03,-0.11z"/>
   <path class="fil8" d="M26.94 20.47c0.26,-0.06 0.5,-0.09 0.72,-0.09 0.46,0 0.81,0.13 0.94,0.37l0.03 0.07 0 0.06c0.01,0.32 -0.3,0.7 -0.73,1.05 -0.12,0.12 -0.01,0.22 0.11,0.13 0.45,-0.36 0.86,-0.83 0.79,-1.27l0 -0.01c-0.11,-0.4 -0.59,-0.57 -1.15,-0.57 -0.24,0 -0.5,0.03 -0.75,0.09 -0.77,0.19 -1.86,0.65 -2.08,1.52 -0.02,0.09 -0.03,0.18 -0.03,0.27 0,0.88 1.1,1.52 1.57,2.14 0.08,0.1 0.13,0.19 0.13,0.29 0,0.07 -0.03,0.15 -0.09,0.23 -0.17,0.23 -0.54,0.35 -0.94,0.35 -0.17,0 -0.35,-0.02 -0.53,-0.07 -0.58,-0.14 -1.06,-0.53 -1.05,-1.1 0.01,-0.06 -0.02,-0.09 -0.08,-0.09 -0.04,-0.01 -0.08,0.04 -0.08,0.08 -0.02,0.69 0.54,1.11 1.16,1.27 0.18,0.05 0.38,0.07 0.57,0.07 0.44,0 0.85,-0.13 1.07,-0.42 0.08,-0.11 0.12,-0.22 0.12,-0.33 0,-0.14 -0.07,-0.27 -0.17,-0.4 -0.48,-0.61 -1.53,-1.27 -1.53,-2.05 0,-0.06 0.01,-0.13 0.02,-0.19 0.16,-0.71 1.13,-1.23 1.96,-1.42z"/>
   <path class="fil8" d="M16.11 23.07c-0.02,-0.04 -0.07,-0.07 -0.11,-0.05 -0.26,0.1 -0.56,0.25 -0.84,0.4 -0.11,-0.1 -0.21,-0.21 -0.26,-0.31 -0.02,-0.04 -0.07,-0.06 -0.11,-0.04 -0.04,0.03 -0.06,0.07 -0.03,0.12 0.05,0.11 0.14,0.22 0.25,0.32 -0.19,0.11 -0.38,0.22 -0.52,0.31 -0.04,0.03 -0.05,0.08 -0.03,0.12 0.03,0.04 0.08,0.05 0.12,0.03 0.15,-0.09 0.35,-0.22 0.57,-0.34 0.19,0.16 0.41,0.28 0.55,0.34 0.04,0.02 0.09,0 0.11,-0.04 0.02,-0.04 -0.01,-0.09 -0.04,-0.11 -0.12,-0.05 -0.3,-0.15 -0.46,-0.28 0.26,-0.13 0.52,-0.26 0.76,-0.35 0.04,-0.02 0.07,-0.06 0.05,-0.11z"/>
   <path class="fil8" d="M18.31 23.72c0.32,-0.22 0.88,-0.53 1.31,-0.57l0.02 0 -0.02 0.02c-0.08,0.12 0.1,0.12 0.18,0.02 0.05,-0.06 0.04,-0.17 -0.06,-0.19 -0.27,-0.05 -0.89,0.22 -1.14,0.35l0.18 -0.22c0.03,-0.03 0.02,-0.09 -0.01,-0.12 -0.03,-0.03 -0.09,-0.03 -0.12,0.01 -0.09,0.1 -0.16,0.18 -0.23,0.26 -0.01,0 -0.02,0.01 -0.03,0.01 -0.31,0.18 -0.69,0.43 -1.08,0.45 -0.03,-0.01 -0.08,-0.01 -0.09,-0.04 -0.01,-0.04 0.01,-0.13 0.08,-0.24 0.06,-0.1 0.13,-0.19 0.16,-0.23 0.07,-0.08 -0.06,-0.18 -0.13,-0.11 -0.14,0.16 -0.4,0.36 -0.63,0.5 -0.12,0.07 -0.23,0.12 -0.31,0.14 -0.09,0.03 -0.13,0.01 -0.15,0 -0.01,-0.01 -0.02,-0.03 0.01,-0.09 0.02,-0.06 0.06,-0.13 0.12,-0.21 0.06,-0.07 0.13,-0.14 0.19,-0.2 0.07,-0.06 0.12,-0.08 0.14,-0.09 0.04,-0.01 0.07,-0.05 0.06,-0.09 -0.01,-0.05 -0.06,-0.08 -0.1,-0.07 -0.07,0.02 -0.14,0.07 -0.21,0.12 -0.07,0.06 -0.15,0.14 -0.21,0.22 -0.07,0.08 -0.12,0.17 -0.15,0.26 -0.03,0.08 -0.04,0.19 0.04,0.27 0.04,0.05 0.11,0.07 0.18,0.07 0.15,0 0.33,-0.09 0.48,-0.18 0.06,-0.03 0.13,-0.07 0.19,-0.12l0.08 -0.06 0 0.01c-0.01,0.05 -0.01,0.1 0,0.15 0.04,0.12 0.15,0.16 0.25,0.16 0.23,0.01 0.52,-0.1 0.77,-0.24 -0.14,0.17 -0.18,0.23 -0.19,0.26 -0.04,0.08 0.08,0.16 0.14,0.08 0.16,-0.16 0.22,-0.24 0.27,-0.28z"/>
  </g>
 </g>
</svg>
