<?xml version="1.0" encoding="UTF-8"?>
<!DOCTYPE svg PUBLIC "-//W3C//DTD SVG 1.0//EN" "http://www.w3.org/TR/2001/REC-SVG-20010904/DTD/svg10.dtd">
<!-- Creator: CorelDRAW -->
<svg xmlns="http://www.w3.org/2000/svg" xml:space="preserve" width="0.6in" height="0.366661in" version="1.0" style="shape-rendering:geometricPrecision; text-rendering:geometricPrecision; image-rendering:optimizeQuality; fill-rule:evenodd; clip-rule:evenodd"
viewBox="0 0 60.78 37.14"
 xmlns:xlink="http://www.w3.org/1999/xlink"
 xmlns:xodm="http://www.corel.com/coreldraw/odm/2003">
 <defs>
  <style type="text/css">
   <![CDATA[
    .fil0 {fill:none}
    .fil1 {fill:#4B4B4D;fill-rule:nonzero}
    .fil3 {fill:#ED2E62;fill-rule:nonzero}
    .fil4 {fill:#EDA235;fill-rule:nonzero}
    .fil5 {fill:#36ACE2;fill-rule:nonzero}
    .fil6 {fill:#773F69;fill-rule:nonzero}
    .fil7 {fill:#523F78;fill-rule:nonzero}
    .fil2 {fill:#049CCF;fill-rule:nonzero}
   ]]>
  </style>
 </defs>
 <g id="Layer_x0020_1">
  <metadata id="CorelCorpID_0Corel-Layer"/>
  <rect class="fil0" width="60.78" height="37.14"/>
  <g id="_1839698931184">
   <path class="fil1" d="M16.82 25.62l-0.75 0 -1.7 -5.15 1.04 0 1.04 3.36 1.03 -3.36 1.05 0 -1.71 5.15z"/>
   <path class="fil1" d="M19.33 25.62l0 -5.15 3.4 0 0 0.9 -2.39 0 0 1.21 2.04 0 0 0.9 -2.04 0 0 1.25 2.39 0 0 0.9 -3.4 0z"/>
   <path class="fil1" d="M26.94 25.62l-2.04 -3.16 0 3.16 -1.01 0 0 -5.15 0.9 0 2.04 3.16 0 -3.16 1.01 0 0 5.15 -0.9 0z"/>
   <path class="fil1" d="M31.19 21.36l0 4.25 -1.01 0 0 -4.25 -1.35 0 0 -0.9 3.7 0 0 0.9 -1.35 0z"/>
   <path class="fil1" d="M33.53 25.62l0 -5.15 1.01 0 0 4.26 2.34 0 0 0.9 -3.35 0z"/>
   <path class="fil1" d="M39.61 21.99l-0.65 1.87 1.28 0 -0.63 -1.87zm1.2 3.63l-0.3 -0.91 -1.83 0 -0.31 0.91 -1.05 0 1.88 -5.15 0.79 0 1.88 5.15 -1.05 0z"/>
   <path class="fil1" d="M44.73 23.45l-1.05 0 0 1.27 1.05 0c0.46,0 0.67,-0.29 0.67,-0.63 0,-0.35 -0.22,-0.63 -0.67,-0.63zm-0.07 -2.09l-0.99 0 0 1.19 0.99 0c0.43,0 0.67,-0.24 0.67,-0.59 0,-0.36 -0.24,-0.6 -0.67,-0.6zm0.17 4.25l-2.16 0 0 -5.15 2.07 0c1.01,0 1.59,0.57 1.59,1.45 0,0.57 -0.38,0.94 -0.64,1.07 0.31,0.14 0.71,0.47 0.71,1.16 0,0.96 -0.66,1.48 -1.58,1.48z"/>
   <path class="fil2" d="M15.88 27.3l0 1.67 1.93 0 0 -1.67 0.52 0 0 4 -0.52 0 0 -1.88 -1.93 0 0 1.88 -0.52 0 0 -4 0.52 0z"/>
   <path class="fil2" d="M26.06 31.3l-1.31 -4 0.56 0 0.62 1.97c0.17,0.54 0.32,1.03 0.43,1.49l0.01 0c0.11,-0.46 0.28,-0.96 0.45,-1.49l0.68 -1.98 0.55 0 -1.43 4 -0.57 0z"/>
   <path class="fil2" d="M36.05 29.64l-0.4 -1.15c-0.09,-0.26 -0.15,-0.5 -0.21,-0.73l-0.01 0c-0.06,0.23 -0.12,0.48 -0.2,0.72l-0.39 1.16 1.21 0zm-1.31 0.41l-0.41 1.26 -0.54 0 1.36 -4 0.62 0 1.37 4 -0.55 0 -0.43 -1.26 -1.42 0z"/>
   <path class="fil2" d="M46.37 31.18c-0.19,0.09 -0.57,0.19 -1.06,0.19 -1.13,0 -1.97,-0.71 -1.97,-2.03 0,-1.26 0.85,-2.09 2.09,-2.09 0.49,0 0.81,0.1 0.95,0.18l-0.13 0.42c-0.19,-0.09 -0.47,-0.17 -0.8,-0.17 -0.94,0 -1.56,0.6 -1.56,1.65 0,0.98 0.56,1.6 1.53,1.6 0.32,0 0.64,-0.06 0.85,-0.17l0.1 0.42z"/>
   <path class="fil3" d="M33.87 7.83l0 -0.01c0.11,-0.53 -0.23,-1.05 -0.75,-1.18 -2.16,-0.53 -4.05,-0.87 -5.5,-0.87 -0.33,0.01 -0.61,0.23 -0.68,0.56 -0.07,0.35 -0.08,0.83 -0.04,1.4l0 0.02c0.04,0.28 0.08,0.55 0.13,0.83 0.02,0.12 0.14,0.19 0.26,0.17 2.48,-0.6 5.1,-0.96 6.33,-0.75 0.11,0.02 0.22,-0.06 0.24,-0.17z"/>
   <path class="fil4" d="M40.44 9.75c-0.23,-0.85 -0.78,-1.87 -3.51,-2.63 -1.81,5.93 -5.16,9.71 -5.5,10.09 2.86,-0.9 9.44,-5.89 9.01,-7.46z"/>
   <path class="fil5" d="M30.29 16.89l-0.03 0 -0.01 -0.01 -0.07 -0.02 -0.01 0 -0.14 -0.08 -0.03 -0.02 -0.03 -0.02 -0.02 -0.02c-0.11,-0.09 -0.2,-0.19 -0.3,-0.3l-0.05 -0.07 -0.04 -0.05c-0.05,-0.08 -0.1,-0.14 -0.15,-0.22 -0.22,-0.34 -0.41,-0.7 -0.58,-1.07 -0.05,-0.1 -0.09,-0.19 -0.13,-0.3l-0.03 -0.06 -0.01 -0.02c-0.02,-0.06 -0.05,-0.12 -0.07,-0.18 -0.09,-0.22 -0.18,-0.46 -0.26,-0.69 -0.18,-0.5 -0.34,-1.02 -0.49,-1.53 -0.31,-1.08 -0.56,-2.18 -0.76,-3.29l-0.02 -0.14c0.57,-0.14 1.14,-0.27 1.71,-0.38 0,0 0,0 0,0 0.03,-0.01 0.06,-0.01 0.09,-0.02 0,0 0.01,0 0.01,0 0.01,0 0.02,-0.01 0.03,-0.01 0.01,0 0.01,0 0.02,-0.01 0.01,0 0.02,0 0.02,0 0.01,-0.01 0.02,-0.01 0.03,-0.01 0.01,-0.01 0.01,-0.01 0.01,-0.01 0.01,0 0.02,0 0.03,-0.01 0.01,0 0.01,0 0.02,0 1.41,-0.27 2.75,-0.44 3.73,-0.44 0.32,0 0.61,0.02 0.84,0.06 0,0 0.01,0 0.01,0 0.07,0.01 0.13,0.02 0.19,0.04 -0.22,1.03 -0.48,2.05 -0.77,3.06 -0.18,0.64 -0.38,1.27 -0.6,1.91 -0.1,0.29 -0.2,0.57 -0.31,0.86 -0.09,0.25 -0.21,0.54 -0.29,0.73 -0.2,0.45 -0.41,0.9 -0.66,1.32 -0.1,0.17 -0.2,0.33 -0.32,0.49l-0.05 0.07 -0.05 0.06c-0.05,0.06 -0.11,0.13 -0.17,0.18 -0.03,0.03 -0.13,0.09 -0.12,0.09 0,0 0.02,-0.01 0.05,-0.03l-0.14 0.09 -0.04 0.01 -0.06 0.01z"/>
   <path class="fil6" d="M28.79 8.43c0,0 0,0 0,0 0,0 -0,0 -0,0zm0.09 -0.02c0,0 0.01,0 0.01,0 -0,0 -0.01,0 -0.01,0zm0.04 -0.01c0.01,0 0.01,0 0.02,-0.01 -0,0.01 -0.01,0.01 -0.02,0.01zm0.04 -0.01c0.01,-0.01 0.02,-0.01 0.03,-0.01 -0.01,0 -0.02,0 -0.03,0.01zm0.04 -0.01c0.01,0 0.02,0 0.03,-0.01 -0.01,0.01 -0.02,0.01 -0.03,0.01zm0.05 -0.01c1.41,-0.27 2.75,-0.44 3.73,-0.44 0.33,0 0.62,0.02 0.85,0.06 -0,0 -0.01,0 -0.01,0 -0.23,-0.04 -0.52,-0.06 -0.84,-0.06 -0.98,0 -2.32,0.17 -3.73,0.44z"/>
   <path class="fil7" d="M27.02 8.46l0.08 0.49c0.2,1.11 0.45,2.21 0.76,3.29 0.15,0.51 0.31,1.03 0.49,1.53 0.08,0.23 0.17,0.46 0.26,0.69 0.02,0.06 0.05,0.12 0.07,0.18l0.01 0.02 0.03 0.06c0.04,0.1 0.09,0.2 0.13,0.3 0.17,0.37 0.35,0.73 0.58,1.07 0.05,0.07 0.1,0.15 0.15,0.22l0.04 0.05 0.05 0.07c0.09,0.11 0.19,0.21 0.3,0.3l0.02 0.02 0.03 0.02 0.03 0.02 0.14 0.08 0.01 0 0.07 0.02 0.01 0.01 0.03 0 0.06 -0.01 0.04 -0.01 0.14 -0.08c-0.13,0.07 0.03,-0.03 0.07,-0.07 0.06,-0.06 0.11,-0.12 0.17,-0.18l0.05 -0.06 0.05 -0.07c0.11,-0.16 0.22,-0.33 0.32,-0.5 0.25,-0.42 0.46,-0.87 0.66,-1.32 0.08,-0.19 0.2,-0.48 0.29,-0.73 0.11,-0.29 0.21,-0.57 0.31,-0.86 0.22,-0.63 0.42,-1.26 0.6,-1.9 0.29,-1 0.6,-2.23 0.81,-3.27 -1.15,-0.3 -4.16,-0.03 -6.85,0.63z"/>
   <path class="fil5" d="M25.85 9.04c-2.49,0.67 -4.26,1.54 -4.27,2.19 -0.02,1.37 5.03,4.81 7.76,5.84 -0.52,-0.62 -2.91,-4.9 -3.5,-8.02z"/>
  </g>
 </g>
</svg>
