<svg width="30" height="30" viewBox="0 0 30 30" fill="none" xmlns="http://www.w3.org/2000/svg">
<path d="M26.25 21.25H24.375C23.3406 21.25 22.5 20.4094 22.5 19.375V11.875C22.5 10.8406 23.3406 10 24.375 10H26.25C28.3172 10 30 11.6828 30 13.75V17.5C30 19.5672 28.3172 21.25 26.25 21.25ZM24.375 11.25C24.0297 11.25 23.75 11.5297 23.75 11.875V19.375C23.75 19.7203 24.0297 20 24.375 20H26.25C27.6281 20 28.75 18.8781 28.75 17.5V13.75C28.75 12.3719 27.6281 11.25 26.25 11.25H24.375Z" fill="#3A3A3C"/>
<path d="M5.625 21.25H3.75C1.68281 21.25 0 19.5672 0 17.5V13.75C0 11.6828 1.68281 10 3.75 10H5.625C6.65938 10 7.5 10.8406 7.5 11.875V19.375C7.5 20.4094 6.65938 21.25 5.625 21.25ZM3.75 11.25C2.37188 11.25 1.25 12.3719 1.25 13.75V17.5C1.25 18.8781 2.37188 20 3.75 20H5.625C5.97031 20 6.25 19.7203 6.25 19.375V11.875C6.25 11.5297 5.97031 11.25 5.625 11.25H3.75Z" fill="#3A3A3C"/>
<path d="M24.375 11.25C24.0297 11.25 23.75 10.9703 23.75 10.625V8.75C23.75 4.61406 20.3859 1.25 16.25 1.25H13.75C9.61406 1.25 6.25 4.61406 6.25 8.75V10.625C6.25 10.9703 5.97031 11.25 5.625 11.25C5.27969 11.25 5 10.9703 5 10.625V8.75C5 3.925 8.925 0 13.75 0H16.25C21.075 0 25 3.925 25 8.75V10.625C25 10.9703 24.7203 11.25 24.375 11.25Z" fill="#3A3A3C"/>
<path d="M18.125 30H13.125C12.7797 30 12.5 29.7203 12.5 29.375V25.625C12.5 25.2797 12.7797 25 13.125 25H18.125C18.4703 25 18.75 25.2797 18.75 25.625V29.375C18.75 29.7203 18.4703 30 18.125 30ZM13.75 28.75H17.5V26.25H13.75V28.75Z" fill="#3A3A3C"/>
<path d="M18.1251 28.125C17.811 28.125 17.5391 27.8875 17.5047 27.5688C17.4672 27.225 17.7141 26.9172 18.0579 26.8797L20.9672 26.5594C22.5547 26.3844 23.7501 25.05 23.7501 23.4531V20.625C23.7501 20.2797 24.0297 20 24.3751 20C24.7204 20 25.0001 20.2797 25.0001 20.625V23.4531C25.0001 25.6875 23.3251 27.5578 21.1032 27.8016L18.1938 28.1219C18.1704 28.1234 18.1469 28.125 18.1251 28.125Z" fill="#3A3A3C"/>
</svg>
