<?xml version="1.0" encoding="UTF-8"?>
<!DOCTYPE svg PUBLIC "-//W3C//DTD SVG 1.0//EN" "http://www.w3.org/TR/2001/REC-SVG-20010904/DTD/svg10.dtd">
<!-- Creator: CorelDRAW -->
<svg xmlns="http://www.w3.org/2000/svg" xml:space="preserve" width="30px" version="1.0" style="shape-rendering:geometricPrecision; text-rendering:geometricPrecision; image-rendering:optimizeQuality; fill-rule:evenodd; clip-rule:evenodd"
viewBox="0 0 43.81 47.06"
 xmlns:xlink="http://www.w3.org/1999/xlink"
 xmlns:xodm="http://www.corel.com/coreldraw/odm/2003">
 <defs>
  <style type="text/css">
   <![CDATA[
    .fil0 {fill:#3A3A3C}
   ]]>
  </style>
 </defs>
 <g id="Layer_x0020_1">
  <metadata id="CorelCorpID_0Corel-Layer"/>
  <path class="fil0" d="M34.54 19.84l7.41 0c0.5,0 0.97,0.2 1.32,0.55 0.35,0.35 0.55,0.82 0.55,1.32l0 23.49c0,0.5 -0.2,0.97 -0.55,1.32 -0.35,0.35 -0.82,0.55 -1.32,0.55l-16.9 0c-0.5,0 -0.97,-0.2 -1.32,-0.55 -0.35,-0.35 -0.55,-0.82 -0.55,-1.32l0 -1.31 -18.7 0c-2.47,0 -4.49,-2.02 -4.49,-4.49l0 -34.9c0,-2.47 2.02,-4.49 4.49,-4.49l22.31 0 7.74 7.9 0 11.93zm-1.85 0l0 -11.17 -6.67 -6.81 -21.53 0c-1.45,0 -2.64,1.19 -2.64,2.63l0 34.9c0,1.45 1.19,2.64 2.64,2.64l18.7 0 0 -3.11 -10.84 0c-0.52,0 -0.94,-0.42 -0.94,-0.94 0,-0.52 0.42,-0.94 0.94,-0.94l10.84 0 0 -3.05 -10.84 0c-0.52,0 -0.94,-0.42 -0.94,-0.94 0,-0.52 0.42,-0.94 0.94,-0.94l10.84 0 0 -3.02 -10.84 0c-0.52,0 -0.94,-0.42 -0.94,-0.94 0,-0.52 0.42,-0.94 0.94,-0.94l10.84 0 0 -3.13 -10.84 0c-0.52,0 -0.94,-0.42 -0.94,-0.94 0,-0.52 0.42,-0.94 0.94,-0.94l10.84 0 0 -0.49c0,-0.5 0.2,-0.97 0.55,-1.32 0.35,-0.35 0.82,-0.55 1.32,-0.55l7.63 0zm-20.66 -15.75c2.04,0 3.98,0.8 5.42,2.24 1.44,1.44 2.25,3.38 2.25,5.42 0,2.04 -0.8,3.98 -2.25,5.42 -1.44,1.44 -3.38,2.25 -5.42,2.25 -2.04,0 -3.98,-0.8 -5.42,-2.25 -1.44,-1.44 -2.25,-3.38 -2.25,-5.42 0,-2.04 0.8,-3.98 2.25,-5.42 1.44,-1.44 3.38,-2.25 5.42,-2.25zm9.38 8.2l7.94 0c0.52,0 0.94,0.42 0.94,0.94 0,0.52 -0.42,0.94 -0.94,0.94l-7.94 0c-0.52,0 -0.94,-0.42 -0.94,-0.94 0,-0.52 0.42,-0.94 0.94,-0.94zm-1.35 4.96l9.33 0c0.52,0 0.94,0.42 0.94,0.94 0,0.52 -0.42,0.94 -0.94,0.94l-9.33 0c-0.52,0 -0.94,-0.42 -0.94,-0.94 0,-0.52 0.42,-0.94 0.94,-0.94zm-13.59 6.01l1.98 -2.03c0.86,-1.06 2.21,0.31 1.35,1.08l-2.88 2.96c-0.22,0.22 -0.58,0.23 -0.81,0.02l-1.44 -1.33c-0.78,-0.85 0.45,-2.05 1.25,-1.21l0.55 0.51zm0 4.99l1.98 -2.03c0.86,-1.06 2.21,0.31 1.35,1.08l-2.88 2.96c-0.22,0.22 -0.58,0.23 -0.81,0.02l-1.44 -1.33c-0.78,-0.85 0.45,-2.05 1.25,-1.21l0.55 0.51zm-0.01 4.92l1.98 -2.03c0.86,-1.06 2.21,0.31 1.35,1.08l-2.88 2.96c-0.22,0.22 -0.58,0.23 -0.81,0.02l-1.44 -1.33c-0.78,-0.85 0.45,-2.05 1.24,-1.21l0.55 0.51zm-0.04 5l1.98 -2.03c0.86,-1.06 2.21,0.31 1.35,1.08l-2.88 2.96c-0.22,0.22 -0.58,0.23 -0.81,0.02l-1.44 -1.33c-0.78,-0.85 0.45,-2.05 1.25,-1.21l0.55 0.51zm9.82 -30.62c-1.12,-1.12 -2.63,-1.74 -4.21,-1.74 -1.58,0 -3.09,0.62 -4.21,1.74 -1.12,1.12 -1.74,2.63 -1.74,4.21 0,1.58 0.62,3.09 1.74,4.21 1.12,1.12 2.63,1.74 4.21,1.74 1.58,0 3.09,-0.62 4.21,-1.74 1.12,-1.12 1.74,-2.63 1.74,-4.21 0,-1.59 -0.62,-3.09 -1.74,-4.21zm-3.19 -0.11c0.3,0.08 0.58,0.21 0.83,0.4 0.34,0.27 0.61,0.65 0.82,1.02l0.18 0.33 -1.65 0.92 -0.18 -0.34c-0.18,-0.33 -0.43,-0.61 -0.83,-0.61 -0.18,0 -0.35,0.04 -0.48,0.17 -0.11,0.1 -0.17,0.22 -0.17,0.37 0,0.13 0.03,0.23 0.13,0.33 0.17,0.17 0.6,0.37 0.82,0.47 0.36,0.16 0.72,0.34 1.05,0.54 0.24,0.15 0.49,0.33 0.68,0.54 0.45,0.49 0.67,1.08 0.67,1.74 0,0.65 -0.2,1.24 -0.59,1.74 -0.34,0.43 -0.77,0.74 -1.28,0.92l0 1.14 -1.64 0 0 -1.08c-0.52,-0.12 -1.01,-0.34 -1.4,-0.72 -0.47,-0.47 -0.72,-1.15 -0.87,-1.79l-0.09 -0.38 1.83 -0.38 0.1 0.33c0.09,0.29 0.24,0.71 0.45,0.93 0.17,0.16 0.41,0.21 0.65,0.21 0.26,0 0.48,-0.07 0.66,-0.25 0.18,-0.17 0.25,-0.39 0.25,-0.64 0,-0.2 -0.05,-0.39 -0.19,-0.53 -0.11,-0.1 -0.26,-0.2 -0.39,-0.28 -0.24,-0.14 -0.49,-0.27 -0.74,-0.38 -0.45,-0.21 -1.1,-0.52 -1.42,-0.9 -0.39,-0.44 -0.58,-0.97 -0.58,-1.56 0,-0.28 0.04,-0.55 0.14,-0.81 0.09,-0.25 0.23,-0.48 0.4,-0.68 0.18,-0.21 0.4,-0.38 0.64,-0.52 0.17,-0.1 0.35,-0.18 0.54,-0.24l0 -1.09 1.64 0 0 1.06zm12.01 37.9l16.9 0c0.04,0 0.07,-0.02 0.1,-0.04 0.03,-0.03 0.04,-0.06 0.04,-0.1l0 -23.49c0,-0.04 -0.01,-0.07 -0.04,-0.1 -0.03,-0.03 -0.06,-0.04 -0.1,-0.04l-16.9 0c-0.04,0 -0.07,0.01 -0.1,0.04 -0.03,0.03 -0.04,0.06 -0.04,0.1l0 23.49c0,0.04 0.01,0.07 0.04,0.1 0.03,0.03 0.06,0.04 0.1,0.04zm1.43 -22.36l14.04 0c0.27,0 0.52,0.11 0.69,0.29l-0 0c0.18,0.18 0.29,0.42 0.29,0.69l0 3.67c0,0.27 -0.11,0.52 -0.29,0.69 -0.18,0.18 -0.42,0.29 -0.69,0.29l-14.04 0c-0.27,0 -0.51,-0.11 -0.69,-0.29l-0 0c-0.18,-0.18 -0.29,-0.42 -0.29,-0.69l0 -3.67c0,-0.27 0.11,-0.51 0.29,-0.69l0 -0c0.18,-0.18 0.42,-0.29 0.69,-0.29zm14.04 0.97l-14.04 0c-0,0 -0.01,0 -0.01,0l-0 0c-0,0 -0,0.01 -0,0.01l0 3.67c0,0 0,0.01 0,0.01l0 0c0,0 0,0 0.01,0l14.04 0c0,0 0.01,-0 0.01,-0 0,-0 0,-0.01 0,-0.01l0 -3.67c0,-0 -0,-0.01 -0,-0.01l-0 0c-0,-0 -0.01,-0 -0.01,-0zm-14.64 5.67l3.68 0c0.13,0 0.26,0.06 0.35,0.14l0 0c0.09,0.09 0.14,0.21 0.14,0.35l0 2c0,0.13 -0.06,0.26 -0.14,0.35l-0 0c-0.09,0.09 -0.21,0.14 -0.35,0.14l-3.68 0c-0.13,0 -0.26,-0.06 -0.35,-0.14l-0 -0c-0.09,-0.09 -0.14,-0.21 -0.14,-0.35l0 -2c0,-0.13 0.06,-0.26 0.14,-0.35l0 -0c0.09,-0.09 0.21,-0.14 0.35,-0.14zm3.62 0.55l-3.56 0 0 1.87 3.56 0 0 -1.87zm2.19 -0.55l3.68 0c0.13,0 0.26,0.06 0.35,0.14l0 0c0.09,0.09 0.14,0.21 0.14,0.35l0 2c0,0.13 -0.06,0.26 -0.14,0.35l-0 0c-0.09,0.09 -0.21,0.14 -0.35,0.14l-3.68 0c-0.13,0 -0.26,-0.06 -0.35,-0.14l-0 -0c-0.09,-0.09 -0.14,-0.21 -0.14,-0.35l0 -2c0,-0.13 0.06,-0.26 0.14,-0.35l0 -0c0.09,-0.09 0.21,-0.14 0.35,-0.14zm3.62 0.55l-3.56 0 0 1.87 3.56 0 0 -1.87zm1.99 -0.55l3.68 0c0.13,0 0.26,0.06 0.35,0.14l0 0c0.09,0.09 0.14,0.21 0.14,0.35l0 2c0,0.13 -0.05,0.26 -0.14,0.35l-0 0c-0.09,0.09 -0.21,0.14 -0.35,0.14l-3.68 0c-0.13,0 -0.26,-0.06 -0.35,-0.14l-0 -0c-0.09,-0.09 -0.14,-0.21 -0.14,-0.35l0 -2c0,-0.13 0.05,-0.26 0.14,-0.35l0 -0c0.09,-0.09 0.21,-0.14 0.35,-0.14zm3.62 0.55l-3.56 0 0 1.87 3.56 0 0 -1.87zm-10.65 11.65l6.16 0c0.14,0 0.26,0.05 0.35,0.14l0 0c0.09,0.09 0.14,0.21 0.14,0.35l0 1.99c0,0.13 -0.06,0.26 -0.14,0.35l0 0c-0.09,0.09 -0.21,0.14 -0.35,0.14l-6.16 0c-0.13,0 -0.26,-0.06 -0.35,-0.14l-0 -0c-0.09,-0.09 -0.14,-0.21 -0.14,-0.35l0 -1.99c0,-0.13 0.06,-0.26 0.14,-0.35l0 -0c0.09,-0.09 0.21,-0.14 0.35,-0.14zm6.09 0.55l-6.03 0 0 1.87 6.03 0 0 -1.87zm-6.2 -8.66l2.02 0c0.13,0 0.26,0.05 0.35,0.14l0 0c0.09,0.09 0.14,0.21 0.14,0.35l0 1.99c0,0.13 -0.06,0.26 -0.14,0.35l-0 0c-0.09,0.09 -0.21,0.14 -0.35,0.14l-2.02 0c-0.13,0 -0.26,-0.06 -0.35,-0.14l-0 -0c-0.09,-0.09 -0.14,-0.21 -0.14,-0.35l0 -1.99c0,-0.13 0.06,-0.26 0.14,-0.35l0 -0c0.09,-0.09 0.21,-0.14 0.35,-0.14zm1.96 0.55l-1.89 0 0 1.87 1.89 0 0 -1.87zm2.37 -0.55l2.02 0c0.13,0 0.26,0.05 0.35,0.14l0 0c0.09,0.09 0.14,0.21 0.14,0.35l0 1.99c0,0.13 -0.06,0.26 -0.14,0.35l-0 0c-0.09,0.09 -0.21,0.14 -0.35,0.14l-2.02 0c-0.13,0 -0.26,-0.06 -0.35,-0.14l-0 -0c-0.09,-0.09 -0.14,-0.21 -0.14,-0.35l0 -1.99c0,-0.13 0.05,-0.26 0.14,-0.35l0 -0c0.09,-0.09 0.21,-0.14 0.35,-0.14zm1.95 0.55l-1.89 0 0 1.87 1.89 0 0 -1.87zm2.52 -0.55l2.02 0c0.13,0 0.26,0.05 0.35,0.14l0 0c0.09,0.09 0.14,0.21 0.14,0.35l0 1.99c0,0.13 -0.05,0.26 -0.14,0.35l-0 0c-0.09,0.09 -0.21,0.14 -0.35,0.14l-2.02 0c-0.13,0 -0.26,-0.06 -0.35,-0.14l-0 -0c-0.09,-0.09 -0.14,-0.21 -0.14,-0.35l0 -1.99c0,-0.13 0.05,-0.26 0.14,-0.35l0 -0c0.09,-0.09 0.21,-0.14 0.35,-0.14zm1.95 0.55l-1.89 0 0 1.87 1.89 0 0 -1.87zm-10.78 3.57l2.02 0c0.13,0 0.26,0.06 0.35,0.14l0 0c0.09,0.09 0.14,0.21 0.14,0.35l0 1.99c0,0.13 -0.05,0.26 -0.14,0.35l-0 0c-0.09,0.09 -0.21,0.14 -0.35,0.14l-2.02 0c-0.13,0 -0.26,-0.05 -0.35,-0.14l-0 -0c-0.09,-0.09 -0.14,-0.21 -0.14,-0.35l0 -1.99c0,-0.13 0.05,-0.26 0.14,-0.35l0 -0c0.09,-0.09 0.21,-0.14 0.35,-0.14zm1.95 0.55l-1.89 0 0 1.87 1.89 0 0 -1.87zm2.36 -0.55l2.02 0c0.13,0 0.26,0.06 0.35,0.14l0 0c0.09,0.09 0.14,0.21 0.14,0.35l0 1.99c0,0.13 -0.06,0.26 -0.14,0.35l-0 0c-0.09,0.09 -0.21,0.14 -0.35,0.14l-2.02 0c-0.13,0 -0.26,-0.05 -0.35,-0.14l-0 -0c-0.09,-0.09 -0.14,-0.21 -0.14,-0.35l0 -1.99c0,-0.13 0.06,-0.26 0.14,-0.35l0 -0c0.09,-0.09 0.21,-0.14 0.35,-0.14zm1.96 0.55l-1.89 0 0 1.87 1.89 0 0 -1.87zm2.56 -0.48l2.01 0c0.14,0 0.26,0.06 0.35,0.14 0.09,0.09 0.14,0.21 0.14,0.35l0 5.9c0,0.14 -0.06,0.26 -0.14,0.35 -0.09,0.09 -0.21,0.14 -0.35,0.14l-2.01 0c-0.14,0 -0.26,-0.06 -0.35,-0.14 -0.09,-0.09 -0.14,-0.21 -0.14,-0.35l0 -5.9c0,-0.14 0.06,-0.26 0.14,-0.35 0.09,-0.09 0.21,-0.14 0.35,-0.14zm1.95 0.55l-1.89 0 0 5.78 1.89 0 0 -5.78zm-15.03 -4.75l2.02 0c0.13,0 0.26,0.05 0.35,0.14l0 0c0.09,0.09 0.14,0.21 0.14,0.35l0 1.99c0,0.13 -0.06,0.26 -0.14,0.35l-0 0c-0.09,0.09 -0.21,0.14 -0.35,0.14l-2.02 0c-0.13,0 -0.26,-0.06 -0.35,-0.14l-0 -0c-0.09,-0.09 -0.14,-0.21 -0.14,-0.35l0 -1.99c0,-0.13 0.06,-0.26 0.14,-0.35l0 -0c0.09,-0.09 0.21,-0.14 0.35,-0.14zm1.96 0.55l-1.89 0 0 1.87 1.89 0 0 -1.87zm-1.96 3.57l2.02 0c0.13,0 0.26,0.06 0.35,0.14l0 0c0.09,0.09 0.14,0.21 0.14,0.35l0 1.99c0,0.13 -0.05,0.26 -0.14,0.35l-0 0c-0.09,0.09 -0.21,0.14 -0.35,0.14l-2.02 0c-0.13,0 -0.26,-0.05 -0.35,-0.14l-0 -0c-0.09,-0.09 -0.14,-0.21 -0.14,-0.35l0 -1.99c0,-0.13 0.06,-0.26 0.14,-0.35l0 -0c0.09,-0.09 0.21,-0.14 0.35,-0.14zm1.95 0.55l-1.89 0 0 1.87 1.89 0 0 -1.87zm-1.95 3.43l2.02 0c0.13,0 0.26,0.05 0.35,0.14l0 0c0.09,0.09 0.14,0.21 0.14,0.35l0 1.99c0,0.13 -0.06,0.26 -0.14,0.35l-0 0c-0.09,0.09 -0.21,0.14 -0.35,0.14l-2.02 0c-0.13,0 -0.26,-0.06 -0.35,-0.14l-0 -0c-0.09,-0.09 -0.14,-0.21 -0.14,-0.35l0 -1.99c0,-0.13 0.06,-0.26 0.14,-0.35l0 -0c0.09,-0.09 0.21,-0.14 0.35,-0.14zm1.96 0.55l-1.89 0 0 1.87 1.89 0 0 -1.87z"/>
 </g>
</svg>
