<svg width="30" height="22" viewBox="0 0 30 22" fill="none" xmlns="http://www.w3.org/2000/svg">
<path d="M27.8571 21.4286H2.14286C0.961607 21.4286 0 20.467 0 19.2857V2.14286C0 0.96161 0.961607 0 2.14286 0H27.8571C29.0384 0 30 0.96161 30 2.14286V19.2857C30 20.467 29.0384 21.4286 27.8571 21.4286ZM2.14286 1.07143C1.55223 1.07143 1.07143 1.55223 1.07143 2.14286V19.2857C1.07143 19.8763 1.55223 20.3571 2.14286 20.3571H27.8571C28.4478 20.3571 28.9286 19.8763 28.9286 19.2857V2.14286C28.9286 1.55223 28.4478 1.07143 27.8571 1.07143H2.14286Z" fill="#3A3A3C"/>
<path d="M15 14.8687C14.4509 14.8687 13.9031 14.6597 13.4853 14.2419L2.83529 3.5932C2.62636 3.38427 2.62636 3.04543 2.83529 2.83516C3.04422 2.62623 3.3844 2.62623 3.59333 2.83516L14.242 13.4838C14.4442 13.6861 14.7134 13.7972 15 13.7972C15.2866 13.7972 15.5558 13.6861 15.758 13.4838L26.4067 2.83516C26.6156 2.62623 26.9558 2.62623 27.1647 2.83516C27.3737 3.04409 27.3737 3.38293 27.1647 3.5932L16.5161 14.2419C16.0969 14.6597 15.5491 14.8687 15 14.8687Z" fill="#3A3A3C"/>
<path d="M26.7857 18.7499C26.6491 18.7499 26.5112 18.6977 26.4067 18.5932L18.9067 11.0932C18.6978 10.8843 18.6978 10.5454 18.9067 10.3352C19.1156 10.1262 19.4558 10.1262 19.6647 10.3352L27.1647 17.8352C27.3737 18.0441 27.3737 18.3829 27.1647 18.5932C27.0603 18.6977 26.9223 18.7499 26.7857 18.7499Z" fill="#3A3A3C"/>
<path d="M3.21431 18.7499C3.0777 18.7499 2.93975 18.6977 2.83529 18.5932C2.62636 18.3843 2.62636 18.0454 2.83529 17.8352L10.3353 10.3352C10.5442 10.1262 10.8844 10.1262 11.0933 10.3352C11.3022 10.5441 11.3022 10.8829 11.0933 11.0932L3.59333 18.5932C3.48886 18.6977 3.35091 18.7499 3.21431 18.7499Z" fill="#3A3A3C"/>
</svg>
