<?xml version="1.0" encoding="UTF-8"?>
<!DOCTYPE svg PUBLIC "-//W3C//DTD SVG 1.1//EN" "http://www.w3.org/Graphics/SVG/1.1/DTD/svg11.dtd">
<!-- Creator: CorelDRAW 2021 (64-Bit) -->
<svg xmlns="http://www.w3.org/2000/svg" xml:space="preserve" width="8.25999in" height="7.04177in" version="1.1" style="shape-rendering:geometricPrecision; text-rendering:geometricPrecision; image-rendering:optimizeQuality; fill-rule:evenodd; clip-rule:evenodd"
viewBox="0 0 5375.73 4582.89"
 xmlns:xlink="http://www.w3.org/1999/xlink"
 xmlns:xodm="http://www.corel.com/coreldraw/odm/2003">
 <defs>
  <style type="text/css">
   <![CDATA[
    .fil0 {fill:black}
   ]]>
  </style>
 </defs>
 <g id="Layer_x0020_1">
  <metadata id="CorelCorpID_0Corel-Layer"/>
  <g id="_2416743045872">
   <path class="fil0" d="M3907.79 1406.29c0,28.67 6.04,52.43 18.48,70.54 12.07,18.48 28.67,33.57 49.42,44.89 20.37,11.32 44.14,20.75 71.3,28.29 27.16,7.17 55.07,13.96 84.12,19.62 39.61,9.05 77.33,18.86 112.41,29.42 35.46,10.56 68.27,26.78 98.08,47.91 30.18,21.5 54.32,50.55 72.8,86.76 18.48,36.59 27.54,83.74 27.54,141.83 0,53.19 -10.19,99.96 -30.93,141.08 -20.75,40.74 -49.8,75.07 -87.52,102.6 -37.72,27.54 -82.61,48.66 -135.04,63 -52.43,14.34 -110.15,21.5 -172.77,21.5 -38.47,0 -73.18,-1.89 -104.49,-6.04 -31.68,-4.15 -59.22,-9.05 -83.37,-15.47 -23.77,-6.03 -44.13,-12.45 -61.11,-18.86 -16.98,-6.79 -31.31,-12.82 -42.25,-18.86l0 -142.21c43.38,17.35 86.76,31.31 129.39,41.49 43,10.19 90.15,15.09 141.45,15.09 40.74,0 77.33,-3.77 110.15,-10.94 32.44,-7.55 60.73,-18.48 84.12,-32.82 23.77,-14.71 41.87,-32.82 54.7,-54.7 12.45,-21.5 18.86,-47.15 18.86,-75.82 0,-29.42 -5.66,-53.94 -17.35,-72.8 -11.69,-19.24 -27.16,-35.08 -46.78,-47.53 -19.61,-12.83 -42.25,-23.01 -67.9,-30.93 -26.03,-8.3 -52.81,-15.47 -81.1,-22.26 -36.97,-7.92 -74.69,-17.73 -112.79,-28.67 -38.1,-10.94 -72.42,-26.41 -103.73,-46.4 -31.31,-19.99 -56.58,-46.78 -75.82,-81.1 -19.24,-34.33 -28.67,-78.46 -28.67,-132.03 0,-55.07 9.81,-102.98 29.8,-143.72 19.99,-40.36 47.15,-73.93 81.1,-100.34 33.95,-26.4 73.18,-46.4 118.45,-59.6 44.89,-13.2 92.42,-19.99 142.59,-19.99 58.47,0 112.41,5.28 162.2,16.22 50.17,10.94 95.06,24.9 135.8,41.5l0 143.72c-43.38,-16.22 -87.14,-29.8 -131.27,-39.99 -44.51,-10.56 -90.16,-15.84 -136.93,-16.6 -39.61,0 -73.56,4.15 -101.85,12.07 -27.91,8.3 -51.3,19.61 -69.03,33.95 -18.11,14.34 -31.31,31.69 -39.61,51.3 -8.3,19.62 -12.45,41.12 -12.45,64.88zm-1137.69 770.28l-172.01 0 0 -675.22c0,-45.64 -4.9,-84.12 -15.09,-116.18 -9.81,-32.06 -24.14,-58.47 -43,-79.21 -18.86,-20.75 -41.49,-35.84 -67.52,-45.27 -26.41,-9.43 -55.45,-14.33 -88.27,-14.33 -61.11,0 -116.94,16.22 -167.11,49.04 -50.17,32.82 -95.06,77.71 -135.04,135.04l0 746.14 -172.01 0 0 -1050.17 133.16 0 33.19 145.98 3.4 0c19.24,-24.52 39.98,-46.77 62.62,-67.9 22.26,-20.75 47.53,-39.23 75.06,-55.07 27.92,-15.84 58.47,-28.29 91.67,-36.97 33.2,-8.68 69.41,-13.2 108.64,-13.2 78.08,0 143.34,18.86 195.02,56.21 51.68,37.72 91.66,88.65 119.58,153.53l4.52 0c46.4,-65.63 99.59,-116.94 159.19,-153.9 59.6,-37.34 129.01,-55.83 208.6,-55.83 36.97,0 75.82,5.28 116.94,15.47 41.49,10.19 79.21,29.42 113.92,56.96 34.7,27.54 63.37,65.64 86,114.3 23.01,48.66 34.33,111.28 34.33,187.85l0 702.76 -172.01 0 0 -675.22c0,-45.64 -4.9,-84.12 -14.71,-116.18 -10.19,-32.06 -24.52,-58.47 -43,-79.21 -18.86,-20.75 -41.12,-35.84 -67.15,-45.27 -26.03,-9.43 -55.07,-14.33 -87.51,-14.33 -60.73,0 -116.56,16.22 -166.73,49.04 -50.17,32.82 -95.06,77.71 -134.67,135.04l0 746.14zm-1652.97 -770.28c0,28.67 6.04,52.43 18.48,70.54 12.07,18.48 28.67,33.57 49.42,44.89 20.37,11.32 44.14,20.75 71.3,28.29 27.16,7.17 55.07,13.96 84.12,19.62 39.61,9.05 77.33,18.86 112.41,29.42 35.46,10.56 68.27,26.78 98.08,47.91 30.18,21.5 54.32,50.55 72.8,86.76 18.48,36.59 27.54,83.74 27.54,141.83 0,53.19 -10.19,99.96 -30.93,141.08 -20.75,40.74 -49.8,75.07 -87.52,102.6 -37.72,27.54 -82.61,48.66 -135.04,63 -52.43,14.34 -110.15,21.5 -172.77,21.5 -38.47,0 -73.18,-1.89 -104.49,-6.04 -31.68,-4.15 -59.22,-9.05 -83.37,-15.47 -23.77,-6.03 -44.13,-12.45 -61.11,-18.86 -16.98,-6.79 -31.31,-12.82 -42.25,-18.86l0 -142.21c43.38,17.35 86.76,31.31 129.39,41.49 43,10.19 90.15,15.09 141.45,15.09 40.74,0 77.33,-3.77 110.15,-10.94 32.44,-7.55 60.73,-18.48 84.12,-32.82 23.77,-14.71 41.87,-32.82 54.7,-54.7 12.45,-21.5 18.86,-47.15 18.86,-75.82 0,-29.42 -5.66,-53.94 -17.35,-72.8 -11.69,-19.24 -27.16,-35.08 -46.78,-47.53 -19.61,-12.83 -42.25,-23.01 -67.9,-30.93 -26.03,-8.3 -52.81,-15.47 -81.1,-22.26 -36.97,-7.92 -74.69,-17.73 -112.79,-28.67 -38.1,-10.94 -72.42,-26.41 -103.73,-46.4 -31.31,-19.99 -56.58,-46.78 -75.82,-81.1 -19.24,-34.33 -28.67,-78.46 -28.67,-132.03 0,-55.07 9.81,-102.98 29.8,-143.72 19.99,-40.36 47.15,-73.93 81.1,-100.34 33.95,-26.4 73.18,-46.4 118.45,-59.6 44.89,-13.2 92.42,-19.99 142.59,-19.99 58.47,0 112.41,5.28 162.2,16.22 50.17,10.94 95.06,24.9 135.8,41.5l0 143.72c-43.38,-16.22 -87.14,-29.8 -131.27,-39.99 -44.51,-10.56 -90.16,-15.84 -136.93,-16.6 -39.61,0 -73.56,4.15 -101.85,12.07 -27.91,8.3 -51.3,19.61 -69.03,33.95 -18.11,14.34 -31.31,31.69 -39.61,51.3 -8.3,19.62 -12.45,41.12 -12.45,64.88z"/>
   <path class="fil0" d="M3131.95 3481.9l-2019.53 0c-623.8,0 -1112.43,-521.87 -1112.43,-1138.43l0 -1205.05c0,-616.55 488.63,-1138.43 1112.43,-1138.43l3150.87 0c623.8,0 1112.43,521.88 1112.43,1138.43l0 1205.05c0,514.56 -340.94,976.29 -843.18,1104.21l-58.82 14.98 0 1120.22 -1341.77 -1100.99zm1152.22 700.2l0 -886.45 83.69 -9.91c475.1,-56.24 818.32,-468.95 818.32,-942.25l0 -1205.06c0,-512.18 -403.38,-948.88 -922.88,-948.88l-3150.88 0.01c-519.5,0 -922.88,436.71 -922.88,948.89l0 1205.05c0,512.17 403.38,948.88 922.88,948.88l2087.22 0 1084.52 889.73z"/>
  </g>
 </g>
</svg>
