<svg id="Layer_1" data-name="Layer 1" xmlns="http://www.w3.org/2000/svg" viewBox="0 0 57.6 72"><defs><style>.cls-1{fill:#5b5c5d;}.cls-2{fill:#fefefe;}</style></defs><path class="cls-1" d="M11.39,31.42V23.58A4.34,4.34,0,0,1,15,19.16a2.75,2.75,0,0,1,.5,0H30.16a4.3,4.3,0,0,1,4.19,3.53,7.12,7.12,0,0,1,.07.92c0,5.25,0,10.51,0,15.76a3.13,3.13,0,0,1-3.27,3.27c-.39,0-.78,0-1.17,0s-.32.09-.34.33c-.19,2.85-.4,5.69-.61,8.53,0,.29.06.38.33.35h0a4.46,4.46,0,0,0,1.37,0c.46-.16.34-.78.53-1.17a4.51,4.51,0,0,1,3.75-2.8,4.06,4.06,0,0,1,3.48,1.56,4.76,4.76,0,0,1,1.06,2.1c.06.26.17.35.45.34h2.83a3.22,3.22,0,0,1,3.33,3.34v8.76a3.22,3.22,0,0,1-3.39,3.37h-15a3.25,3.25,0,0,1-3.38-3.39c0-.74,0-1.47,0-2.21,0-.29-.07-.39-.37-.38-.86,0-1.72,0-2.58,0a4.32,4.32,0,0,1-4.33-4.15c-.27-4.13-.59-8.26-.88-12.39-.05-.58-.1-1.16-.12-1.75,0-.31-.08-.45-.43-.42s-.83,0-1.25,0a3,3,0,0,1-3.07-3C11.38,36.85,11.39,34.14,11.39,31.42Zm1.31,0v8a1.76,1.76,0,0,0,1.93,1.94H17c.25,0,.37,0,.38.33,0,.54.08,1.08.11,1.62q.51,7,1,14a3,3,0,0,0,3,2.78c.87,0,1.75,0,2.63,0,.29,0,.37-.09.36-.37,0-1.46,0-2.92,0-4.38a3.24,3.24,0,0,1,3-3.45c.21,0,.28-.08.3-.3.1-1.55.22-3.1.33-4.66.12-1.72.25-3.43.36-5.15,0-.33.13-.41.44-.4.74,0,1.48,0,2.22,0a1.78,1.78,0,0,0,2-2c0-5.23,0-10.46,0-15.69a3,3,0,0,0-3.2-3.19H15.84a2.94,2.94,0,0,0-3.14,3.16ZM35.33,66h7.51a2,2,0,0,0,2.08-2.09V55.18a2,2,0,0,0-2-2.06h-15a2,2,0,0,0-2.15,2.16v8.55A2,2,0,0,0,27.87,66Zm0-14.16c.88,0,1.75,0,2.63,0,.41,0,.41-.13.29-.44A4.29,4.29,0,0,0,37.32,50a2.64,2.64,0,0,0-3.72-.24,3.94,3.94,0,0,0-1.21,1.71c-.1.28-.06.36.25.36C33.53,51.81,34.42,51.82,35.31,51.82Z"/><path class="cls-1" d="M22.88,16.94a6.12,6.12,0,1,1,6.13-6A6.09,6.09,0,0,1,22.88,16.94ZM22.89,6a4.81,4.81,0,1,0,4.83,4.78A4.82,4.82,0,0,0,22.89,6Z"/><path class="cls-2" d="M12.7,31.41v-7.8a2.94,2.94,0,0,1,3.14-3.16H29.9a3,3,0,0,1,3.2,3.19c0,5.23,0,10.46,0,15.69a1.78,1.78,0,0,1-2,2c-.74,0-1.48,0-2.22,0-.31,0-.42.07-.44.4-.11,1.72-.24,3.43-.36,5.15-.11,1.56-.23,3.11-.33,4.66,0,.22-.09.28-.3.3a3.24,3.24,0,0,0-3,3.45c0,1.46,0,2.92,0,4.38,0,.28-.07.38-.36.37-.88,0-1.76,0-2.63,0a3,3,0,0,1-3-2.78q-.49-7-1-14c0-.54-.1-1.08-.11-1.62,0-.29-.13-.33-.38-.33H14.63a1.76,1.76,0,0,1-1.93-1.94Z"/><path class="cls-2" d="M35.33,66H27.87a2,2,0,0,1-2.14-2.15V55.28a2,2,0,0,1,2.15-2.16h15a2,2,0,0,1,2,2.06v8.71A2,2,0,0,1,42.84,66Zm0-3.69h3.63c.58,0,.82-.23.82-.8V57.61c0-.53-.23-.77-.75-.77-2.45,0-4.89,0-7.34,0-.53,0-.75.23-.75.77v3.87c0,.58.22.8.81.81Z"/><path class="cls-2" d="M35.31,51.82c-.89,0-1.78,0-2.67,0-.31,0-.35-.08-.25-.36a3.94,3.94,0,0,1,1.21-1.71,2.64,2.64,0,0,1,3.72.24,4.29,4.29,0,0,1,.91,1.39c.12.31.12.46-.29.44C37.06,51.8,36.19,51.82,35.31,51.82Z"/><path class="cls-2" d="M22.89,6a4.81,4.81,0,1,1-4.8,4.81A4.84,4.84,0,0,1,22.89,6Z"/><path class="cls-1" d="M35.3,62.29H31.72c-.59,0-.81-.23-.81-.81V57.61c0-.54.22-.77.75-.77,2.45,0,4.89,0,7.34,0,.52,0,.75.24.75.77v3.88c0,.57-.24.79-.82.8Zm0-1.32h2.83c.22,0,.32,0,.32-.29,0-.75,0-1.5,0-2.25,0-.24-.08-.3-.31-.3H32.55c-.24,0-.35,0-.34.32,0,.73,0,1.47,0,2.21,0,.26.09.32.33.31Z"/><path class="cls-2" d="M35.29,61H32.54c-.24,0-.34,0-.33-.31,0-.74,0-1.48,0-2.21,0-.27.1-.32.34-.32h5.58c.23,0,.31.06.31.3,0,.75,0,1.5,0,2.25,0,.25-.1.3-.32.29Z"/></svg>