<?xml version="1.0" encoding="utf-8"?>
<!-- Generator: Adobe Illustrator 26.0.1, SVG Export Plug-In . SVG Version: 6.00 Build 0)  -->
<svg version="1.1" id="Layer_1" xmlns="http://www.w3.org/2000/svg" xmlns:xlink="http://www.w3.org/1999/xlink" x="0px" y="0px"
	 viewBox="0 0 99.56 61.78" style="enable-background:new 0 0 99.56 61.78;" xml:space="preserve">
<style type="text/css">
	.st0{fill:#414042;}
	.st1{fill:#FBFBFB;}
</style>
<g>
	<path class="st0" d="M78.7,13.42H50.98c-0.17,0-0.3-0.14-0.3-0.3c0-0.17,0.14-0.3,0.3-0.3H78.7c0.17,0,0.3,0.14,0.3,0.3
		C79,13.29,78.87,13.42,78.7,13.42z"/>
	<path class="st0" d="M78.7,19.07H50.98c-0.17,0-0.3-0.14-0.3-0.3s0.14-0.3,0.3-0.3H78.7c0.17,0,0.3,0.14,0.3,0.3
		S78.87,19.07,78.7,19.07z"/>
	<path class="st0" d="M90.02,40.76c-1.16-2.73-2.08-5.59-2.82-8.72c0.67-1.15,1.02-2.45,1.02-3.79V11.9c0-4.18-3.4-7.58-7.58-7.58
		H48.38c-4.18,0-7.58,3.4-7.58,7.58v7.54H18.92c-4.18,0-7.58,3.4-7.58,7.58v16.35c0,1.34,0.35,2.64,1.02,3.79
		c-0.74,3.13-1.66,5.99-2.82,8.72c-0.19,0.45-0.07,0.97,0.3,1.29c0.21,0.18,0.48,0.28,0.74,0.28c0.2,0,0.4-0.05,0.58-0.16
		l10.68-6.35h29.34c4.18,0,7.58-3.4,7.58-7.58v-7.54h18.95l10.68,6.35c0.18,0.11,0.38,0.16,0.58,0.16c0.27,0,0.53-0.09,0.74-0.28
		C90.09,41.73,90.21,41.21,90.02,40.76z M51.18,48.69H21.53c-0.2,0-0.4,0.05-0.58,0.16l-8.13,4.83c0.72-2.05,1.33-4.19,1.85-6.47
		c0.07-0.31,0.01-0.63-0.17-0.89c-0.59-0.88-0.91-1.9-0.91-2.96V27.03c0-2.93,2.39-5.32,5.32-5.32h23.01c0,0,0,0,0,0h9.25
		c2.93,0,5.32,2.39,5.32,5.32v7.67c0,0,0,0,0,0v8.67C56.5,46.31,54.11,48.69,51.18,48.69z M78.6,33.72
		c-0.18-0.1-0.38-0.16-0.58-0.16H58.76v-6.54c0-0.81-0.13-1.58-0.36-2.31h20.3c0.17,0,0.3-0.14,0.3-0.3s-0.14-0.3-0.3-0.3H58.18
		c-1.14-2.74-3.85-4.67-7-4.67h-8.12V11.9c0-2.93,2.39-5.32,5.32-5.32h32.26c2.93,0,5.32,2.39,5.32,5.32v16.35
		c0,1.06-0.31,2.08-0.91,2.96c-0.18,0.26-0.24,0.58-0.17,0.89c0.52,2.28,1.13,4.42,1.85,6.47L78.6,33.72z"/>
	<path class="st0" d="M48.57,28.55H20.86c-0.17,0-0.3-0.14-0.3-0.3s0.14-0.3,0.3-0.3h27.72c0.17,0,0.3,0.14,0.3,0.3
		S48.74,28.55,48.57,28.55z"/>
	<path class="st0" d="M48.57,34.2H20.86c-0.17,0-0.3-0.14-0.3-0.3c0-0.17,0.14-0.3,0.3-0.3h27.72c0.17,0,0.3,0.14,0.3,0.3
		C48.87,34.06,48.74,34.2,48.57,34.2z"/>
	<path class="st0" d="M48.57,39.84H20.86c-0.17,0-0.3-0.14-0.3-0.3c0-0.17,0.14-0.3,0.3-0.3h27.72c0.17,0,0.3,0.14,0.3,0.3
		C48.87,39.71,48.74,39.84,48.57,39.84z"/>
</g>
</svg>
