<?xml version="1.0" encoding="utf-8"?>
<!-- Generator: Adobe Illustrator 26.0.1, SVG Export Plug-In . SVG Version: 6.00 Build 0)  -->
<svg version="1.1" id="Layer_1" xmlns="http://www.w3.org/2000/svg" xmlns:xlink="http://www.w3.org/1999/xlink" x="0px" y="0px"
	 viewBox="0 0 59.56 61.78" style="enable-background:new 0 0 59.56 61.78;" xml:space="preserve">
<style type="text/css">
	.st0{fill:#414042;}
	.st1{fill:#FBFBFB;}
</style>
<g>
	<path class="st0" d="M29.82,53.91C29.82,53.91,29.81,53.91,29.82,53.91c-6.16,0-11.94-2.4-16.29-6.75
		C9.19,42.81,6.79,37.02,6.8,30.87s2.4-11.93,6.75-16.28c8.98-8.97,23.59-8.97,32.56,0.01c0.44,0.44,0.44,1.16,0,1.6
		c-0.44,0.44-1.16,0.44-1.6,0c-8.09-8.1-21.26-8.1-29.36-0.01c-3.92,3.92-6.08,9.13-6.09,14.68c0,5.55,2.16,10.76,6.08,14.68
		c3.92,3.92,9.13,6.08,14.68,6.09c0,0,0,0,0.01,0c5.54,0,10.75-2.16,14.67-6.08c3.45-3.44,5.58-8.01,6.01-12.87
		c0.05-0.62,0.62-1.08,1.23-1.03c0.62,0.06,1.08,0.6,1.03,1.23c-0.47,5.38-2.84,10.45-6.66,14.27
		C41.75,51.51,35.97,53.91,29.82,53.91z"/>
	<path class="st0" d="M40.48,35.24c-0.12,0-0.24-0.02-0.36-0.06l-11.22-3.79c-0.46-0.16-0.77-0.59-0.77-1.07V18.07
		c0-0.63,0.51-1.13,1.13-1.13c0.63,0,1.13,0.51,1.13,1.13v11.43l10.45,3.53c0.59,0.2,0.91,0.84,0.71,1.44
		C41.39,34.94,40.95,35.24,40.48,35.24z"/>
	<path class="st0" d="M29.87,49.1c-2.33,0-4.65-0.45-6.87-1.36c-4.5-1.84-8.02-5.32-9.91-9.8c-1.89-4.48-1.91-9.43-0.08-13.93
		c2.82-6.91,9.72-11.45,17.19-11.34c0.17,0,0.3,0.14,0.3,0.31c0,0.17-0.16,0.31-0.31,0.3c-0.1,0-0.21,0-0.31,0
		c-7.1,0-13.63,4.37-16.31,10.96c-1.78,4.35-1.75,9.14,0.07,13.47c1.82,4.33,5.23,7.7,9.58,9.47c4.35,1.78,9.14,1.75,13.47-0.08
		c4.33-1.82,7.7-5.23,9.47-9.58c0.06-0.16,0.24-0.23,0.39-0.17c0.15,0.06,0.23,0.24,0.17,0.39c-1.84,4.5-5.32,8.02-9.8,9.91
		C34.66,48.62,32.27,49.1,29.87,49.1z"/>
</g>
</svg>
