<svg xmlns="http://www.w3.org/2000/svg" viewBox="0 0 57.6 72"><defs><style>.cls-1{fill:none;stroke:#5b5c5d;stroke-linecap:round;stroke-linejoin:round;stroke-width:1.5px;}</style></defs><g id="Layer_3" data-name="Layer 3"><circle class="cls-1" cx="26.59" cy="25.65" r="10.03"/><circle class="cls-1" cx="42.45" cy="46.35" r="10.03"/><path class="cls-1" d="M37.37,32A6.89,6.89,0,0,1,39,33.43l1.09,1.44"/><line class="cls-1" x1="42.49" y1="41.69" x2="42.49" y2="51.01"/><line class="cls-1" x1="47.14" y1="46.29" x2="37.83" y2="46.29"/><path class="cls-1" d="M33,54.93H10.76s-3.7-.08-4.83-2.3a7.18,7.18,0,0,1-.75-4.19,22.16,22.16,0,0,1,3-7.31,27.64,27.64,0,0,1,4.41-5.94,13.71,13.71,0,0,1,3.15-2.61"/></g></svg>