<svg width="32" height="32" viewBox="0 0 32 32" fill="none" xmlns="http://www.w3.org/2000/svg">
<path fill-rule="evenodd" clip-rule="evenodd" d="M16 32C24.8366 32 32 24.8366 32 16C32 7.16344 24.8366 0 16 0C7.16344 0 0 7.16344 0 16C0 24.8366 7.16344 32 16 32Z" fill="none"/>
<path d="M16.1895 10.766C16.6561 10.766 17.0761 10.8337 17.4495 10.969C17.8275 11.0997 18.1495 11.284 18.4155 11.522C18.6815 11.7553 18.8845 12.0307 19.0245 12.348C19.1691 12.6653 19.2415 13.0083 19.2415 13.377C19.2415 13.699 19.2041 13.9837 19.1295 14.231C19.0595 14.4737 18.9545 14.686 18.8145 14.868C18.6791 15.05 18.5111 15.204 18.3105 15.33C18.1145 15.456 17.8905 15.561 17.6385 15.645C18.2451 15.8363 18.6978 16.128 18.9965 16.52C19.2951 16.912 19.4445 17.4043 19.4445 17.997C19.4445 18.501 19.3511 18.9467 19.1645 19.334C18.9778 19.7213 18.7258 20.048 18.4085 20.314C18.0911 20.5753 17.7225 20.7737 17.3025 20.909C16.8871 21.0443 16.4461 21.112 15.9795 21.112C15.4708 21.112 15.0275 21.0537 14.6495 20.937C14.2715 20.8203 13.9425 20.6477 13.6625 20.419C13.3825 20.1903 13.1445 19.9103 12.9485 19.579C12.7525 19.2477 12.5845 18.865 12.4445 18.431L13.2075 18.116C13.3381 18.06 13.4711 18.032 13.6065 18.032C13.7278 18.032 13.8351 18.0577 13.9285 18.109C14.0265 18.1603 14.1011 18.235 14.1525 18.333C14.2365 18.4963 14.3275 18.6573 14.4255 18.816C14.5281 18.9747 14.6495 19.117 14.7895 19.243C14.9295 19.3643 15.0928 19.4647 15.2795 19.544C15.4708 19.6187 15.6971 19.656 15.9585 19.656C16.2525 19.656 16.5091 19.6093 16.7285 19.516C16.9478 19.418 17.1298 19.292 17.2745 19.138C17.4238 18.984 17.5335 18.8137 17.6035 18.627C17.6781 18.4357 17.7155 18.2443 17.7155 18.053C17.7155 17.8103 17.6898 17.591 17.6385 17.395C17.5871 17.1943 17.4798 17.024 17.3165 16.884C17.1531 16.744 16.9175 16.6343 16.6095 16.555C16.3061 16.4757 15.8978 16.436 15.3845 16.436V15.204C15.8091 15.1993 16.1615 15.1597 16.4415 15.085C16.7215 15.0103 16.9431 14.9077 17.1065 14.777C17.2745 14.6417 17.3911 14.4807 17.4565 14.294C17.5218 14.1073 17.5545 13.902 17.5545 13.678C17.5545 13.1973 17.4238 12.8357 17.1625 12.593C16.9011 12.3457 16.5441 12.222 16.0915 12.222C15.6808 12.222 15.3401 12.3317 15.0695 12.551C14.7988 12.7657 14.6098 13.0433 14.5025 13.384C14.4465 13.5613 14.3695 13.6897 14.2715 13.769C14.1735 13.8437 14.0451 13.881 13.8865 13.881C13.8118 13.881 13.7325 13.874 13.6485 13.86L12.7385 13.699C12.8085 13.2137 12.9438 12.789 13.1445 12.425C13.3451 12.0563 13.5948 11.7507 13.8935 11.508C14.1968 11.2607 14.5421 11.0763 14.9295 10.955C15.3215 10.829 15.7415 10.766 16.1895 10.766Z" fill="white"/>
</svg>
