<svg width="32" height="32" viewBox="0 0 32 32" fill="none" xmlns="http://www.w3.org/2000/svg">
    <path d="M31 16C31 24.2843 24.2843 31 16 31C7.71573 31 1 24.2843 1 16C1 7.71573 7.71573 1 16 1C24.2843 1 31 7.71573 31 16Z"
          fill="white" stroke="#3474d4" stroke-width="2"/>
    <path d="M13.6766 19.705H15.7276V13.804C15.7276 13.5753 15.7346 13.335 15.7486 13.083L14.2926 14.301C14.232 14.3523 14.169 14.3873 14.1036 14.406C14.043 14.4247 13.9823 14.434 13.9216 14.434C13.8283 14.434 13.742 14.4153 13.6626 14.378C13.588 14.336 13.532 14.2893 13.4946 14.238L12.9486 13.489L16.0356 10.864H17.4566V19.705H19.2766V21H13.6766V19.705Z"
          fill="#3474d4"/>
</svg>
