<svg width="30" height="30" viewBox="0 0 30 30" fill="none" xmlns="http://www.w3.org/2000/svg">
    <path fill-rule="evenodd" clip-rule="evenodd"
          d="M15 29C22.732 29 29 22.732 29 15C29 7.26801 22.732 1 15 1C7.26801 1 1 7.26801 1 15C1 22.732 7.26801 29 15 29Z"
          fill="#3474d4" stroke="#3474d4" stroke-width="2"/>
    <path fill-rule="evenodd" clip-rule="evenodd"
          d="M20.1893 11.1506C20.6139 10.7017 21.2897 11.3564 20.8651 11.8053C18.5095 14.3864 16.1347 16.9301 13.7598 19.4926C13.6439 19.6235 13.5281 19.7357 13.412 19.8666C13.2384 20.0537 12.9102 20.035 12.7362 19.8666C11.5393 18.7631 10.3422 17.6409 9.14514 16.5374C8.70106 16.1259 9.37684 15.4525 9.82092 15.8827C10.902 16.874 11.9639 17.8653 13.0454 18.8753C15.4394 16.2942 17.8143 13.7318 20.1893 11.1506Z"
          stroke="white"/>
</svg>
