<svg width="32" height="32" viewBox="0 0 32 32" fill="none" xmlns="http://www.w3.org/2000/svg">
    <path d="M31 16C31 24.2843 24.2843 31 16 31C7.71573 31 1 24.2843 1 16C1 7.71573 7.71573 1 16 1C24.2843 1 31 7.71573 31 16Z"
          fill="white" stroke="#3474d4" stroke-width="2"/>
    <path d="M16.0076 10.766C16.4743 10.766 16.9013 10.836 17.2886 10.976C17.676 11.1113 18.0073 11.305 18.2826 11.557C18.558 11.809 18.7726 12.1123 18.9266 12.467C19.0806 12.8217 19.1576 13.216 19.1576 13.65C19.1576 14.0233 19.1016 14.3687 18.9896 14.686C18.8823 15.0033 18.7353 15.3067 18.5486 15.596C18.3666 15.8853 18.152 16.1653 17.9046 16.436C17.6573 16.7067 17.3983 16.982 17.1276 17.262L14.8456 19.593C15.0696 19.5277 15.289 19.4787 15.5036 19.446C15.7183 19.4087 15.9236 19.39 16.1196 19.39H18.7166C18.9033 19.39 19.0503 19.4437 19.1576 19.551C19.2696 19.6537 19.3256 19.7913 19.3256 19.964V21H12.3816V20.426C12.3816 20.3093 12.405 20.188 12.4516 20.062C12.503 19.936 12.5823 19.8193 12.6896 19.712L15.7626 16.632C16.0193 16.3707 16.248 16.121 16.4486 15.883C16.654 15.645 16.8243 15.4093 16.9596 15.176C17.0996 14.9427 17.2046 14.707 17.2746 14.469C17.3493 14.2263 17.3866 13.972 17.3866 13.706C17.3866 13.4633 17.3516 13.251 17.2816 13.069C17.2116 12.8823 17.1113 12.726 16.9806 12.6C16.85 12.474 16.6936 12.3807 16.5116 12.32C16.3343 12.2547 16.1336 12.222 15.9096 12.222C15.4943 12.222 15.1513 12.327 14.8806 12.537C14.6146 12.747 14.428 13.0293 14.3206 13.384C14.2693 13.5613 14.1923 13.6897 14.0896 13.769C13.987 13.8437 13.8563 13.881 13.6976 13.881C13.6276 13.881 13.5506 13.874 13.4666 13.86L12.5566 13.699C12.6266 13.2137 12.762 12.789 12.9626 12.425C13.1633 12.0563 13.413 11.7507 13.7116 11.508C14.015 11.2607 14.3603 11.0763 14.7476 10.955C15.1396 10.829 15.5596 10.766 16.0076 10.766Z"
          fill="#3474d4"/>
</svg>
