<svg width="32" height="32" viewBox="0 0 32 32" fill="none" xmlns="http://www.w3.org/2000/svg">
<path fill-rule="evenodd" clip-rule="evenodd" d="M16 32C24.8366 32 32 24.8366 32 16C32 7.16344 24.8366 0 16 0C7.16344 0 0 7.16344 0 16C0 24.8366 7.16344 32 16 32Z" fill="none"/>
<path d="M16.0285 10.766C16.4951 10.766 16.9221 10.836 17.3095 10.976C17.6968 11.1113 18.0281 11.305 18.3035 11.557C18.5788 11.809 18.7935 12.1123 18.9475 12.467C19.1015 12.8217 19.1785 13.216 19.1785 13.65C19.1785 14.0233 19.1225 14.3687 19.0105 14.686C18.9031 15.0033 18.7561 15.3067 18.5695 15.596C18.3875 15.8853 18.1728 16.1653 17.9255 16.436C17.6781 16.7067 17.4191 16.982 17.1485 17.262L14.8665 19.593C15.0905 19.5277 15.3098 19.4787 15.5245 19.446C15.7391 19.4087 15.9445 19.39 16.1405 19.39H18.7375C18.9241 19.39 19.0711 19.4437 19.1785 19.551C19.2905 19.6537 19.3465 19.7913 19.3465 19.964V21H12.4025V20.426C12.4025 20.3093 12.4258 20.188 12.4725 20.062C12.5238 19.936 12.6031 19.8193 12.7105 19.712L15.7835 16.632C16.0401 16.3707 16.2688 16.121 16.4695 15.883C16.6748 15.645 16.8451 15.4093 16.9805 15.176C17.1205 14.9427 17.2255 14.707 17.2955 14.469C17.3701 14.2263 17.4075 13.972 17.4075 13.706C17.4075 13.4633 17.3725 13.251 17.3025 13.069C17.2325 12.8823 17.1321 12.726 17.0015 12.6C16.8708 12.474 16.7145 12.3807 16.5325 12.32C16.3551 12.2547 16.1545 12.222 15.9305 12.222C15.5151 12.222 15.1721 12.327 14.9015 12.537C14.6355 12.747 14.4488 13.0293 14.3415 13.384C14.2901 13.5613 14.2131 13.6897 14.1105 13.769C14.0078 13.8437 13.8771 13.881 13.7185 13.881C13.6485 13.881 13.5715 13.874 13.4875 13.86L12.5775 13.699C12.6475 13.2137 12.7828 12.789 12.9835 12.425C13.1841 12.0563 13.4338 11.7507 13.7325 11.508C14.0358 11.2607 14.3811 11.0763 14.7685 10.955C15.1605 10.829 15.5805 10.766 16.0285 10.766Z" fill="white"/>
</svg>
