<?xml version="1.0" encoding="utf-8"?>
<!-- Generator: Adobe Illustrator 26.0.1, SVG Export Plug-In . SVG Version: 6.00 Build 0)  -->
<svg version="1.1" id="Layer_1" xmlns="http://www.w3.org/2000/svg" xmlns:xlink="http://www.w3.org/1999/xlink" x="0px" y="0px"
	 viewBox="0 0 78.22 62.39" style="enable-background:new 0 0 78.22 62.39;" xml:space="preserve">
<style type="text/css">
	.st0{fill:#414042;}
	.st1{fill:#FBFBFB;}
</style>
<g>
	<path class="st1" d="M70.23,34.67c-0.63,0-1.13,0.51-1.13,1.13v14.22H9.12V35.81c0-0.63-0.51-1.13-1.13-1.13s-1.13,0.51-1.13,1.13
		v15.35c0,0.63,0.51,1.13,1.13,1.13h62.24c0.63,0,1.13-0.51,1.13-1.13V35.81C71.36,35.18,70.86,34.67,70.23,34.67z"/>
	<path class="st1" d="M11.7,48.19h54.82c0.17,0,0.3-0.14,0.3-0.3v-8.67c0-0.17-0.14-0.3-0.3-0.3c-0.17,0-0.3,0.14-0.3,0.3v8.37H12
		v-8.37c0-0.17-0.14-0.3-0.3-0.3c-0.17,0-0.3,0.14-0.3,0.3v8.67C11.4,48.06,11.54,48.19,11.7,48.19z"/>
	<path class="st1" d="M37.94,36.8c0,0.63,0.51,1.13,1.13,1.13s1.13-0.51,1.13-1.13V19.61h4.36l-2.75-4.75l-2.75-4.75l-2.75,4.75
		l-2.75,4.75h4.36V36.8z"/>
</g>
</svg>
