<?xml version="1.0" encoding="utf-8"?>
<!-- Generator: Adobe Illustrator 26.0.1, SVG Export Plug-In . SVG Version: 6.00 Build 0)  -->
<svg version="1.1" id="Layer_1" xmlns="http://www.w3.org/2000/svg" xmlns:xlink="http://www.w3.org/1999/xlink" x="0px" y="0px"
	 viewBox="0 0 78.22 61.78" style="enable-background:new 0 0 78.22 61.78;" xml:space="preserve">
<style type="text/css">
	.st0{fill:#414042;}
	.st1{fill:#FBFBFB;}
</style>
<g>
	<path class="st0" d="M70.23,34.37c-0.63,0-1.13,0.51-1.13,1.13v14.22H9.12V35.5c0-0.63-0.51-1.13-1.13-1.13s-1.13,0.51-1.13,1.13
		v15.35c0,0.63,0.51,1.13,1.13,1.13h62.24c0.63,0,1.13-0.51,1.13-1.13V35.5C71.36,34.87,70.86,34.37,70.23,34.37z"/>
	<path class="st0" d="M11.7,47.88h54.82c0.17,0,0.3-0.14,0.3-0.3v-8.67c0-0.17-0.14-0.3-0.3-0.3c-0.17,0-0.3,0.14-0.3,0.3v8.37H12
		v-8.37c0-0.17-0.14-0.3-0.3-0.3c-0.17,0-0.3,0.14-0.3,0.3v8.67C11.4,47.75,11.54,47.88,11.7,47.88z"/>
	<path class="st0" d="M37.94,36.49c0,0.63,0.51,1.13,1.13,1.13s1.13-0.51,1.13-1.13V19.3h4.36l-2.75-4.75l-2.75-4.75l-2.75,4.75
		l-2.75,4.75h4.36V36.49z"/>
</g>
</svg>
