<svg width="54" height="57" viewBox="0 0 54 57" fill="none" xmlns="http://www.w3.org/2000/svg">
<path fill-rule="evenodd" clip-rule="evenodd" d="M2 2H52.2326V54.9286H2V2Z" fill="url(#paint0_radial)"/>
<path fill-rule="evenodd" clip-rule="evenodd" d="M0 57H54V0H0V57ZM2.24997 2.43586H51.75V54.564H2.24997V2.43586ZM34.0201 25.1627C34.0201 24.3589 34.6275 23.3846 36.405 23.3846C37.8675 23.3846 39.33 23.7987 40.3199 24.4806C40.545 24.5537 40.6575 24.4319 40.6575 24.237V20.8999C40.6575 20.7294 40.6125 20.5346 40.4325 20.4128C39.69 20.0475 38.34 19.7307 36.405 19.7307C32.4676 19.7307 30.195 22.3371 30.195 25.4795C30.195 28.2808 31.5224 29.9615 34.7175 31.6179C36.99 32.8846 37.5075 33.664 37.5075 34.5409C37.5075 35.6371 36.765 36.441 34.9875 36.441C33.5025 36.441 31.8826 36.0026 30.4651 35.0038C30.3075 34.8819 30.195 34.9551 30.195 35.1986V38.7794C30.195 38.9744 30.2175 39.0961 30.375 39.1692C31.3425 39.7781 33.03 40.2166 34.9875 40.2166C38.7001 40.2166 41.4451 38.1217 41.4451 34.2243C41.4451 31.6179 40.3425 29.8397 36.81 27.9884C34.425 26.6486 34.0201 26.0396 34.0201 25.1627ZM17.055 26.2833C17.5725 26.332 17.9775 26.332 18.8775 26.332C21.5101 26.332 23.985 25.3333 23.985 21.4603C23.985 18.3667 22.2075 16.8077 19.215 16.8077C18.3151 16.8077 17.46 16.8564 17.055 16.8807V26.2833ZM13.545 13.0563C13.3651 13.0563 13.0501 13.1782 13.0501 13.3487H13.05V39.5102C13.05 39.7294 13.14 39.8025 13.32 39.8025H16.7625C16.965 39.8025 17.0325 39.705 17.0325 39.5102V30.1563C17.3104 30.1563 17.5224 30.1665 17.7524 30.1776C18.0253 30.1907 18.3236 30.205 18.7875 30.205C23.8725 30.205 28.0125 27.5499 28.0125 21.3628C28.0125 16.6371 25.5825 12.9345 19.35 12.9345C17.1226 12.9345 14.9851 12.9832 13.545 13.0563Z" fill="#31C5F0"/>
<defs>
<radialGradient id="paint0_radial" cx="0" cy="0" r="1" gradientUnits="userSpaceOnUse" gradientTransform="translate(18.5442 13.8613) scale(38.1767 40.2257)">
<stop stop-color="#34364E" stop-opacity="0.98"/>
<stop offset="1" stop-color="#0C0824"/>
</radialGradient>
</defs>
</svg>
