<svg width="54" height="57" viewBox="0 0 54 57" fill="none" xmlns="http://www.w3.org/2000/svg">
<rect width="54" height="57" fill="#F2EFEA"/>
<path d="M0 0H54V57H0V0Z" fill="#180E0E"/>
<path fill-rule="evenodd" clip-rule="evenodd" d="M51 3H3V54H51V3ZM0 0V57H54V0H0Z" fill="#028C42"/>
<path d="M15.696 31.248C15.696 31.98 15.603 32.646 15.417 33.246C15.237 33.846 14.961 34.362 14.589 34.794C14.223 35.22 13.761 35.553 13.203 35.793C12.645 36.027 11.988 36.144 11.232 36.144C10.89 36.144 10.551 36.126 10.215 36.09C9.88499 36.054 9.53999 35.994 9.17999 35.91L9.34199 34.137C9.35999 33.981 9.42299 33.855 9.53099 33.759C9.63899 33.663 9.79199 33.615 9.98999 33.615C10.092 33.615 10.218 33.633 10.368 33.669C10.518 33.699 10.698 33.714 10.908 33.714C11.202 33.714 11.457 33.675 11.673 33.597C11.895 33.513 12.078 33.378 12.222 33.192C12.366 33 12.474 32.751 12.546 32.445C12.618 32.139 12.654 31.761 12.654 31.311V22.887H15.696V31.248Z" fill="#03A74F"/>
<path d="M22.7348 29.322C23.5268 29.322 24.0968 29.133 24.4448 28.755C24.7928 28.377 24.9668 27.849 24.9668 27.171C24.9668 26.871 24.9218 26.598 24.8318 26.352C24.7418 26.106 24.6038 25.896 24.4178 25.722C24.2378 25.542 24.0068 25.404 23.7248 25.308C23.4488 25.212 23.1188 25.164 22.7348 25.164H21.1508V29.322H22.7348ZM22.7348 22.887C23.6588 22.887 24.4508 22.998 25.1108 23.22C25.7768 23.436 26.3228 23.736 26.7488 24.12C27.1808 24.504 27.4988 24.957 27.7028 25.479C27.9068 26.001 28.0088 26.565 28.0088 27.171C28.0088 27.825 27.9038 28.425 27.6938 28.971C27.4838 29.517 27.1628 29.985 26.7308 30.375C26.2988 30.765 25.7498 31.071 25.0838 31.293C24.4238 31.509 23.6408 31.617 22.7348 31.617H21.1508V36H18.1088V22.887H22.7348Z" fill="#03A74F"/>
<path d="M35.8522 29.205H40.5142V34.74C39.8422 35.232 39.1252 35.589 38.3632 35.811C37.6072 36.033 36.8152 36.144 35.9872 36.144C34.9072 36.144 33.9232 35.976 33.0352 35.64C32.1532 35.298 31.3972 34.83 30.7672 34.236C30.1372 33.636 29.6512 32.928 29.3092 32.112C28.9672 31.29 28.7962 30.399 28.7962 29.439C28.7962 28.461 28.9582 27.564 29.2822 26.748C29.6062 25.926 30.0682 25.218 30.6682 24.624C31.2742 24.03 32.0032 23.568 32.8552 23.238C33.7132 22.908 34.6702 22.743 35.7262 22.743C36.2722 22.743 36.7852 22.788 37.2652 22.878C37.7452 22.968 38.1862 23.091 38.5882 23.247C38.9962 23.403 39.3682 23.589 39.7042 23.805C40.0402 24.021 40.3402 24.255 40.6042 24.507L39.7222 25.848C39.5842 26.058 39.4042 26.187 39.1822 26.235C38.9662 26.283 38.7322 26.229 38.4802 26.073C38.2402 25.929 38.0122 25.806 37.7962 25.704C37.5862 25.596 37.3702 25.509 37.1482 25.443C36.9262 25.377 36.6922 25.329 36.4462 25.299C36.2002 25.269 35.9242 25.254 35.6182 25.254C35.0482 25.254 34.5352 25.356 34.0792 25.56C33.6232 25.758 33.2332 26.04 32.9092 26.406C32.5912 26.772 32.3452 27.213 32.1712 27.729C31.9972 28.239 31.9102 28.809 31.9102 29.439C31.9102 30.135 32.0062 30.753 32.1982 31.293C32.3902 31.833 32.6602 32.289 33.0082 32.661C33.3622 33.033 33.7822 33.318 34.2682 33.516C34.7602 33.708 35.3032 33.804 35.8972 33.804C36.2632 33.804 36.5932 33.768 36.8872 33.696C37.1872 33.624 37.4782 33.528 37.7602 33.408V31.419H36.4642C36.2722 31.419 36.1222 31.368 36.0142 31.266C35.9062 31.164 35.8522 31.035 35.8522 30.879V29.205Z" fill="#03A74F"/>
</svg>
