<svg width="85" height="48" viewBox="0 0 85 48" fill="none" xmlns="http://www.w3.org/2000/svg">
<g clip-path="url(#clip0_301_204)">
<path d="M71.0356 5.72689C72.6917 5.72689 74.3038 6.05272 75.8233 6.69778C77.2941 7.32111 78.6121 8.21172 79.7515 9.33939C80.883 10.4608 81.7837 11.7887 82.4037 13.2494C83.0502 14.7577 83.3819 16.3797 83.3788 18.0179V19.0426C83.3788 20.6916 83.0522 22.2972 82.4046 23.8102C81.7804 25.2688 80.8798 26.596 79.7515 27.7202C78.6283 28.845 77.294 29.7423 75.8233 30.3618C74.3111 31.0049 72.6818 31.3353 71.0356 31.3327H16.8916C15.2355 31.3327 13.6234 31.0078 12.1039 30.3618C10.6358 29.7382 9.30253 28.8414 8.17671 27.7202C7.04488 26.5988 6.14384 25.271 5.52357 23.8102C4.8775 22.3021 4.54615 20.6805 4.54941 19.0426V18.0179C4.54941 16.3689 4.87508 14.7633 5.52357 13.2503C6.14785 11.7917 7.0484 10.4645 8.17671 9.34034C9.29954 8.21531 10.6335 7.31769 12.1039 6.69778C13.6161 6.05463 15.2454 5.72423 16.8916 5.72689H71.0356ZM71.0356 4.58789H16.8916C9.47272 4.58789 3.4043 10.6304 3.4043 18.0179V19.0426C3.4043 26.4301 9.47272 32.4726 16.8916 32.4726H71.0356C78.4545 32.4726 84.523 26.4301 84.523 19.0426V18.0179C84.523 10.6361 78.4545 4.58789 71.0356 4.58789Z" fill="white"/>
<path d="M16.5416 3.50928C8.19726 3.50928 1.43164 10.2451 1.43164 18.5543C1.43164 26.8635 8.19726 33.5993 16.5416 33.5993C24.8869 33.5993 31.6525 26.8635 31.6525 18.5543C31.6525 10.2451 24.8869 3.50928 16.5406 3.50928H16.5416ZM16.5416 28.8648C10.8227 28.8648 6.18687 24.2493 6.18687 18.5543C6.18687 12.8593 10.8227 8.24472 16.5416 8.24472C22.2614 8.24472 26.8963 12.8602 26.8963 18.5552C26.8963 24.2502 22.2614 28.8648 16.5416 28.8648Z" fill="#FBB92F"/>
<path d="M16.9684 18.5113C17.6274 17.2268 18.2597 15.9462 18.9358 14.6825C19.4965 13.6361 20.1172 12.6217 20.7056 11.5847C20.8144 11.3958 20.9395 11.3137 21.1573 11.3354C21.3206 11.3524 21.4897 11.3411 21.6749 11.3411V10.2568H22.3998C22.3998 9.931 22.4046 9.6335 22.3941 9.33411C22.3884 9.166 22.4485 9.10745 22.6119 9.11217C22.8353 9.11783 23.0588 9.1065 23.2766 9.11783C23.4389 9.12256 23.5001 9.06872 23.4943 8.90061C23.4829 8.48883 23.5048 8.08178 23.4829 7.66906C23.4733 7.44239 23.5593 7.38195 23.7722 7.39233C23.9957 7.40933 24.2135 7.38761 24.437 7.398C24.5898 7.40367 24.6547 7.35456 24.649 7.19778C24.6385 7.03439 24.6595 6.86722 24.6433 6.69817C24.6213 6.46489 24.7254 6.395 24.9489 6.40539C25.1781 6.42239 25.4063 6.41106 25.6566 6.41106V5.65739H27.4807V4.57789H26.4244V3.52011H27.5304V4.53445H28.6249V2.30556H29.6821V1.14956H31.8396V-0.00927734H33.0162V1.14011H31.8883V2.3065C31.7794 2.31122 31.6973 2.31689 31.6104 2.31689C31.0545 2.32822 30.5044 2.32822 29.9486 2.34994C29.8837 2.34994 29.7576 2.43117 29.7576 2.47461C29.748 3.15272 29.748 3.82989 29.748 4.52406H30.7719V3.43417C31.1797 3.43417 31.5617 3.4285 31.9485 3.43983C31.981 3.43983 32.0459 3.52106 32.0459 3.5645C32.0574 3.88467 32.0516 4.20956 32.0516 4.55711H30.8263V5.64228H29.7203V7.95806H28.7615V8.89022C28.4234 8.90722 28.1244 8.92328 27.8026 8.93367V10.2521C27.5581 10.2521 27.3394 10.2578 27.1216 10.2521C26.9745 10.2464 26.9258 10.3012 26.9258 10.441C26.9316 10.6809 26.9201 10.9132 26.9258 11.1522C26.9316 11.3203 26.8714 11.3968 26.6919 11.3854C26.4684 11.3751 26.2506 11.3911 26.0271 11.3807C25.8858 11.3751 25.8256 11.4232 25.8313 11.5696C25.8361 11.8303 25.8199 12.0909 25.8361 12.3507C25.8476 12.5622 25.7654 12.6274 25.5592 12.617C25.2755 12.6009 24.9976 12.6113 24.6929 12.6113V13.8646H23.7942V14.9545H22.8898C22.8898 15.2907 22.906 15.6062 22.884 15.9141C22.8765 16.0823 22.828 16.2462 22.7427 16.3919C21.1955 18.6964 19.9749 21.1708 18.9788 23.7577C18.6684 24.5604 18.0257 24.9231 17.1642 24.7928C16.3753 24.6738 15.8357 24.2828 15.5358 23.5083C14.8549 21.7347 14.0765 20.0092 13.024 18.4093C12.2997 17.3092 11.49 16.2665 10.602 15.2907C10.3624 15.0199 10.1659 14.7145 10.0194 14.385C9.87713 14.0762 9.91533 13.7447 10.1722 13.4849C10.4387 13.2139 10.7653 13.1808 11.1139 13.2894C11.9639 13.5605 12.6993 14.0261 13.3908 14.5805C14.7088 15.6383 15.7822 16.918 16.7841 18.2638C16.8385 18.3337 16.8882 18.4036 16.9369 18.4744C16.9531 18.5075 16.9694 18.5122 16.9694 18.5122L16.9684 18.5113ZM28.643 5.66778H27.5428V6.73689H28.6373V5.66306H29.6726V4.59395H28.6478C28.643 4.96228 28.643 5.3155 28.643 5.66778ZM25.7502 11.3089V10.2889H24.7321V11.3089H25.7502ZM25.7502 8.4775V7.49528H24.7263V8.4775H25.7502ZM36.4917 11.4497V18.0891H34.53V8.25933H35.549C35.9311 8.25933 36.3112 8.27067 36.6875 8.25461C36.8451 8.24895 36.9262 8.30278 36.9979 8.43878C37.9949 10.3428 38.9968 12.2411 39.9987 14.1442C40.0321 14.2037 40.0645 14.2641 40.1295 14.3774V8.28295H42.1189V18.0957C42.0539 18.1004 41.988 18.1108 41.9231 18.1108C41.3348 18.1108 40.7522 18.1061 40.1639 18.1165C40.0168 18.1165 39.9404 18.0731 39.8697 17.9427C38.7894 15.8264 37.707 13.7112 36.6225 11.597C36.5958 11.5432 36.5633 11.4941 36.5308 11.4402C36.5194 11.4449 36.5089 11.4449 36.4926 11.4506L36.4917 11.4497ZM56.2699 12.3497C55.8115 12.3497 55.3817 12.3063 54.9625 12.3611C53.9654 12.4914 53.4315 13.1525 53.1861 14.0582C53.1051 14.3868 53.065 14.724 53.0667 15.0622C53.0504 15.9783 53.061 16.8897 53.061 17.8067V18.0995H50.9436V10.8745C51.3409 10.8745 51.7334 10.8698 52.126 10.8802C52.1689 10.8802 52.2176 10.9727 52.2406 11.0313C52.4201 11.4771 52.5939 11.9219 52.763 12.3554C52.9865 12.0787 53.1928 11.7859 53.4325 11.5309C53.8622 11.0757 54.4133 10.8802 55.0284 10.8698C55.4486 10.8641 55.8679 10.8698 56.3034 10.8698C56.4285 10.186 56.5488 9.51922 56.6682 8.83544H58.4064V10.8584H59.9536V12.3223H58.4274C58.4226 12.4309 58.4169 12.5178 58.4169 12.5991V15.7941C58.4169 16.51 58.7053 16.748 59.414 16.6243C59.583 16.5912 59.7511 16.5582 59.9479 16.5157C59.9908 16.765 60.0338 17.0039 60.072 17.2429C60.116 17.4809 60.1542 17.7198 60.2038 18.0126C59.8218 18.0834 59.4522 18.1968 59.0816 18.2128C58.6022 18.2298 58.1122 18.2242 57.649 18.1259C56.8917 17.9635 56.396 17.3402 56.3253 16.5261C56.2766 15.9622 56.2814 15.3927 56.2766 14.8289C56.2652 14.0101 56.2699 13.1903 56.2699 12.3497ZM74.8544 18.0995H72.7246V17.8332C72.7246 16.4071 72.6979 14.9809 72.7351 13.5548C72.7571 12.719 72.0494 12.3714 71.3789 12.4971C70.9711 12.5726 70.6598 12.8219 70.399 13.1204C70.3446 13.1799 70.3446 13.2942 70.3446 13.3811C70.3389 14.8884 70.3446 16.391 70.3446 17.8983V18.0995H68.274V10.8745C68.6666 10.8745 69.0591 10.8698 69.4507 10.8802C69.4946 10.8802 69.5548 10.9614 69.5815 11.0162C69.7066 11.3193 69.8212 11.6291 69.9349 11.9266C70.208 11.6999 70.4583 11.4544 70.7419 11.2598C71.505 10.7281 72.3493 10.5543 73.2423 10.8254C74.1572 11.0974 74.6147 11.7859 74.8105 12.6699C74.8487 12.838 74.8658 13.0118 74.8658 13.1856C74.8706 14.7628 74.8658 16.3362 74.8658 17.9144C74.8658 17.9748 74.8601 18.0287 74.8544 18.0995ZM46.6277 10.7177C47.1267 10.7172 47.6209 10.8144 48.0817 11.0036C48.5426 11.1928 48.961 11.4703 49.3129 11.8201C49.6649 12.17 49.9433 12.5852 50.1322 13.042C50.3211 13.4987 50.4167 13.9879 50.4135 14.4813C50.4135 16.5591 48.7135 18.2459 46.6172 18.2459C44.5199 18.2459 42.8419 16.5648 42.8371 14.4709C42.8313 12.2959 44.6603 10.6629 46.6277 10.7177ZM46.6277 16.4014C47.1404 16.394 47.6299 16.1885 47.9913 15.8287C48.3528 15.469 48.5575 14.9837 48.5617 14.4766C48.5622 14.2233 48.5118 13.9725 48.4135 13.7387C48.3151 13.5048 48.1708 13.2926 47.9888 13.1144C47.8068 12.9362 47.5908 12.7955 47.3534 12.7006C47.116 12.6056 46.8618 12.5583 46.6057 12.5613C46.3519 12.5623 46.1007 12.613 45.8668 12.7106C45.6329 12.8082 45.4209 12.9508 45.243 13.13C45.0652 13.3091 44.9251 13.5214 44.8308 13.7545C44.7365 13.9876 44.6899 14.2369 44.6937 14.4879C44.6937 15.5448 45.5657 16.4071 46.6277 16.4014ZM63.9715 18.2459C61.8799 18.2459 60.1647 16.5591 60.1752 14.4813C60.173 13.9858 60.27 13.4947 60.4605 13.0364C60.651 12.5781 60.9312 12.1615 61.2851 11.8107C61.639 11.4598 62.0595 11.1817 62.5225 10.9921C62.9855 10.8026 63.4819 10.7055 63.983 10.7064C66.0745 10.7394 67.7459 12.3781 67.7459 14.4709C67.7516 16.5648 66.0688 18.2459 63.9715 18.2459ZM63.9772 16.4014C65.0335 16.4014 65.8998 15.5334 65.8998 14.4709C65.8998 13.4028 65.0498 12.5566 63.9715 12.5566C63.7153 12.5557 63.4614 12.6051 63.2246 12.7019C62.9877 12.7987 62.7727 12.9409 62.5919 13.1205C62.411 13.3 62.268 13.5132 62.171 13.7478C62.0741 13.9824 62.0251 14.2336 62.027 14.487C62.0323 14.9956 62.2399 15.4816 62.6049 15.8399C62.9699 16.1982 63.4629 16.3999 63.9772 16.4014ZM56.884 42.3113H56.0465V38.7205H56.8793V39.2248C57.1954 38.8291 57.5383 38.6289 57.991 38.6336C58.4484 38.6393 58.797 38.8234 59.0797 39.2853C59.1237 39.2088 59.1399 39.1436 59.1838 39.1002C59.5811 38.6771 60.0816 38.5581 60.6384 38.6723C61.1608 38.78 61.5208 39.2088 61.5361 39.7839C61.559 40.6188 61.5419 41.4537 61.5419 42.3113H60.6976V41.7692C60.6976 41.2318 60.7033 40.6953 60.6976 40.1636C60.6928 39.7405 60.4474 39.4524 60.0883 39.4147C59.6633 39.3712 59.3576 39.5884 59.2602 40.0172C59.2325 40.1306 59.222 40.2505 59.222 40.3695C59.2163 41.0146 59.222 41.6606 59.222 42.3217H58.3825C58.3778 42.2348 58.372 42.1536 58.372 42.0723C58.372 41.4433 58.3778 40.8087 58.372 40.1797C58.3615 39.5667 57.8276 39.2258 57.31 39.4959C56.9881 39.664 56.8955 39.9624 56.8955 40.2883C56.8793 40.9447 56.884 41.6171 56.884 42.3113ZM51.1814 38.032C50.9961 38.2917 50.849 38.5042 50.7402 38.6553C50.3152 38.5042 49.9389 38.3408 49.5463 38.2492C49.3563 38.2048 49.128 38.2757 48.9256 38.3352C48.725 38.4013 48.6161 38.5845 48.6161 38.7961C48.6104 39.0029 48.7078 39.1757 48.9046 39.2466C49.1987 39.3599 49.5034 39.4468 49.7975 39.545C50.0649 39.6366 50.3419 39.7131 50.5988 39.8321C51.0506 40.0493 51.2903 40.4073 51.2903 40.9229C51.2903 41.4594 51.0888 41.8825 50.6151 42.1375C49.9064 42.5115 49.171 42.452 48.4576 42.1649C48.1424 42.0402 47.8588 41.8343 47.5312 41.6436C47.7336 41.3999 47.9017 41.2044 48.0822 40.9928C48.4633 41.3187 48.8769 41.5737 49.3783 41.6001C49.6293 41.6064 49.8798 41.5716 50.1194 41.4972C50.3314 41.432 50.4298 41.2478 50.4345 41.0155C50.4403 40.7869 50.3314 40.6245 50.1356 40.548C49.8252 40.429 49.5034 40.3478 49.1872 40.2448C48.9485 40.1693 48.703 40.0984 48.4738 39.9946C47.4997 39.5667 47.6238 38.3087 48.2179 37.8412C48.8444 37.3539 49.5416 37.3643 50.2502 37.5768C50.5606 37.6844 50.849 37.8696 51.1814 38.032ZM64.7776 42.3226V41.9099C64.4118 42.2688 63.9983 42.3982 63.5303 42.3868C62.8541 42.3651 62.3699 41.9477 62.3202 41.3291C62.2772 40.7171 62.6803 40.2392 63.3393 40.1145C63.8187 40.0276 64.2819 40.0767 64.7442 40.2014C64.8206 39.8652 64.6296 39.5563 64.2762 39.4581C63.9056 39.3495 63.5408 39.4147 63.1807 39.5242C63.0833 39.5507 62.9897 39.5884 62.8703 39.6319L62.6258 38.9424C62.8866 38.8622 63.132 38.7479 63.388 38.7158C63.7318 38.6723 64.0852 38.6449 64.4233 38.6988C65.1969 38.8121 65.5999 39.2957 65.6104 40.0767C65.6219 40.7605 65.6104 41.449 65.6161 42.1328C65.6161 42.2896 65.5674 42.3443 65.4146 42.333C65.2131 42.3169 65.0116 42.3226 64.7776 42.3226ZM63.9658 40.6509C63.8244 40.6897 63.6124 40.7114 63.431 40.7983C63.3584 40.8317 63.2955 40.8826 63.2482 40.9465C63.2009 41.0104 63.1707 41.085 63.1604 41.1636C63.1501 41.2421 63.16 41.3219 63.1893 41.3956C63.2186 41.4693 63.2662 41.5344 63.3278 41.585C63.7156 41.9259 64.5646 41.7257 64.7508 41.2488C64.875 40.9277 64.7986 40.7822 64.472 40.7218C64.3249 40.6953 64.1778 40.6783 63.9658 40.6509ZM76.222 41.2752L76.7177 41.7097C76.3414 42.1592 75.8734 42.3708 75.3061 42.3925C74.3415 42.4303 73.5307 41.7956 73.3893 40.8842C73.2308 39.8217 73.7761 38.916 74.713 38.6771C75.7588 38.4117 76.7339 39.1002 76.8485 40.1901C76.8696 40.3856 76.8533 40.5811 76.8533 40.8087H74.2279C74.2718 41.1666 74.4294 41.4273 74.7188 41.5737C75.2794 41.8551 75.7751 41.6823 76.222 41.2752ZM76.0148 40.2448C75.9871 39.6971 75.6175 39.3174 75.1266 39.3221C74.6424 39.3278 74.2498 39.7292 74.2384 40.2448H76.0148ZM67.4689 42.3169H66.6514V38.7158H67.4794V39.2258C67.8395 38.7696 68.2425 38.5958 68.743 38.6402C69.3475 38.6931 69.8222 39.0954 69.8547 39.6971C69.9034 40.5216 69.8871 41.3517 69.8929 42.1753C69.8929 42.2244 69.8107 42.3113 69.762 42.3169C69.5328 42.333 69.3036 42.3226 69.0429 42.3226V41.959C69.0371 41.3357 69.0534 40.7114 69.0152 40.0928C68.9827 39.6045 68.6723 39.3712 68.2034 39.3986C67.7898 39.426 67.4852 39.7509 67.4852 40.1901C67.4794 40.8464 67.4852 41.4981 67.4852 42.1545C67.4852 42.197 67.4794 42.2461 67.4689 42.3169ZM51.8738 43.1839C51.9607 42.9894 52.0534 42.7939 52.146 42.588C52.2769 42.6305 52.3962 42.6739 52.5166 42.7013C52.7076 42.7448 52.8699 42.6909 53.0065 42.5446C53.1479 42.3925 53.1269 42.2518 53.0505 42.0723C52.6035 41.0306 52.1728 39.9842 51.7372 38.9368L51.6446 38.6988C51.9283 38.6988 52.1794 38.6884 52.4297 38.7044C52.4946 38.7092 52.5767 38.8017 52.6035 38.8726C52.8919 39.5941 53.1698 40.3261 53.4478 41.0476C53.4755 41.1175 53.5079 41.1883 53.5566 41.313C53.6006 41.2044 53.633 41.1392 53.655 41.0741C53.911 40.3468 54.1726 39.6206 54.4171 38.8943C54.4716 38.7366 54.548 38.6884 54.7065 38.6988C54.9185 38.7148 55.1306 38.7044 55.376 38.7044L54.761 40.2883C54.483 40.9985 54.2099 41.7087 53.9329 42.4189C53.8947 42.5228 53.8451 42.6258 53.7963 42.7231C53.421 43.4607 52.6092 43.6675 51.8738 43.1839ZM80.8407 39.2683C80.6669 39.4524 80.5035 39.6319 80.3345 39.8057C79.5771 39.2683 79.0385 39.2466 78.6345 39.7188C78.2487 40.1683 78.2697 40.9229 78.6727 41.3461C79.1197 41.8069 79.686 41.7682 80.3784 41.2157C80.5312 41.3838 80.6831 41.5519 80.8407 41.7201C80.5035 42.2622 79.6698 42.5332 78.8857 42.3377C78.1178 42.1488 77.5677 41.4754 77.5133 40.6623C77.4531 39.8104 77.9268 39.0511 78.7004 38.7526C79.452 38.4598 80.3507 38.6667 80.8407 39.2683ZM71.0151 39.4524C70.5471 39.4147 70.5471 39.4147 70.5471 38.9698V38.7092C70.7047 38.7044 70.8403 38.6988 71.0036 38.6874V37.7336H71.8479V38.6874H72.8067V39.4307H71.8593V40.3695C71.8593 40.6349 71.8536 40.9059 71.8593 41.1723C71.8651 41.5132 72.0551 41.6766 72.398 41.6218C72.5288 41.6001 72.6597 41.5623 72.8125 41.5246C72.8125 41.7201 72.823 41.9042 72.8067 42.0941C72.7994 42.1286 72.7843 42.1611 72.7627 42.1892C72.7411 42.2173 72.7134 42.2403 72.6816 42.2565C72.3111 42.4142 71.93 42.4407 71.5547 42.2943C71.1402 42.1318 71.0256 41.7796 71.0151 41.3782C71.0036 40.8191 71.0151 40.2609 71.0151 39.7018V39.4524Z" fill="white"/>
<path d="M40.1413 14.4002V8.27075H42.1345V18.0939H39.956C39.8796 17.9589 39.7927 17.8068 39.7163 17.65C39.2483 16.733 38.8014 15.7989 38.3105 14.8941C37.9132 14.1509 37.5541 13.3915 37.1558 12.6483C36.9323 12.2308 36.7146 11.8077 36.4863 11.3638V18.0996H34.4922V8.2717H36.9056L37.1444 8.72692C37.3191 9.06314 37.4719 9.41637 37.6735 9.73559C37.8482 10.018 37.9734 10.3211 38.1414 10.6092C38.3325 10.9398 38.4795 11.293 38.6705 11.6179C38.8444 11.9163 38.9762 12.2365 39.15 12.534C39.341 12.8598 39.4823 13.2074 39.6724 13.5219C39.8414 13.7986 39.9675 14.0857 40.1413 14.4002ZM56.2971 10.8642C56.4164 10.1748 56.5358 9.51364 56.6562 8.8412H58.4106V10.8585H59.9463C59.9626 10.8746 59.9683 10.8746 59.974 10.8859C59.9788 10.8916 59.9788 10.8963 59.9788 10.9076V12.3394H58.5252C58.4536 12.3394 58.4163 12.3829 58.4106 12.4528C58.4049 12.4858 58.4106 12.5189 58.4106 12.5453V15.8603C58.4106 15.9359 58.4154 16.0058 58.4536 16.0766C58.487 16.1418 58.4268 16.2334 58.508 16.2938C58.5137 16.4827 58.6666 16.5375 58.8031 16.597C58.9769 16.6725 59.1727 16.6565 59.3523 16.6404C59.5213 16.6244 59.6846 16.5535 59.8585 16.5479C59.8919 16.5479 59.9196 16.5101 59.9521 16.4884C60.039 17.004 60.1259 17.5027 60.2137 18.007C60.0504 18.0184 59.9196 18.127 59.7553 18.1204C59.6636 18.2025 59.5271 18.1204 59.4344 18.2082C59.1842 18.2025 58.9445 18.2838 58.6933 18.2564C58.5634 18.246 58.4259 18.2564 58.2903 18.2564C58.1769 18.2544 58.064 18.2418 57.9531 18.2186C57.849 18.1969 57.7459 18.1865 57.6427 18.1591C57.5386 18.1317 57.4192 18.11 57.3323 18.0505C57.1136 17.9088 56.8796 17.7955 56.7211 17.5622C56.5819 17.3716 56.4721 17.1615 56.3954 16.9389C56.3578 16.8182 56.3285 16.6951 56.3076 16.5705C56.2312 16.12 56.2751 15.6695 56.2646 15.22C56.2589 14.7695 56.2646 14.319 56.2646 13.8694V12.3385C55.8558 12.3385 55.4528 12.3328 55.0545 12.3441C54.9686 12.3489 54.8807 12.3819 54.7881 12.3876C54.7059 12.3923 54.6305 12.4254 54.5541 12.4528C54.4704 12.4824 54.3884 12.5168 54.3086 12.5557C54.234 12.588 54.1629 12.6278 54.0966 12.6747C53.6821 13.0005 53.3717 13.4066 53.2189 13.9166C53.1264 14.1951 53.0768 14.4858 53.0718 14.7789C53.0776 15.8858 53.0718 16.987 53.0718 18.1034H50.8943V10.8736H52.0423C52.1731 10.8736 52.1683 10.8793 52.2171 11.004C52.3097 11.259 52.4128 11.5083 52.5112 11.7586C52.5933 11.9692 52.6803 12.176 52.7614 12.3923C52.8598 12.2459 52.9525 12.1052 53.0451 11.9645C53.3507 11.53 53.3937 11.4923 53.8349 11.2051C54.0689 11.0531 54.3306 10.9823 54.5971 10.9171C54.832 10.8633 55.0603 10.8793 55.2942 10.8793C55.6381 10.8576 55.9704 10.8633 56.2971 10.8633V10.8642ZM46.6338 10.7235C46.6997 10.7235 46.7599 10.7282 46.8248 10.7235C47.2116 10.6951 47.5764 10.799 47.9308 10.9237C48.2956 11.054 48.628 11.2439 48.9336 11.4819C49.1561 11.6556 49.3576 11.8511 49.5429 12.0627C49.6842 12.2195 49.7989 12.4046 49.9077 12.5944C50.0491 12.8381 50.158 13.0874 50.2344 13.3594C50.348 13.7269 50.4088 14.1085 50.4149 14.4928C50.4192 15.3577 50.1164 16.1966 49.5591 16.8633C49.4342 17.0211 49.2959 17.168 49.1456 17.3025C48.8611 17.5531 48.5397 17.7595 48.1925 17.9145C47.9413 18.0231 47.6863 18.0996 47.4131 18.1648C47.0216 18.2564 46.629 18.2507 46.2365 18.246C46.0482 18.2368 45.8616 18.2058 45.6807 18.1534C45.5183 18.1043 45.3483 18.0722 45.1964 18.007C45.0494 17.9475 44.9128 17.8503 44.7714 17.7794C44.5563 17.6723 44.3565 17.5373 44.1774 17.378C44.0742 17.2855 43.9482 17.2156 43.867 17.107C43.6634 16.8655 43.4776 16.6099 43.3112 16.342C43.0991 15.9736 42.9683 15.5553 42.8976 15.3276C42.8537 15.186 42.8594 15.0292 42.8432 14.8781C42.8317 14.7478 42.7887 14.6278 42.7887 14.4984C42.7887 14.2812 42.8757 14.0753 42.8432 13.8581C42.9244 13.5927 42.9788 13.316 43.0819 13.061C43.187 12.8116 43.3169 12.5727 43.4697 12.3451C43.6492 12.0844 43.8565 11.8408 44.0962 11.6396C44.3569 11.4176 44.6349 11.2108 44.951 11.0758C45.2509 10.9454 45.5613 10.8151 45.8984 10.7773C46.0187 10.7613 46.1381 10.7282 46.2585 10.7339C46.3998 10.7282 46.5144 10.7235 46.6338 10.7235ZM46.6453 12.5727C46.3454 12.5396 46.0675 12.6379 45.7953 12.7465C45.4247 12.8976 45.164 13.18 44.9567 13.5001C44.7934 13.7551 44.6893 14.0479 44.7113 14.3681C44.717 14.4928 44.7113 14.6174 44.7113 14.7478C44.7113 14.7855 44.7008 14.829 44.717 14.8668C44.8039 15.084 44.8641 15.3059 44.994 15.5118C45.1964 15.8216 45.4629 16.0549 45.7848 16.2116C45.9471 16.2929 46.1334 16.3316 46.3129 16.3694C46.5517 16.4185 46.7809 16.4232 47.0101 16.358C47.1295 16.3259 47.2555 16.3099 47.3692 16.2494C47.6309 16.1248 47.8658 15.9623 48.0616 15.7451C48.224 15.5656 48.3386 15.3607 48.4207 15.1378C48.4694 14.9961 48.5353 14.8611 48.5133 14.7034C48.6499 14.4984 48.4809 14.2869 48.5133 14.08C48.4369 14.0262 48.4866 13.9336 48.4532 13.8685C48.3825 13.7174 48.3004 13.57 48.224 13.4189C48.1648 13.299 48.0119 13.2555 47.9852 13.1148C47.8763 13.0827 47.8219 12.9731 47.735 12.9146C47.4074 12.703 47.0588 12.5349 46.6453 12.5727ZM63.9881 10.7235C64.1085 10.7235 64.2278 10.7178 64.3425 10.7235C64.691 10.7395 65.0129 10.8368 65.3395 10.9568C65.6275 11.0678 65.9015 11.2113 66.1561 11.3846C66.265 11.4554 66.3691 11.5366 66.4617 11.6179C66.903 12.0032 67.2401 12.4641 67.4645 13.0015C67.5619 13.2348 67.6651 13.4784 67.6766 13.7381C67.753 13.8581 67.6871 14.0045 67.731 14.1188C67.7854 14.2651 67.7577 14.4059 67.7692 14.5532C67.7854 14.7147 67.7148 14.8668 67.7148 15.0292C67.7148 15.1869 67.6708 15.355 67.6221 15.5071C67.5782 15.6535 67.496 15.7885 67.4531 15.9302C67.3327 16.2985 67.0997 16.597 66.8648 16.8954C66.7826 16.9993 66.7062 17.1013 66.6088 17.1882C66.2423 17.5176 65.8247 17.7867 65.372 17.9853C65.1982 18.0609 65.0072 18.0986 64.8162 18.1374C64.7235 18.1591 64.6309 18.2025 64.5277 18.1921C64.4246 18.1865 64.3272 18.246 64.2173 18.2346C64.1142 18.2243 64.0101 18.2346 63.9069 18.2346C63.8038 18.2346 63.6997 18.2516 63.5965 18.2346C63.2909 18.1865 62.9758 18.143 62.6816 18.0344C62.3276 17.9089 61.9937 17.7337 61.6903 17.514C61.3904 17.2855 61.1172 17.0361 60.9052 16.7113C60.7696 16.4997 60.6225 16.2938 60.5136 16.0653C60.3816 15.8018 60.2899 15.5205 60.2414 15.2304C60.1975 14.9433 60.1536 14.6609 60.1478 14.3681C60.1478 14.2217 60.1918 14.08 60.1975 13.9393C60.2032 13.7929 60.2624 13.6626 60.2844 13.5275C60.3666 13.0496 60.6063 12.6435 60.8727 12.2582C61.1401 11.8615 61.4992 11.5423 61.9023 11.2816C62.2231 11.0757 62.5743 10.9202 62.9433 10.8208C63.1878 10.7499 63.4437 10.6904 63.7112 10.7169C63.8143 10.7339 63.9022 10.7235 63.9881 10.7235ZM65.8677 14.4918C65.9056 14.2487 65.8697 13.9998 65.7645 13.7769C65.5353 13.2725 65.1762 12.8702 64.6261 12.6813C64.2362 12.5416 63.8125 12.5225 63.4113 12.6265C62.9643 12.7408 62.6482 13.061 62.3607 13.3972C62.2557 13.5219 62.2079 13.6956 62.1363 13.8468C62.0599 14.0101 62.0933 14.2 62.0217 14.3681C62.0007 14.4115 62.0121 14.4767 62.0217 14.5305C62.0331 14.6014 62.0656 14.6769 62.0656 14.7478C62.0599 14.9272 62.142 15.0783 62.2022 15.236C62.2996 15.491 62.4581 15.6913 62.6539 15.8754C62.9977 16.206 63.4218 16.3533 63.8859 16.4015C64.0216 16.4185 64.1572 16.3911 64.2937 16.3637C64.4513 16.3363 64.5936 16.2825 64.7407 16.2286C65.0941 16.0926 65.3558 15.8537 65.5678 15.5449C65.6881 15.3711 65.7588 15.1482 65.8295 14.9433C65.8839 14.7912 65.8572 14.6391 65.8677 14.4928V14.4918ZM74.8614 18.1053H72.7317C72.7259 18.0448 72.7259 17.9853 72.7259 17.9258C72.7259 16.4289 72.7202 14.9319 72.7307 13.4303C72.7309 13.2146 72.6557 13.0055 72.5179 12.8383C72.38 12.6712 72.188 12.5563 71.9743 12.5132C71.6582 12.4584 71.5159 12.4376 71.2551 12.5179C71.1023 12.567 70.961 12.6539 70.8254 12.7351C70.7318 12.789 70.6563 12.8655 70.5742 12.9363C70.4978 13.0062 70.4271 13.0827 70.345 13.1583V18.0939H68.2696V10.8642H69.5399L69.9582 11.9437C70.089 11.8134 70.2151 11.6717 70.3564 11.5527C70.6716 11.2816 71.0154 11.0484 71.4127 10.902C71.7231 10.7886 72.0287 10.7065 72.3611 10.7178C72.4805 10.7225 72.5999 10.7178 72.7145 10.7178C72.9704 10.7225 73.2159 10.783 73.4556 10.8803C73.7994 11.0219 74.0821 11.2269 74.3104 11.5093C74.5453 11.7973 74.6924 12.1279 74.7898 12.4915C74.8719 12.789 74.8777 13.077 74.8777 13.3755V17.8446C74.8614 17.9315 74.8614 18.0136 74.8614 18.1053ZM59.549 24.7872V27.4222H58.5147V21.2285H60.8345C61.2548 21.2285 61.6406 21.3428 62.0169 21.527C62.3607 21.6951 62.5393 21.9888 62.6816 22.3137C62.7685 22.5092 62.8287 23.1269 62.7742 23.312C62.6864 23.6425 62.5832 23.9731 62.3158 24.212C62.1315 24.3801 61.93 24.5483 61.6683 24.5917C61.6406 24.5974 61.6196 24.6295 61.5919 24.6512C61.6683 24.8089 61.7495 24.961 61.8096 25.1234C61.8755 25.2859 61.9892 25.4219 62.0226 25.606C62.0389 25.6929 62.12 25.7685 62.1582 25.8554C62.2891 26.1378 62.4142 26.4305 62.5498 26.712C62.6644 26.9405 62.7685 27.1738 62.8774 27.4175H61.739C61.6139 27.119 61.4553 26.8206 61.3302 26.5014C61.2328 26.2511 61.0962 26.0131 60.9816 25.7685C60.9167 25.6278 60.8508 25.4918 60.7963 25.3454C60.7419 25.2103 60.6387 25.096 60.6225 24.944C60.6168 24.8901 60.5623 24.841 60.5241 24.7872H59.55H59.549ZM59.5548 23.9731H60.6225C60.7696 23.9731 60.9109 23.9684 61.058 23.9296C61.2977 23.8758 61.461 23.7351 61.5976 23.5453C61.717 23.3715 61.7008 23.1599 61.739 22.9644C61.7495 22.9106 61.7008 22.8511 61.695 22.7963C61.6683 22.4931 61.5269 22.2863 61.2376 22.1616C61.0662 22.0919 60.884 22.0517 60.6989 22.0426C60.3226 22.0105 59.9416 22.0323 59.5605 22.0323C59.5548 22.6877 59.5548 23.3224 59.5548 23.9731ZM70.4491 21.2285H72.5674C72.6495 21.2285 72.7307 21.2616 72.8071 21.272C73.2541 21.3475 73.6676 21.4949 74.0219 21.7876C74.1203 21.8689 74.2397 21.9388 74.3161 22.0426C74.4746 22.2542 74.638 22.4714 74.7249 22.7264C74.7631 22.8294 74.8232 22.921 74.8557 23.0239C74.8882 23.1221 74.8777 23.2355 74.9101 23.3337C75.0515 23.8106 74.9971 24.2989 74.9971 24.7872C74.9971 24.9289 74.9531 25.08 74.9207 25.2264C74.8882 25.3775 74.8605 25.5305 74.8175 25.6816C74.709 26.0379 74.5188 26.3647 74.2617 26.6364C74.0971 26.8084 73.9102 26.958 73.7058 27.0813C73.5435 27.1785 73.3572 27.2276 73.1719 27.2871C73.0144 27.3363 72.851 27.358 72.6925 27.3958C72.4967 27.4392 72.3067 27.4288 72.1157 27.4288C71.5598 27.4335 71.0097 27.4288 70.4491 27.4288V21.2285ZM71.4949 22.037V26.5826C71.8817 26.5552 72.2685 26.6308 72.6438 26.5278C72.7966 26.4844 72.9599 26.4466 73.1022 26.3654C73.2675 26.2632 73.413 26.1327 73.532 25.98C73.6343 25.8459 73.7133 25.6959 73.766 25.5361C73.8042 25.4219 73.8319 25.2906 73.8586 25.1725C73.8911 25.0526 73.8863 24.9175 73.9026 24.7929C73.935 24.6078 73.9188 24.4132 73.9073 24.2281C73.9026 24.0439 73.9513 23.8541 73.8644 23.6803C73.8863 23.4423 73.7985 23.2251 73.7173 23.0079C73.6027 22.6934 73.4069 22.4384 73.107 22.2806C73.0189 22.2287 72.9232 22.1904 72.8234 22.1673C72.7307 22.1456 72.6495 22.0804 72.5464 22.0918C72.4318 22.1078 72.3391 22.0483 72.2303 22.0426C71.9905 22.0323 71.7451 22.037 71.4949 22.037ZM51.9391 21.2342H52.9859V25.0148C52.9859 25.2594 53.0183 25.5088 53.0394 25.7524C53.0671 26.0452 53.2084 26.3163 53.4596 26.4957C53.5422 26.5582 53.6394 26.5992 53.7423 26.6147C53.9113 26.626 54.0746 26.6959 54.2437 26.6695C54.5159 26.6204 54.7881 26.5656 54.9953 26.355C55.1204 26.2246 55.1701 26.0622 55.2188 25.9045C55.2616 25.7492 55.28 25.5883 55.2732 25.4275C55.2675 24.1091 55.2732 22.7916 55.2732 21.4788V21.2399H56.3677V21.441C56.3677 22.547 56.363 23.6482 56.3735 24.7541C56.3792 25.0753 56.3248 25.3888 56.3133 25.7033C56.3014 25.9107 56.2536 26.1145 56.1719 26.3059C56.1011 26.4986 56.004 26.681 55.8835 26.848C55.6812 27.1155 55.3929 27.307 55.066 27.391C54.9084 27.4335 54.7556 27.51 54.5818 27.4826C54.3803 27.5695 54.1673 27.5374 53.961 27.5261C53.5245 27.5044 53.0995 27.4128 52.7404 27.1464C52.5656 27.0186 52.4221 26.8537 52.3202 26.6638C52.1789 26.4031 52.0595 26.1378 52.0375 25.8336C51.9506 25.6825 52.0155 25.5144 51.9888 25.3567C51.9019 24.9062 51.9563 24.4566 51.9449 24.0061C51.9344 23.5509 51.9449 23.09 51.9449 22.6339C51.9391 22.1673 51.9391 21.7121 51.9391 21.2342ZM64.7398 21.2342H68.433V22.0323H65.7798V23.7785H67.8618C67.8714 24.0496 67.8618 24.315 67.8666 24.586H65.7855V26.5769H68.6182V27.4288H64.7407L64.7398 21.2342ZM41.295 22.0266V23.7776H43.3704V24.586H41.296V26.5599C41.2903 26.5552 41.296 26.5599 41.3008 26.5656C41.3065 26.5713 41.3122 26.5769 41.3227 26.5769H44.0848V27.4175H40.2445V21.2399H43.9424V22.0256H41.295V22.0266ZM33.9421 26.8319C34.1054 26.5713 34.2572 26.338 34.4158 26.0943C34.5523 26.1642 34.6717 26.2294 34.7978 26.2945C34.9983 26.4079 35.2008 26.5004 35.4291 26.5439C35.5762 26.5713 35.7175 26.6251 35.8703 26.6251H36.3717C36.6659 26.6204 36.9161 26.5174 37.1176 26.3106C37.2265 26.2029 37.2762 26.0669 37.3086 25.9149C37.3411 25.7685 37.2867 25.6381 37.2924 25.5031C37.2972 25.4483 37.2485 25.3784 37.2045 25.3293C37.0135 25.1234 36.8187 24.9166 36.5131 24.8741C36.344 24.7438 36.131 24.7164 35.941 24.6512C35.7557 24.586 35.5704 24.5095 35.3861 24.4396C35.1662 24.3621 34.967 24.2362 34.8035 24.0713C34.6832 23.941 34.5361 23.8324 34.4492 23.6746C34.3949 23.5558 34.3456 23.4348 34.3012 23.312C34.2849 23.2298 34.2582 23.1486 34.2582 23.073C34.2582 22.9861 34.2305 22.9106 34.2142 22.8284C34.198 22.7746 34.2257 22.7094 34.2362 22.649C34.2419 22.6112 34.2582 22.5791 34.2582 22.5413C34.2419 22.2863 34.3728 22.0861 34.4874 21.8802C34.6717 21.5544 34.9878 21.3863 35.3145 21.2559C35.4892 21.1851 35.685 21.1313 35.8808 21.1369C35.9849 21.1369 36.0995 21.169 36.1969 21.0935C36.2189 21.0774 36.2628 21.0774 36.2896 21.0935C36.4367 21.1747 36.5952 21.1199 36.748 21.1416C37.0469 21.1851 37.3516 21.2125 37.6353 21.3485C37.7604 21.408 37.8969 21.4514 38.0106 21.5213C37.875 21.7933 37.7441 22.053 37.619 22.308C37.3249 22.1947 37.0412 22.0691 36.7146 22.0256C36.5236 21.9992 36.3278 22.0039 36.1377 21.9879C35.9525 21.9718 35.7719 22.037 35.6086 22.0965C35.3746 22.1777 35.2438 22.3893 35.2056 22.6282C35.1512 22.9748 35.3097 23.2194 35.5972 23.4149C35.8378 23.5774 36.1043 23.6482 36.366 23.7398C36.6983 23.8598 37.0364 23.9627 37.3468 24.1195C37.4777 24.1903 37.6028 24.2772 37.7174 24.3688C37.8702 24.4944 37.9896 24.6408 38.0985 24.7976C38.2016 24.9393 38.2341 25.1064 38.2837 25.2641C38.3267 25.4209 38.3219 25.5947 38.3382 25.7628C38.3456 25.8538 38.3305 25.9452 38.2942 26.0291C38.2618 26.099 38.2942 26.1859 38.2513 26.2728C38.2131 26.3484 38.1854 26.4353 38.1472 26.5118C38.109 26.5816 38.0985 26.6742 38.0498 26.729C37.9027 26.8858 37.7718 27.0652 37.5751 27.1681C37.4605 27.2333 37.3363 27.2768 37.2217 27.3419C37.1014 27.4061 36.9543 27.3901 36.8454 27.4656C36.8424 27.4684 36.8385 27.4699 36.8344 27.4699C36.8304 27.4699 36.8265 27.4684 36.8235 27.4656C36.6611 27.4335 36.5083 27.5204 36.344 27.5148C36.1759 27.51 36.0069 27.5421 35.8483 27.5044C35.6745 27.4666 35.4892 27.4666 35.3145 27.4175C35.1521 27.374 34.9878 27.3306 34.8245 27.2758C34.58 27.1949 34.3475 27.0822 34.1331 26.9405C34.0729 26.9188 34.0185 26.8801 33.9421 26.8319ZM59.0476 39.2249C59.2004 39.0294 59.3914 38.9 59.5872 38.781C59.6786 38.7204 59.7828 38.6813 59.8919 38.6668C60.0772 38.6611 60.2567 38.5204 60.442 38.645C60.6234 38.637 60.8027 38.6863 60.9539 38.7858C61.1507 38.9048 61.3837 39.1654 61.4505 39.3609C61.5155 39.5555 61.548 39.751 61.548 39.9625C61.5422 40.7493 61.5422 41.536 61.5422 42.3331H60.6922C60.6922 42.284 60.6875 42.2245 60.6875 42.165C60.6875 41.4925 60.6817 40.8248 60.6875 40.1533C60.6875 39.9625 60.611 39.8058 60.5241 39.6528C60.4363 39.5016 60.2682 39.4365 60.1039 39.4148C59.8375 39.377 59.5815 39.4421 59.4067 39.6698C59.3298 39.7705 59.2775 39.8876 59.2539 40.0116C59.1775 40.3583 59.2224 40.7105 59.2157 41.0581C59.2062 41.4812 59.2157 41.91 59.2157 42.3378H58.3667C58.3667 42.2896 58.3609 42.2301 58.3609 42.1697V40.2071C58.3559 40.0512 58.3188 39.898 58.2521 39.7566C58.1651 39.5451 57.9799 39.4525 57.7783 39.4204C57.5109 39.377 57.2607 39.4478 57.0812 39.6754C57.0011 39.7744 56.9485 39.8922 56.9283 40.0173C56.8357 40.5434 56.9064 41.0751 56.8854 41.6059C56.8739 41.8505 56.8854 42.0941 56.8854 42.3435H56.0516C56.0191 42.148 56.0029 39.5234 56.0354 38.7149H56.8739V39.2089C56.978 39.105 57.0487 39.0294 57.1251 38.9595C57.3046 38.7971 57.4957 38.6554 57.7564 38.6554C57.8108 38.6554 57.871 38.6176 57.9254 38.612C58.0018 38.6016 58.4049 38.6932 58.4918 38.7319C58.743 38.8131 58.9005 38.9964 59.0476 39.2249ZM50.114 21.8311C49.8915 22.0861 49.6948 22.3137 49.499 22.5413C49.4121 22.4761 49.308 22.4166 49.2268 22.3354C49.0797 22.189 48.883 22.1295 48.6986 22.053C48.6604 22.037 48.606 22.037 48.5621 22.037C48.393 22.037 48.2297 22.0313 48.0607 22.037C47.8271 22.0487 47.6045 22.1387 47.4294 22.292C47.1237 22.5356 46.9662 22.8719 46.8898 23.2515C46.8516 23.4527 46.8248 23.6529 46.7866 23.8484C46.7403 24.1153 46.729 24.3871 46.7532 24.6569C46.7809 25.0309 46.8134 25.4162 46.9824 25.7685C47.0531 25.9149 47.119 26.0669 47.2326 26.1859C47.4561 26.4088 47.7121 26.5713 48.0387 26.5826C48.1266 26.5873 48.2077 26.6421 48.3061 26.626C48.6213 26.5769 48.9383 26.5174 49.1943 26.3002L49.5859 25.9744C49.6842 26.0726 49.7931 26.1699 49.8915 26.2841C49.9889 26.3928 50.071 26.5061 50.1742 26.6364C50.0049 26.8692 49.7854 27.0618 49.5314 27.2003C49.4226 27.2598 49.3137 27.3249 49.2048 27.3797C49.0959 27.4288 48.9756 27.4553 48.8667 27.4723C48.5764 27.5271 48.2804 27.5471 47.9852 27.5318C47.8811 27.4496 47.756 27.51 47.6471 27.477C47.544 27.4449 47.4399 27.4061 47.331 27.3797C47.1904 27.3372 47.0566 27.2752 46.9337 27.1955C46.7541 27.0813 46.5689 26.9726 46.4275 26.8102C46.1654 26.5065 45.9671 26.1544 45.844 25.7741C45.7733 25.5569 45.7351 25.3293 45.6864 25.1017C45.6367 24.8467 45.6644 24.5917 45.6482 24.3367C45.6373 24.1707 45.6373 24.0041 45.6482 23.838C45.6644 23.6104 45.7189 23.3819 45.7676 23.1599C45.83 22.881 45.9329 22.6125 46.0732 22.3628C46.2642 22.0266 46.4972 21.7281 46.8353 21.5109C47.1123 21.3315 47.4236 21.2455 47.7283 21.1426C47.7722 21.1256 47.8209 21.1426 47.8706 21.1426C48.0826 21.1426 48.3004 21.1369 48.5133 21.1426C48.9887 21.1454 49.4478 21.3144 49.8094 21.6195C49.9182 21.6847 50.0099 21.7499 50.114 21.8311ZM15.3614 42.3378H14.7951C14.6595 42.3378 14.6595 42.3331 14.6155 42.1914C14.5449 41.9855 14.4522 41.7853 14.3978 41.5738C14.3157 41.2432 14.1905 40.9334 14.0922 40.6133C14.0444 40.4451 13.968 40.2827 13.9298 40.1146C13.82 39.6698 13.6299 39.257 13.521 38.8131C13.5153 38.7961 13.4933 38.7801 13.4666 38.7527H14.3051C14.4465 39.1116 14.5229 39.496 14.6537 39.87C14.7349 40.1193 14.8008 40.3743 14.8772 40.6293C14.9259 40.7974 14.9699 40.9712 15.0243 41.161C15.051 41.145 15.0892 41.1289 15.095 41.1072C15.2039 40.6246 15.4054 40.1741 15.5362 39.7019C15.6174 39.4204 15.7158 39.1494 15.8084 38.867C15.8246 38.8131 15.8466 38.7584 15.8686 38.6875H16.4349C16.5161 38.6875 16.5495 38.7253 16.5715 38.8075C16.7128 39.2514 16.8599 39.6962 17.007 40.141C17.0996 40.4178 17.1923 40.6945 17.284 40.9769C17.3012 41.0307 17.3222 41.0855 17.3508 41.1724C17.4158 41.009 17.4864 40.8796 17.5189 40.7379C17.5628 40.5046 17.644 40.2827 17.7147 40.0598C17.8026 39.7888 17.8732 39.512 17.9544 39.2353C18.0041 39.0729 18.0528 38.9161 18.1072 38.748H18.9076C18.8101 39.0568 18.7337 39.36 18.6191 39.6537C18.5045 39.9521 18.4339 40.2553 18.3364 40.5538C18.2381 40.8465 18.134 41.1336 18.0423 41.4274L17.7424 42.3331H17.029C16.7616 41.519 16.4941 40.7058 16.2229 39.8917C16.114 39.9078 16.1895 40.0494 16.1083 40.0976C16.0157 40.4773 15.8571 40.8305 15.7549 41.2045C15.6613 41.5303 15.5525 41.8448 15.4436 42.165C15.3996 42.2188 15.3834 42.2726 15.3614 42.3378ZM50.6861 38.7366C50.4103 38.5215 50.0937 38.3632 49.7549 38.271C49.6566 38.2427 49.5477 38.2427 49.4445 38.2276C49.3194 38.2106 49.1771 38.2493 49.0463 38.2871C48.9063 38.3317 48.7843 38.419 48.6977 38.5364C48.6598 38.635 48.6414 38.7398 48.6432 38.8453L48.6604 38.9321C48.6872 39.0625 48.7464 39.1494 48.8725 39.2249C49.1112 39.3666 49.3739 39.4365 49.6403 39.496C50.0653 39.5999 50.4789 39.7189 50.8437 39.9739C51.0949 40.1467 51.2477 40.38 51.2744 40.6784C51.2849 40.771 51.3508 40.8418 51.3289 40.9448C51.2964 41.0751 51.2907 41.2101 51.2582 41.3405C51.22 41.4821 51.176 41.6276 51.0891 41.7419C50.9917 41.8665 50.8886 41.9969 50.7568 42.0724C50.5513 42.2019 50.3248 42.2955 50.0873 42.3491C49.7989 42.4039 49.5095 42.3822 49.2268 42.3822C49.0081 42.3822 48.796 42.3114 48.6003 42.2349C48.224 42.0894 47.8591 41.91 47.5755 41.6059C47.7398 41.4056 47.9031 41.2045 48.0769 40.9986C48.2182 41.0968 48.3605 41.1828 48.4857 41.2866C48.6767 41.4378 48.9154 41.4708 49.1227 41.5794C49.1341 41.5841 49.1561 41.5794 49.1723 41.5794C49.2812 41.5794 49.3844 41.6011 49.4875 41.6172C49.7607 41.655 50.0223 41.5577 50.2611 41.433C50.3318 41.3953 50.3537 41.3027 50.3814 41.2262C50.5008 40.9391 50.4034 40.7068 50.1799 40.5811C50.0219 40.5015 49.8553 40.4397 49.6833 40.397C49.4493 40.3261 49.2153 40.2723 48.9813 40.2071C48.7196 40.1316 48.4637 40.039 48.2402 39.8766C48.0396 39.7293 47.8811 39.5508 47.8152 39.3118C47.7132 38.9675 47.7386 38.5985 47.8868 38.271C48.0038 38.0246 48.1985 37.8224 48.4417 37.6949C48.7196 37.5495 49.0033 37.4465 49.3194 37.4626C49.4226 37.4683 49.5257 37.4569 49.6298 37.4626C49.9507 37.4843 50.2611 37.5438 50.5562 37.6959C50.7081 37.7714 50.8609 37.8423 51.0022 37.9348C51.0404 37.9613 51.0786 37.9886 51.1111 38.0208C51.1598 38.0755 51.155 38.1246 51.1111 38.1841C50.9583 38.3636 50.8275 38.5421 50.6861 38.7366ZM38.1042 37.3757V39.2844L38.3983 38.9916C38.5454 38.8453 38.7737 38.7527 38.9867 38.6875C39.1548 38.6337 39.3238 38.6337 39.4928 38.6498C39.7488 38.6828 39.9942 38.7744 40.212 38.9161C40.5768 39.1494 40.7889 39.4903 40.9149 39.8974C40.9417 39.9899 40.9531 40.0711 40.9579 40.1628C40.9694 40.2988 41.0238 40.4291 41.0066 40.5698C40.9809 40.7777 40.9446 40.9842 40.8977 41.1884C40.85 41.3886 40.7401 41.5681 40.6255 41.7362C40.5224 41.8779 40.3963 42.0073 40.234 42.0941C40.0812 42.1697 39.9503 42.2736 39.7708 42.2944C39.6342 42.3161 39.4928 42.3813 39.3563 42.3765C39.0092 42.3738 38.6732 42.255 38.4031 42.0394C38.3017 41.9556 38.2118 41.8591 38.1357 41.7523C38.0975 41.8448 38.1204 41.926 38.1147 42.0073C38.109 42.0941 38.1147 42.181 38.1147 42.2726H37.3306C37.2924 42.0838 37.2762 38.3192 37.3144 37.37C37.5589 37.3757 37.8205 37.3757 38.1042 37.3757ZM40.1518 40.5868C40.1461 40.3639 40.1681 40.2062 40.1031 40.0485C39.9885 39.7727 39.8195 39.5451 39.5301 39.4204C39.3782 39.3543 39.2207 39.3496 39.0621 39.3496C38.703 39.3553 38.4528 39.5498 38.2503 39.8218C38.1911 39.903 38.1204 40.0013 38.1147 40.0929C38.0985 40.3205 38.0335 40.5424 38.0985 40.787C38.1911 41.1393 38.3659 41.4 38.6763 41.5738C38.915 41.7088 39.2971 41.7201 39.5473 41.5841C39.7488 41.4755 39.9178 41.3509 40.021 41.1289C40.1089 40.9334 40.1623 40.7445 40.1518 40.5868ZM33.3375 39.257V37.3757C33.4741 37.37 33.6097 37.3757 33.7405 37.37H34.1493V42.2783H33.3432V41.7201C33.0873 42.045 32.7989 42.2896 32.3786 42.3435C32.2755 42.3595 32.1666 42.3973 32.0635 42.3813C31.861 42.3435 31.649 42.3274 31.458 42.2349C31.2287 42.1215 31.0167 41.9799 30.8649 41.7796C30.6991 41.5699 30.5853 41.3247 30.5325 41.0638C30.4991 40.89 30.4504 40.7115 30.4456 40.532C30.4453 40.3063 30.4781 40.0817 30.543 39.8653C30.5983 39.6586 30.6947 39.465 30.8267 39.2958C31.0272 39.0408 31.2622 38.8235 31.584 38.7423C31.7636 38.6932 31.9431 38.6337 32.1389 38.6441C32.4388 38.6554 32.7215 38.7423 32.9784 38.9208C33.0433 38.9699 33.114 39.019 33.1742 39.0729C33.2344 39.1267 33.2831 39.1928 33.3375 39.257ZM32.2048 41.6767C32.6241 41.6767 32.9068 41.552 33.1245 41.297C33.1993 41.2149 33.2568 41.1189 33.2936 41.0146C33.3432 40.8683 33.3652 40.7105 33.3919 40.5594C33.4187 40.4291 33.3757 40.2988 33.3432 40.1798C33.2554 39.8653 33.0816 39.6103 32.7874 39.4525C32.6241 39.3656 32.4436 39.3553 32.2592 39.3553C31.9489 39.3553 31.6003 39.5989 31.4417 39.8483C31.3328 40.022 31.3271 40.2119 31.2622 40.3913C31.2297 40.4829 31.2841 40.5972 31.2946 40.7001C31.3109 40.9004 31.3873 41.0685 31.4914 41.2375C31.6824 41.5246 31.9536 41.655 32.2048 41.6767ZM5.62846 41.7353V43.3691H4.82812V38.7366C4.94751 38.731 5.07835 38.7366 5.21492 38.7366H5.63419V39.3279C5.71537 39.224 5.76981 39.1437 5.83475 39.0785C6.03723 38.867 6.28268 38.748 6.57683 38.6771C6.73919 38.6394 6.90346 38.6176 7.05532 38.6498C7.24633 38.6875 7.44211 38.7206 7.62262 38.8292C8.05239 39.0889 8.27015 39.3486 8.43919 39.8379C8.54807 40.1524 8.5538 40.4725 8.52133 40.7918C8.49616 41.0489 8.41816 41.2983 8.29211 41.5246C8.16783 41.738 8.00117 41.9244 7.80217 42.0724C7.64936 42.1914 7.45835 42.2783 7.26734 42.3218C7.10975 42.3539 6.94166 42.4256 6.76689 42.3813C6.6093 42.3435 6.44026 42.3378 6.29318 42.2623C6.12676 42.1911 5.97519 42.0899 5.84621 41.9638C5.77116 41.8903 5.69854 41.8144 5.62846 41.7362V41.7353ZM5.63419 40.499C5.6065 40.7058 5.63419 40.9004 5.7211 41.0845C5.79178 41.2205 5.91211 41.3235 6.02099 41.4321C6.13189 41.5427 6.27061 41.6221 6.42287 41.6622C6.57512 41.7022 6.73541 41.7013 6.88723 41.6597C7.3065 41.5568 7.57869 41.2423 7.67037 40.8248C7.74678 40.4829 7.72004 40.2119 7.56818 39.9087C7.44211 39.6537 7.05054 39.3005 6.66374 39.3553C6.63127 39.36 6.59784 39.3553 6.5711 39.3553C6.26548 39.3383 6.04296 39.5064 5.86818 39.7132C5.69436 39.9304 5.56829 40.2015 5.63419 40.499ZM65.6327 42.3331H64.778V41.9364C64.7302 41.8986 64.7235 41.9534 64.7016 41.9648C64.682 41.9764 64.6656 41.9927 64.6538 42.012C64.5115 42.1971 64.3042 42.2623 64.1027 42.3435C63.9878 42.3844 63.8651 42.3993 63.7436 42.3869C63.5583 42.3765 63.3788 42.4086 63.1935 42.3491C63.0025 42.2896 62.8287 42.2245 62.6873 42.0838C62.6319 42.029 62.5727 41.9751 62.5183 41.9156C62.4801 41.8722 62.4362 41.8231 62.4199 41.7683C62.354 41.5794 62.2671 41.3839 62.311 41.1771C62.3598 40.9278 62.3922 40.6728 62.6167 40.4999C62.6978 40.4404 62.758 40.3639 62.8392 40.3044C62.9863 40.1958 63.1496 40.1684 63.3129 40.1203C63.6128 40.0277 63.9174 40.0711 64.2173 40.0825C64.3969 40.0872 64.5764 40.158 64.7569 40.1958C64.787 40.0355 64.7533 39.8699 64.663 39.7335C64.5726 39.5972 64.4324 39.5006 64.2718 39.4639C64.119 39.4261 63.9566 39.377 63.7923 39.4091C63.5536 39.4639 63.3024 39.4695 63.0732 39.5668C63.0464 39.5772 63.0187 39.5942 62.992 39.5989C62.8659 39.632 62.8774 39.6273 62.823 39.5073C62.744 39.3358 62.6801 39.1579 62.6319 38.9756C62.9376 38.7914 63.2527 38.7527 63.4657 38.6989C63.7541 38.6233 64.0435 38.645 64.3262 38.6668C64.6099 38.6885 64.8926 38.7744 65.1218 38.9756C65.2526 39.0889 65.351 39.2193 65.4541 39.3553C65.5248 39.4525 65.5353 39.5725 65.5783 39.6801C65.628 39.8218 65.6337 39.9786 65.6337 40.1306C65.6394 40.8522 65.6327 41.5851 65.6327 42.3331ZM63.8687 41.7192H64.0321C64.3644 41.7145 64.5764 41.5303 64.735 41.2593C64.7509 41.2358 64.7638 41.2104 64.7732 41.1837C64.778 41.0798 64.778 40.9769 64.7732 40.8796C64.7732 40.8465 64.7407 40.804 64.713 40.787C64.6532 40.7567 64.5886 40.7366 64.522 40.7275C64.3042 40.7219 64.097 40.6624 63.8793 40.6728C63.6882 40.6784 63.5259 40.7436 63.3731 40.8305C63.3044 40.8723 63.2485 40.9316 63.2111 41.0023C63.1738 41.0729 63.1565 41.1523 63.161 41.2319C63.1637 41.3132 63.187 41.3925 63.2287 41.4627C63.2704 41.5328 63.3292 41.5914 63.3998 41.6333C63.5584 41.7258 63.7112 41.7249 63.8687 41.7192ZM74.2445 40.8248C74.2177 41.026 74.3323 41.1667 74.4192 41.3074C74.5339 41.4869 74.7249 41.5794 74.9092 41.6606C74.9417 41.6767 74.9856 41.6767 75.0181 41.6767H75.3285C75.6226 41.6824 75.8681 41.5634 76.0801 41.3726C76.2004 41.2649 76.2167 41.2649 76.3255 41.3679C76.4507 41.4812 76.5815 41.5898 76.7123 41.6984C76.6904 41.7957 76.6035 41.8335 76.549 41.8939C76.4507 41.9969 76.3198 42.0668 76.2052 42.1489C76.0476 42.2679 75.8518 42.284 75.6828 42.3756C75.6446 42.3983 75.5901 42.3756 75.5414 42.3813C75.4593 42.3926 75.3667 42.3491 75.296 42.4247C75.2855 42.436 75.253 42.4304 75.2253 42.4247C74.849 42.3765 74.4794 42.317 74.1518 42.0885C73.8648 41.9003 73.6426 41.6302 73.5148 41.314C73.4499 41.145 73.3735 40.9882 73.3735 40.804C73.3735 40.7058 73.3238 40.6189 73.3238 40.516C73.3238 40.4074 73.3735 40.3044 73.3677 40.2071C73.362 40.1033 73.4059 40.0116 73.4279 39.9191C73.4499 39.8218 73.4986 39.7302 73.5425 39.6376C73.5807 39.5508 73.6075 39.4525 73.6667 39.3826C73.7488 39.2788 73.8634 39.1985 73.9455 39.0946C74.1461 38.8349 74.4517 38.7584 74.7354 38.6507C74.871 38.6016 75.0343 38.5903 75.1871 38.6016C75.3504 38.612 75.5137 38.645 75.6723 38.6932C75.8194 38.7366 75.9712 38.7971 76.0915 38.883C76.2491 39.003 76.3905 39.155 76.5213 39.3061C76.614 39.41 76.6684 39.5394 76.7228 39.6698C76.7725 39.7888 76.8212 39.9191 76.8489 40.0381C76.8919 40.2393 76.8919 40.4508 76.9034 40.6567C76.9081 40.787 76.8757 40.8144 76.74 40.8144C75.912 40.8248 75.0887 40.8248 74.2445 40.8248ZM75.9989 40.2506C76.0026 40.0244 75.9232 39.8046 75.7754 39.632C75.5844 39.393 75.3285 39.3392 75.0343 39.3553C74.9326 39.3571 74.8324 39.3803 74.7403 39.4233C74.6483 39.4663 74.5665 39.5281 74.5004 39.6046C74.3428 39.784 74.2282 39.9899 74.2445 40.2506H75.9989ZM69.9143 42.3378H69.1741C69.0432 42.3378 69.0108 42.3114 69.0108 42.1754V40.1203C69.0108 40.0381 68.9888 39.9569 68.9668 39.8756C68.8904 39.5725 68.6077 39.4365 68.3728 39.4034C68.1665 39.377 67.986 39.4525 67.8169 39.5451C67.6594 39.6263 67.5944 39.7831 67.54 39.9418C67.5069 40.0336 67.4901 40.1304 67.4903 40.2279C67.496 40.8683 67.4903 41.5029 67.4903 42.1433V42.3321H66.646V38.6989H67.4903V39.1928C67.6049 39.0785 67.6813 38.986 67.7797 38.9095C67.9478 38.7697 68.1226 38.6498 68.3566 38.645C68.411 38.645 68.4712 38.6016 68.5256 38.6016C68.771 38.6176 69.0213 38.6337 69.2448 38.7584C69.5198 38.9105 69.726 39.1603 69.8216 39.4573C69.8818 39.6367 69.92 39.8161 69.92 40.0116V42.1867C69.9142 42.2349 69.9143 42.2783 69.9143 42.3378ZM55.3707 38.6989C55.3601 38.7527 55.3544 38.7961 55.3325 38.8349C55.2178 39.0946 55.1319 39.3666 55.0221 39.632C54.9294 39.8539 54.8425 40.0759 54.7604 40.3044C54.6954 40.4839 54.6133 40.651 54.5541 40.8361C54.4939 41.0099 54.4175 41.1724 54.3573 41.3461C54.2762 41.5898 54.1721 41.8231 54.0746 42.0564C54.0087 42.2131 53.9323 42.3605 53.8894 42.5229C53.8303 42.6991 53.738 42.8625 53.6172 43.0046C53.5513 43.0924 53.4701 43.168 53.388 43.2445C53.2409 43.3795 53.0671 43.4013 52.8923 43.4286C52.7777 43.4447 52.6535 43.4286 52.5389 43.4343C52.3861 43.439 52.2438 43.3739 52.1025 43.3361C52.0805 43.3314 52.07 43.2983 52.048 43.2926C51.8522 43.2171 51.8475 43.2114 51.9334 43.0329C52.005 42.8809 52.0757 42.7288 52.1407 42.5824C52.2772 42.6315 52.3966 42.6797 52.5227 42.7241C52.6421 42.7619 52.7614 42.7128 52.8541 42.6693C52.9178 42.6396 52.9743 42.5965 53.0195 42.543C53.0647 42.4895 53.0975 42.4269 53.1158 42.3595C53.132 42.284 53.0833 42.1914 53.0451 42.1102C52.9362 41.8552 52.8054 41.6115 52.7127 41.3452C52.6096 41.0364 52.4453 40.7493 52.3479 40.4291C52.3097 40.3101 52.239 40.1901 52.1846 40.0711C52.0041 39.6594 51.857 39.2306 51.6498 38.8245C51.6345 38.7914 51.645 38.748 51.6402 38.7045H52.5332C52.8598 39.5555 53.1922 40.4074 53.536 41.3018C53.6984 41.0043 53.7528 40.7115 53.8617 40.4348C53.9763 40.1467 54.0584 39.8539 54.1616 39.5659C54.2599 39.2844 54.3631 39.003 54.4719 38.7102C54.7604 38.6989 55.0498 38.6989 55.3707 38.6989ZM13.0416 40.4999C13.0846 40.8843 12.9375 41.2215 12.7522 41.536C12.6244 41.7427 12.4514 41.9186 12.246 42.0507C12.0655 42.1765 11.8622 42.2669 11.6472 42.317C11.3741 42.3652 11.0914 42.4634 10.8135 42.3388C10.3722 42.3057 10.0131 42.0941 9.71324 41.7853C9.49467 41.5505 9.34422 41.2618 9.27773 40.9495C9.22363 40.7147 9.21263 40.4722 9.24526 40.2336C9.28824 39.9304 9.41335 39.648 9.59863 39.3883C9.76195 39.155 9.98065 39.0086 10.2146 38.8783C10.3885 38.7801 10.5737 38.7206 10.7753 38.6885C10.9118 38.6601 11.0475 38.645 11.184 38.6507C11.7399 38.6828 12.225 38.8679 12.6061 39.2844C12.7685 39.4639 12.9213 39.8218 12.9919 40.0494C13.0464 40.2005 13.0301 40.3479 13.0416 40.4999ZM12.2298 40.5434C12.2298 40.4508 12.2623 40.3261 12.2241 40.2289C12.1209 39.9521 12.0121 39.6641 11.7122 39.5234C11.6472 39.4913 11.5871 39.4195 11.5212 39.41C11.3798 39.393 11.2385 39.3496 11.0914 39.3496C10.6616 39.3553 10.3722 39.5829 10.1707 39.9248C9.98543 40.2393 9.98543 40.6029 10.1 40.9391C10.2194 41.2857 10.4706 41.552 10.8517 41.6493C10.9605 41.6767 11.0809 41.671 11.1955 41.6767C11.5871 41.6984 11.9194 41.4056 12.0885 41.1393C12.2053 40.9634 12.2554 40.7523 12.2298 40.5434ZM29.7857 40.7757H27.122C27.0895 40.9655 27.1764 41.1289 27.2634 41.2583C27.4601 41.5303 27.7218 41.7305 28.0866 41.7201C28.1898 41.7201 28.2929 41.7249 28.397 41.7145C28.4619 41.7088 28.5212 41.6767 28.5823 41.655C28.7886 41.5794 28.9576 41.4434 29.1372 41.3074C29.2842 41.4321 29.4371 41.5681 29.6004 41.7088C29.4858 41.8769 29.3387 42.0073 29.1591 42.0941C29.0121 42.1697 28.8707 42.2736 28.6959 42.3C28.6749 42.3057 28.6577 42.3331 28.6415 42.3331C28.4237 42.3331 28.2175 42.419 27.9987 42.3813C27.6396 42.3218 27.2968 42.2301 26.9912 42.0073C26.7849 41.8561 26.654 41.6606 26.5175 41.4651C26.4363 41.3452 26.4028 41.1828 26.3599 41.0364C26.272 40.754 26.2882 40.4612 26.3217 40.1845C26.3541 39.903 26.4793 39.6367 26.6321 39.393C26.8498 39.0568 27.1545 38.8453 27.5365 38.7206C27.6454 38.6875 27.7542 38.6658 27.8631 38.6498C28.1898 38.5959 28.5116 38.6875 28.822 38.7961C28.9125 38.8311 28.9955 38.8827 29.0665 38.9482C29.3769 39.2249 29.6328 39.5338 29.693 39.9682C29.7971 40.0815 29.715 40.2279 29.7637 40.3639C29.8076 40.4773 29.7799 40.6246 29.7857 40.7757ZM27.1115 40.2449H28.9796C28.9595 40.0291 28.8846 39.8219 28.7618 39.6424C28.7043 39.5579 28.6303 39.4857 28.5442 39.4299C28.4582 39.3742 28.3617 39.3359 28.2604 39.3175C28.0427 39.274 27.8087 39.2844 27.5957 39.4204C27.2853 39.615 27.1497 39.8926 27.1115 40.2449ZM22.8414 40.7766H20.194C20.1224 40.9825 20.2485 41.1403 20.3411 41.2753C20.4649 41.4698 20.6566 41.6126 20.8798 41.6767C21.1414 41.7475 21.3917 41.7362 21.6428 41.655C21.7899 41.6059 22.0621 41.4274 22.1977 41.3027C22.3563 41.4378 22.5091 41.5738 22.6667 41.7088C22.4651 42.0016 22.1605 42.1272 21.8768 42.2793C21.8109 42.3114 21.7192 42.2679 21.6639 42.3331C21.5607 42.3057 21.4728 42.3765 21.3754 42.3822C21.2666 42.3869 21.1519 42.3983 21.0431 42.3822C20.684 42.3161 20.3239 42.2519 20.0469 41.9855C19.8015 41.8826 19.7089 41.6446 19.5723 41.4491C19.4911 41.3358 19.4691 41.178 19.4252 41.0364C19.344 40.7549 19.3775 40.4669 19.3822 40.1798C19.3822 40.0608 19.4309 39.9361 19.4749 39.8161C19.6869 39.274 20.0469 38.8783 20.6181 38.7102C20.7546 38.6724 20.896 38.6233 21.0431 38.6394C21.1796 38.6554 21.3105 38.612 21.4576 38.6771C21.5607 38.7206 21.681 38.7584 21.7947 38.7754C21.9418 38.7971 22.0459 38.883 22.1433 38.9643C22.4164 39.1871 22.6285 39.4582 22.7211 39.8114C22.7536 39.9408 22.8023 40.0664 22.808 40.2015C22.8137 40.2884 22.8462 40.3753 22.8519 40.4669C22.8452 40.57 22.8417 40.6733 22.8414 40.7766ZM22.0344 40.2449C22.0182 40.141 22.0239 40.039 21.98 39.9578C21.9255 39.8539 21.8711 39.7463 21.8004 39.6537C21.6533 39.4582 21.4136 39.3071 21.1796 39.3118C21.0708 39.3118 20.9562 39.3014 20.853 39.3279C20.7289 39.365 20.614 39.4272 20.5154 39.5104C20.4167 39.5936 20.3366 39.6961 20.28 39.8114C20.215 39.9408 20.1281 40.0929 20.194 40.2506C20.8034 40.2449 21.4136 40.2449 22.0344 40.2449ZM41.5844 43.1784C41.6713 42.9895 41.7535 42.8044 41.8346 42.6202C41.8566 42.6202 41.8891 42.6089 41.9053 42.6202C42.0476 42.7241 42.2052 42.7128 42.3685 42.7128C42.5595 42.7128 42.6837 42.6259 42.7601 42.4578C42.7887 42.3983 42.8269 42.3444 42.8585 42.2896C42.7668 42.0941 42.7009 41.8883 42.6082 41.6984C42.4936 41.4595 42.3962 41.2158 42.2978 40.9769C42.1598 40.6555 42.0273 40.3318 41.9005 40.006C41.8144 39.7739 41.7179 39.5457 41.6112 39.3222C41.5252 39.138 41.4641 38.9425 41.3724 38.748H42.2272C42.5538 39.6046 42.8862 40.4725 43.273 41.3348C43.3436 41.1506 43.42 40.9665 43.4802 40.7757C43.5834 40.4178 43.7304 40.0768 43.845 39.7236C43.9425 39.4308 44.0523 39.1437 44.144 38.8556C44.1717 38.7801 44.1994 38.7366 44.2863 38.7366H45.0102C44.9997 38.7961 44.9997 38.8405 44.9777 38.8783C44.8526 39.1333 44.7762 39.4091 44.6673 39.6754C44.5747 39.9134 44.4763 40.1476 44.3837 40.3856C44.2863 40.635 44.1994 40.8956 44.0953 41.1393C43.9969 41.3839 43.9042 41.6276 43.8126 41.8722C43.7524 42.0346 43.6817 42.1971 43.6216 42.3595C43.5357 42.6099 43.4086 42.8444 43.2453 43.0537C43.0924 43.2435 42.8862 43.3748 42.6187 43.3748C42.5643 43.3748 42.5041 43.422 42.4507 43.4173C42.167 43.3691 41.8681 43.3739 41.6169 43.2001C41.6045 43.1955 41.5934 43.188 41.5844 43.1784ZM80.8525 39.2419L80.2909 39.7991C80.1983 39.7236 80.0846 39.6206 79.9586 39.5347C79.8443 39.4485 79.705 39.4008 79.5613 39.3987H79.2509C79.1603 39.3964 79.0703 39.4131 78.9867 39.4476C78.9031 39.4821 78.8278 39.5337 78.7657 39.5989C78.695 39.6745 78.6244 39.7453 78.5651 39.8265C78.4351 40.0113 78.3664 40.2314 78.3684 40.4565C78.3741 40.6454 78.3741 40.8305 78.461 41.009C78.5422 41.1828 78.695 41.3679 78.8641 41.4812C79.0331 41.5945 79.2079 41.638 79.4037 41.6172C79.5231 41.6059 79.6425 41.6219 79.7685 41.5841C79.9481 41.5303 80.0894 41.4274 80.226 41.3074C80.2699 41.2696 80.3024 41.2319 80.3406 41.1941C80.5087 41.3622 80.6777 41.5246 80.8525 41.7041C80.7379 41.8665 80.5908 42.0016 80.4227 42.1045C80.1821 42.2566 79.9261 42.3756 79.6319 42.3756C79.589 42.3756 79.545 42.3756 79.5011 42.4039C79.4467 42.4304 79.3435 42.4464 79.3005 42.4134C79.2289 42.3652 79.164 42.3813 79.0981 42.3756C78.9625 42.3756 78.8373 42.3161 78.7113 42.284C78.4439 42.2188 78.2653 42.0233 78.0475 41.8826C77.9329 41.6767 77.7257 41.535 77.655 41.2857C77.5999 41.1013 77.5508 40.9151 77.5079 40.7275C77.4697 40.5594 77.5022 40.4064 77.5079 40.2449C77.5184 40.0815 77.5843 39.9408 77.6225 39.7888C77.6662 39.6317 77.7463 39.4868 77.8565 39.3656C78.0303 39.1815 78.1889 38.9813 78.4286 38.8613C78.739 38.7045 78.8154 38.6771 79.164 38.6233C79.2614 38.6063 79.3598 38.5685 79.4524 38.5855C79.7523 38.628 80.0569 38.6611 80.3291 38.8179C80.5259 38.9425 80.6997 39.0795 80.8525 39.2419ZM71.8645 38.6941H72.7202C72.8233 38.6941 72.8616 38.7319 72.8616 38.8292C72.8673 38.986 72.8616 39.1437 72.8616 39.3014C72.8616 39.4148 72.8291 39.4478 72.7087 39.4478H71.8645V40.1089C71.8645 40.4621 71.8702 40.8201 71.8587 41.1724C71.854 41.297 71.9132 41.3839 71.9571 41.4869C71.9628 41.5029 71.9848 41.519 72.001 41.5246C72.088 41.5577 72.1806 41.6172 72.2685 41.6115C72.4423 41.6059 72.6276 41.5898 72.7957 41.4765C72.8234 41.7088 72.8014 41.9374 72.8071 42.1593C72.682 42.2953 72.513 42.3388 72.3601 42.3595C72.045 42.4039 71.7126 42.4143 71.429 42.2301C71.3311 42.1711 71.2463 42.0931 71.1798 42.0007C71.1133 41.9083 71.0665 41.8036 71.0422 41.6928C71.0132 41.5498 71.0004 41.4041 71.004 41.2583V39.4478H70.536V38.6885H70.9982V37.7015H71.8587C71.8645 38.0425 71.8645 38.3693 71.8645 38.6941ZM24.5023 42.284H23.701V38.7423H24.5023V39.4856C24.7095 39.2032 24.8728 38.8887 25.2214 38.764C25.3953 38.6989 25.57 38.628 25.7821 38.6441C25.7935 38.9208 25.7821 39.1975 25.7878 39.4903C25.5755 39.4855 25.3655 39.5343 25.1775 39.632C24.8776 39.7784 24.7095 40.022 24.5997 40.3148C24.5835 40.3583 24.5519 40.4017 24.5567 40.4348C24.5835 40.5755 24.5023 40.7001 24.5023 40.8409C24.508 41.3188 24.5023 41.79 24.5023 42.284ZM81.8057 5.10403V6.64442H81.4733V4.58364H81.9795C82.0282 4.73476 82.0884 4.90381 82.1323 5.07192C82.1867 5.28348 82.2249 5.49975 82.3013 5.71131C82.3176 5.76042 82.3118 5.8152 82.3281 5.86903C82.3338 5.88509 82.372 5.89642 82.394 5.91248C82.5133 5.46198 82.6327 5.02281 82.7531 4.58364H83.2707V6.64914H82.9928V5.00581C82.8562 5.20603 82.8619 5.39587 82.8075 5.56964C82.7473 5.74909 82.7091 5.93798 82.6604 6.12309L82.5133 6.65481H82.2412L81.8324 5.10309C81.8219 5.09742 81.8162 5.10403 81.8057 5.10403ZM80.6615 6.64914H80.2795V5.09931C80.2795 4.91514 80.2699 4.91042 80.0789 4.90475H79.7676V4.58364H81.1295V4.89909H80.6615V6.64914ZM28.6415 6.7417H27.5585V5.65748H28.5059C28.6042 5.65748 28.6415 5.69525 28.6415 5.79914V6.7417ZM29.6768 5.65748H28.6472V4.57137C28.9796 4.5657 29.3282 4.57137 29.6768 4.57137V5.65748Z" fill="white"/>
<path d="M30.7975 2.3487H29.6973V3.44425H30.7975V2.3487ZM34.1813 1.14453H32.9874V2.3317H34.1813V1.14453Z" fill="#FBB92F"/>
</g>
<defs>
<clipPath id="clip0_301_204">
<rect width="85" height="48" fill="white"/>
</clipPath>
</defs>
</svg>
