<svg width="98" height="30" viewBox="0 0 98 30" fill="none" xmlns="http://www.w3.org/2000/svg">
<g clip-path="url(#clip0_301_210)">
<path d="M6.17469 10.973V7.24C6.17469 4.74 8.27469 2.708 10.8707 2.708C13.4607 2.708 15.5657 4.734 15.5657 7.24V10.972H18.4357V7.302C18.4297 3.27 15.0437 0 10.8717 0C6.69169 0 3.30469 3.27 3.30469 7.297V10.967H6.17469V10.973Z" fill="#78BB43"/>
<path d="M14.08 30H7.654C3.445 30 0 26.675 0 22.61V16.41C0 12.346 3.445 9.021 7.655 9.021H14.079C18.289 9.021 21.734 12.346 21.734 16.411V22.611C21.734 26.675 18.29 30.001 14.079 30.001L14.08 30Z" fill="#78BB43"/>
<path d="M6.83984 19.2671L9.69084 22.0201L14.8968 16.9951" stroke="white" stroke-width="4" stroke-miterlimit="10" stroke-linecap="round" stroke-linejoin="round"/>
<path d="M30.1672 19.1799C29.4082 18.8799 28.8022 18.4359 28.3432 17.8449C27.8902 17.2539 27.6482 16.5449 27.6222 15.7149H31.0222C31.0732 16.1819 31.2392 16.5389 31.5262 16.7849C31.8132 17.0319 32.1902 17.1549 32.6492 17.1549C33.1212 17.1549 33.4982 17.0499 33.7722 16.8409C34.0462 16.6309 34.1802 16.3359 34.1802 15.9669C34.1802 15.6529 34.0722 15.3939 33.8552 15.1909C33.6206 14.9744 33.348 14.8032 33.0512 14.6859C32.7312 14.5499 32.2792 14.4029 31.6992 14.2359C30.8502 13.9839 30.1612 13.7309 29.6252 13.4789C29.0825 13.2191 28.6085 12.8354 28.2412 12.3589C27.8512 11.8659 27.6612 11.2189 27.6612 10.4249C27.6612 9.2489 28.1012 8.3249 28.9872 7.6539C29.8742 6.9889 31.0222 6.6499 32.4452 6.6499C33.8932 6.6499 35.0542 6.9829 35.9412 7.6539C36.8272 8.3189 37.3002 9.2489 37.3632 10.4439H33.9062C33.8802 10.0369 33.7272 9.7099 33.4402 9.4759C33.1532 9.2429 32.7832 9.1259 32.3362 9.1259C31.9472 9.1259 31.6412 9.2239 31.3992 9.4209C31.1632 9.6179 31.0412 9.9079 31.0412 10.2769C31.0412 10.6829 31.2392 11.0039 31.6412 11.2309C32.0432 11.4589 32.6612 11.7059 33.5112 11.9709C34.3592 12.2469 35.0482 12.5119 35.5772 12.7649C36.1072 13.0169 36.5662 13.3869 36.9492 13.8669C37.3382 14.3469 37.5292 14.9689 37.5292 15.7269C37.5359 16.423 37.3385 17.1059 36.9612 17.6909C36.5792 18.2809 36.0312 18.7499 35.3092 19.1009C34.5892 19.4509 33.7332 19.6239 32.7452 19.6239C31.7882 19.6369 30.9272 19.4819 30.1672 19.1799ZM42.6962 9.3099V11.8719H46.9762V14.2549H42.6962V17.0319H47.5382V19.5069H39.5002V6.8409H47.5382V9.3159H42.6962V9.3099ZM49.9112 9.8099C50.4612 8.83916 51.2754 8.04439 52.2592 7.5179C53.2612 6.9699 54.4032 6.6989 55.6722 6.6989C57.2282 6.6989 58.5622 7.0939 59.6722 7.8879C60.7822 8.6819 61.5222 9.7659 61.8982 11.1389H58.3832C58.1433 10.6339 57.7564 10.2131 57.2732 9.9319C56.7952 9.6549 56.2462 9.5199 55.6402 9.5199C54.6582 9.5199 53.8602 9.8519 53.2482 10.5109C52.6352 11.1699 52.3292 12.0569 52.3292 13.1649C52.3292 14.2729 52.6352 15.1539 53.2482 15.8189C53.8602 16.4779 54.6582 16.8099 55.6402 16.8099C56.2532 16.8099 56.7952 16.6749 57.2732 16.3979C57.7564 16.1167 58.1433 15.6959 58.3832 15.1909H61.8992C61.5232 16.5639 60.7832 17.6409 59.6732 18.4299C58.5632 19.2179 57.2292 19.6119 55.6732 19.6119C54.4032 19.6119 53.2622 19.3419 52.2602 18.7929C51.2797 18.2656 50.4663 17.4745 49.9122 16.5089C49.3512 15.5359 49.0702 14.4209 49.0702 13.1709C49.0702 11.9209 49.3512 10.7879 49.9122 9.8089L49.9112 9.8099ZM67.0022 6.8409V14.4209C67.0022 15.1789 67.1932 15.7639 67.5822 16.1699C67.9722 16.5759 68.5322 16.7859 69.2862 16.7859C70.0322 16.7859 70.6062 16.5819 71.0082 16.1699C71.4102 15.7629 71.6082 15.1779 71.6082 14.4209V6.8409H74.8042V14.4029C74.8042 15.5359 74.5542 16.4899 74.0572 17.2729C73.5725 18.0439 72.8742 18.6575 72.0472 19.0389C71.2062 19.4329 70.2672 19.6369 69.2342 19.6369C68.2012 19.6369 67.2762 19.4399 66.4592 19.0519C65.6514 18.6709 64.9776 18.0546 64.5262 17.2839C64.0542 16.4959 63.8182 15.5359 63.8182 14.4089V6.8399L67.0022 6.8409ZM83.7352 19.5069L81.0052 14.7229H80.2392V19.5069H77.0432V6.8409H82.4082C83.4412 6.8409 84.3222 7.0129 85.0552 7.3639C85.7832 7.7149 86.3312 8.1899 86.6892 8.7989C87.0522 9.4089 87.2312 10.0859 87.2312 10.8309C87.2312 11.6749 86.9822 12.4259 86.4912 13.0849C86.0002 13.7439 85.2722 14.2179 84.3152 14.4949L87.3452 19.5139H83.7352V19.5069ZM80.2392 12.5429H82.2232C82.8102 12.5429 83.2502 12.4079 83.5432 12.1309C83.8372 11.8529 83.9832 11.4649 83.9832 10.9609C83.9832 10.4809 83.8372 10.0979 83.5432 9.8209C83.2502 9.5439 82.8102 9.4089 82.2232 9.4089H80.2392V12.5429ZM92.4302 9.3099V11.8719H96.7112V14.2549H92.4312V17.0319H97.2722V19.5069H89.2342V6.8409H97.2722V9.3159H92.4302V9.3099ZM28.3692 28.3249C28.0378 28.2028 27.7479 27.9892 27.5332 27.7089C27.3232 27.4389 27.2132 27.1119 27.2012 26.7299H28.7642C28.7902 26.9459 28.8662 27.1119 28.9942 27.2229C29.1282 27.3329 29.3002 27.3949 29.5112 27.3949C29.7272 27.3949 29.9002 27.3459 30.0272 27.2469C30.0894 27.201 30.1394 27.1405 30.1729 27.0708C30.2063 27.001 30.2222 26.9242 30.2192 26.8469C30.2208 26.7799 30.208 26.7133 30.1816 26.6517C30.1552 26.5901 30.1158 26.5349 30.0662 26.4899C29.9571 26.3914 29.8319 26.3122 29.6962 26.2559C29.4914 26.1747 29.2824 26.1046 29.0702 26.0459C28.7451 25.9535 28.4275 25.8365 28.1202 25.6959C27.8695 25.5766 27.6508 25.3994 27.4822 25.1789C27.3032 24.9509 27.2142 24.6549 27.2142 24.2919C27.2142 23.7499 27.4182 23.3249 27.8262 23.0169C28.2352 22.7089 28.7642 22.5549 29.4152 22.5549C30.0782 22.5549 30.6152 22.7089 31.0222 23.0169C31.4312 23.3249 31.6482 23.7499 31.6732 24.2979H30.0852C30.0838 24.2127 30.0636 24.1288 30.0261 24.0522C29.9886 23.9756 29.9347 23.9083 29.8682 23.8549C29.7249 23.7426 29.546 23.6858 29.3642 23.6949C29.2098 23.6859 29.0575 23.734 28.9362 23.8299C28.8804 23.8787 28.8365 23.9395 28.8077 24.0078C28.779 24.076 28.7661 24.1499 28.7702 24.2239C28.7702 24.4149 28.8602 24.5569 29.0452 24.6609C29.2302 24.7659 29.5172 24.8769 29.9062 24.9999C30.2962 25.1299 30.6142 25.2459 30.8562 25.3629C31.0992 25.4799 31.3102 25.6469 31.4882 25.8679C31.6672 26.0899 31.7562 26.3729 31.7562 26.7239C31.7562 27.0569 31.6662 27.3579 31.4942 27.6289C31.3074 27.912 31.0442 28.1363 30.7352 28.2759C30.4042 28.4359 30.0082 28.5159 29.5612 28.5159C29.1548 28.5388 28.7483 28.473 28.3692 28.3249ZM33.6512 28.3249C33.3198 28.2028 33.0299 27.9892 32.8152 27.7089C32.6052 27.4389 32.4962 27.1119 32.4832 26.7299H34.0462C34.0722 26.9459 34.1482 27.1119 34.2762 27.2229C34.4102 27.3329 34.5822 27.3949 34.7932 27.3949C35.0102 27.3949 35.1822 27.3459 35.3092 27.2469C35.3714 27.201 35.4214 27.1405 35.4549 27.0708C35.4883 27.001 35.5042 26.9242 35.5012 26.8469C35.5028 26.7799 35.49 26.7133 35.4636 26.6517C35.4372 26.5901 35.3978 26.5349 35.3482 26.4899C35.2391 26.3914 35.1139 26.3122 34.9782 26.2559C34.7734 26.1747 34.5644 26.1046 34.3522 26.0459C34.0271 25.9535 33.7095 25.8365 33.4022 25.6959C33.1515 25.5766 32.9328 25.3994 32.7642 25.1789C32.5852 24.9509 32.4962 24.6549 32.4962 24.2919C32.4962 23.7499 32.7002 23.3249 33.1092 23.0169C33.5172 22.7089 34.0462 22.5549 34.6972 22.5549C35.3602 22.5549 35.8972 22.7089 36.3052 23.0169C36.7132 23.3249 36.9302 23.7499 36.9552 24.2979H35.3672C35.3658 24.2127 35.3456 24.1288 35.3081 24.0522C35.2706 23.9756 35.2167 23.9083 35.1502 23.8549C35.0069 23.7427 34.8279 23.6859 34.6462 23.6949C34.4921 23.6862 34.3402 23.7342 34.2192 23.8299C34.1634 23.8787 34.1195 23.9395 34.0907 24.0078C34.062 24.076 34.0491 24.1499 34.0532 24.2239C34.0532 24.4149 34.1422 24.5569 34.3272 24.6609C34.5122 24.7659 34.7992 24.8769 35.1882 24.9999C35.5782 25.1299 35.8962 25.2459 36.1382 25.3629C36.3812 25.4799 36.5922 25.6469 36.7702 25.8679C36.9492 26.0899 37.0382 26.3729 37.0382 26.7239C37.0382 27.0569 36.9482 27.3579 36.7772 27.6289C36.59 27.912 36.3265 28.1363 36.0172 28.2759C35.6862 28.4359 35.2902 28.5159 34.8442 28.5159C34.4375 28.539 34.0306 28.4732 33.6512 28.3249ZM39.4122 27.3829H41.3382V28.4789H37.9442V22.6599H39.4122V27.3829ZM45.3252 23.7929V24.9689H47.2902V26.0649H45.3252V27.3399H47.5512V28.4729H43.8572V22.6539H47.5512V23.7869H45.3252V23.7929ZM53.8992 28.4799H52.4312L49.9752 24.8899V28.4799H48.5082V22.6599H49.9752L52.4312 26.2679V22.6599H53.8992V28.4799ZM55.1052 24.0199C55.3602 23.5709 55.7242 23.2199 56.1832 22.9679C56.6432 22.7149 57.1662 22.5919 57.7532 22.5919C58.4672 22.5919 59.0792 22.7769 59.5902 23.1399C60.1002 23.5039 60.4382 24.0019 60.6102 24.6299H58.9962C58.885 24.3987 58.7074 24.2058 58.4862 24.0759C58.2568 23.9461 57.9967 23.8804 57.7332 23.8859C57.2802 23.8859 56.9172 24.0389 56.6362 24.3409C56.3562 24.6429 56.2152 25.0489 56.2152 25.5609C56.2152 26.0709 56.3552 26.4779 56.6362 26.7789C56.9162 27.0809 57.2802 27.2349 57.7332 27.2349C58.0132 27.2349 58.2632 27.1739 58.4862 27.0449C58.7092 26.9149 58.8762 26.7299 58.9962 26.4899H60.6102C60.4382 27.1179 60.1002 27.6169 59.5902 27.9799C59.0802 28.3429 58.4672 28.5219 57.7522 28.5219C57.1652 28.5219 56.6422 28.3989 56.1832 28.1469C55.7336 27.9048 55.3603 27.5423 55.1052 27.0999C54.8502 26.6499 54.7152 26.1399 54.7152 25.5659C54.7152 24.9939 54.8432 24.4689 55.1052 24.0199ZM64.5902 28.4799L63.3342 26.2799H62.9832V28.4799H61.5162V22.6599H63.9782C64.4502 22.6599 64.8582 22.7399 65.1972 22.8999C65.5352 23.0599 65.7832 23.2819 65.9492 23.5599C66.1152 23.8359 66.1992 24.1499 66.1992 24.4949C66.1992 24.8829 66.0832 25.2279 65.8602 25.5299C65.6372 25.8309 65.2992 26.0469 64.8582 26.1759L66.2492 28.4789L64.5902 28.4799ZM62.9832 25.2769H63.8952C64.1632 25.2769 64.3672 25.2159 64.5012 25.0869C64.6352 24.9569 64.7052 24.7779 64.7052 24.5439C64.7095 24.4473 64.6936 24.3509 64.6585 24.2608C64.6234 24.1707 64.5698 24.089 64.5012 24.0209C64.3672 23.8909 64.1632 23.8309 63.8952 23.8309H62.9832V25.2769ZM72.2842 22.6539L70.1982 26.5519V28.4729H68.7312V26.5519L66.6442 22.6539H68.3102L69.4772 25.0929L70.6382 22.6539H72.2842ZM77.2352 25.4559C77.0752 25.7329 76.8272 25.9609 76.4952 26.1329C76.1632 26.3049 75.7492 26.3919 75.2572 26.3919H74.3452V28.4789H72.8792V22.6599H75.2592C75.7372 22.6599 76.1452 22.7399 76.4772 22.8999C76.8092 23.0599 77.0572 23.2819 77.2232 23.5649C77.3892 23.8489 77.4732 24.1689 77.4732 24.5379C77.4776 24.8596 77.3948 25.1766 77.2352 25.4559ZM75.7752 25.0679C75.9152 24.9379 75.9782 24.7599 75.9782 24.5259C75.9782 24.2919 75.9082 24.1129 75.7742 23.9839C75.6342 23.8539 75.4302 23.7939 75.1492 23.7939H74.3522V25.2529H75.1492C75.4292 25.2589 75.6352 25.1969 75.7752 25.0679ZM82.5742 22.6539V23.7869H80.9792V28.4729H79.5122V23.7869H77.9172V22.6539H82.5742ZM84.7822 22.6539V28.4729H83.3142V22.6539H84.7822ZM87.1422 28.1529C86.6772 27.9072 86.2888 27.5384 86.0192 27.0869C85.7392 26.6319 85.6052 26.1209 85.6052 25.5479C85.6052 24.9819 85.7452 24.4709 86.0192 24.0149C86.2904 23.5662 86.6786 23.1998 87.1422 22.9549C87.6211 22.7006 88.1559 22.5696 88.6982 22.5739C89.2662 22.5739 89.7832 22.7039 90.2552 22.9559C90.7272 23.2079 91.0972 23.5659 91.3712 24.0149C91.6462 24.4709 91.7802 24.9819 91.7802 25.5479C91.7802 26.1149 91.6402 26.6319 91.3652 27.0879C91.098 27.5386 90.7119 27.9071 90.2492 28.1529C89.7703 28.4085 89.235 28.5398 88.6922 28.5349C88.1518 28.538 87.6192 28.4067 87.1422 28.1529ZM89.8602 26.7799C90.1472 26.4719 90.2932 26.0599 90.2932 25.5539C90.2932 25.0439 90.1472 24.6309 89.8602 24.3229C89.5722 24.0149 89.1832 23.8609 88.7052 23.8609C88.2202 23.8609 87.8312 24.0149 87.5442 24.3169C87.2572 24.6179 87.1102 25.0309 87.1102 25.5539C87.1102 26.0719 87.2572 26.4779 87.5442 26.7859C87.8312 27.0939 88.2202 27.2479 88.7042 27.2479C89.1842 27.2409 89.5662 27.0879 89.8602 26.7799ZM97.9992 28.4799H96.5332L94.0772 24.8899V28.4799H92.6092V22.6599H94.0772L96.5332 26.2679V22.6599H97.9992V28.4799Z" fill="white"/>
</g>
<defs>
<clipPath id="clip0_301_210">
<rect width="98" height="30" fill="white"/>
</clipPath>
</defs>
</svg>
