<?xml version="1.0" encoding="UTF-8"?>
<!DOCTYPE svg PUBLIC "-//W3C//DTD SVG 1.0//EN" "http://www.w3.org/TR/2001/REC-SVG-20010904/DTD/svg10.dtd">
<!-- Creator: CorelDRAW -->
<svg xmlns="http://www.w3.org/2000/svg" xml:space="preserve" width="1.15482in" height="0.24426in" version="1.0" style="shape-rendering:geometricPrecision; text-rendering:geometricPrecision; image-rendering:optimizeQuality; fill-rule:evenodd; clip-rule:evenodd"
viewBox="0 0 187.17 39.59"
 xmlns:xlink="http://www.w3.org/1999/xlink"
 xmlns:xodm="http://www.corel.com/coreldraw/odm/2003">
 <defs>
  <style type="text/css">
   <![CDATA[
    .fil5 {fill:#96989A;fill-rule:nonzero}
    .fil4 {fill:#252426;fill-rule:nonzero}
    .fil1 {fill:url(#id0)}
    .fil2 {fill:url(#id1)}
    .fil3 {fill:url(#id2)}
    .fil0 {fill:url(#id3)}
   ]]>
  </style>
  <linearGradient id="id0" gradientUnits="userSpaceOnUse" x1="133.8" y1="0.62" x2="159.33" y2="5.91">
   <stop offset="0" style="stop-opacity:1; stop-color:#EC268F"/>
   <stop offset="1" style="stop-opacity:1; stop-color:#FEFEFE"/>
  </linearGradient>
  <linearGradient id="id1" gradientUnits="userSpaceOnUse" x1="160.42" y1="0.62" x2="185.95" y2="5.91">
   <stop offset="0" style="stop-opacity:1; stop-color:#FFDD21"/>
   <stop offset="1" style="stop-opacity:1; stop-color:#FEFEFE"/>
  </linearGradient>
  <linearGradient id="id2" gradientUnits="userSpaceOnUse" x1="107.18" y1="0.62" x2="132.71" y2="5.91">
   <stop offset="0" style="stop-opacity:1; stop-color:#00AFEF"/>
   <stop offset="1" style="stop-opacity:1; stop-color:#FEFEFE"/>
  </linearGradient>
  <linearGradient id="id3" gradientUnits="userSpaceOnUse" x1="102.73" y1="18.64" x2="185.23" y2="18.64">
   <stop offset="0" style="stop-opacity:1; stop-color:#2B4570"/>
   <stop offset="1" style="stop-opacity:1; stop-color:#242E48"/>
  </linearGradient>
 </defs>
 <g id="Layer_x0020_1">
  <metadata id="CorelCorpID_0Corel-Layer"/>
  <g id="_2274241090400">
   <path class="fil0" d="M102.72 28.53l4.4 0c0.04,-0.15 0.12,-0.56 0.27,-1.23 0.15,-0.68 0.3,-1.43 0.47,-2.26 0.17,-0.79 0.31,-1.46 0.43,-2.04 0.12,-0.57 0.19,-0.88 0.2,-0.91 0,-0.01 0,-0.01 0,0 -0.01,0 -0.01,0.01 -0.01,0.02l9.11 0.04c0.9,0 1.7,-0.31 2.39,-0.93 0.69,-0.62 1.15,-1.4 1.35,-2.35 0.14,-0.67 0.29,-1.38 0.46,-2.15 0.17,-0.78 0.32,-1.45 0.44,-2.03 0.13,-0.58 0.19,-0.88 0.19,-0.88 0.26,-1.34 0.01,-2.51 -0.75,-3.53 -0.75,-1.03 -1.75,-1.54 -2.98,-1.54l-8.64 0c-1.82,0 -3.07,1.09 -3.76,3.27 -0.08,0.37 -0.3,1.4 -0.66,3.08 -0.36,1.68 -0.77,3.56 -1.22,5.62 -0.45,2.07 -0.84,3.88 -1.18,5.46 -0.34,1.57 -0.51,2.35 -0.51,2.35zm30.18 0l4.64 0 -3.38 -6.41 1.59 0c0.9,0 1.7,-0.31 2.38,-0.91 0.69,-0.62 1.14,-1.4 1.35,-2.35 0.14,-0.67 0.29,-1.38 0.46,-2.15 0.16,-0.78 0.31,-1.45 0.44,-2.03 0.12,-0.57 0.19,-0.87 0.19,-0.87 0.25,-1.34 0,-2.51 -0.74,-3.53 -0.75,-1.03 -1.72,-1.54 -2.93,-1.54l-8.51 0c-1.79,0 -3.02,1.09 -3.71,3.25l-3.55 16.49 4.35 0c0.04,-0.14 0.12,-0.56 0.26,-1.23 0.14,-0.67 0.3,-1.41 0.47,-2.23 0.17,-0.82 0.32,-1.52 0.44,-2.1 0.11,-0.52 0.16,-0.79 0.17,-0.82 0,-0.01 0,-0.01 0,-0.01 0,0 0,0 0,0 0,0 0,0 0,0 0,0 0,0 0,0.01l2.69 0 3.4 6.41zm6.12 0l4.16 0 4.21 -19.78 -1.11 0c-1.73,0 -2.96,1.09 -3.69,3.27l-3.58 16.51zm6.14 0l4.16 0 2.95 -13.9 7.61 10.2 -0.78 3.69 4.11 0 4.24 -19.78 -4.16 0 -2.08 10.26 -7.7 -10.26 -1.12 0c-1.72,0 -2.94,1.09 -3.68,3.27l-3.55 16.51zm25.91 0l4.15 0 3.38 -15.28 5.62 0 0.99 -4.5 -15.53 0 -0.98 4.5 5.8 0 -3.44 15.28zm-61.41 -10.98c0.22,-1.11 0.4,-1.97 0.52,-2.6 0.16,-0.79 0.25,-1.19 0.25,-1.19 0.03,-0.15 0.1,-0.26 0.2,-0.36 0.11,-0.08 0.21,-0.13 0.32,-0.13 0.16,0 0.58,0 1.27,0 0.69,0 1.46,0 2.3,0 0.84,0 1.57,0 2.19,0 0.62,0 0.96,0 1.02,0 0.16,0 0.3,0.07 0.4,0.2 0.1,0.14 0.14,0.3 0.12,0.49 -0.48,2.11 -0.73,3.17 -0.73,3.17 -0.08,0.27 -0.26,0.41 -0.53,0.41l-7.34 0zm26.08 -0.42c0,0 0.25,-1.06 0.74,-3.17 0.03,-0.17 -0.01,-0.34 -0.12,-0.47 -0.11,-0.14 -0.24,-0.22 -0.39,-0.22l-6.71 0c-0.09,0 -0.19,0.05 -0.3,0.14 -0.11,0.1 -0.17,0.21 -0.21,0.35 0,0 -0.25,1.26 -0.75,3.78l7.21 0c0.27,0 0.45,-0.14 0.53,-0.41z"/>
   <path class="fil1" d="M160.55 0l-26.62 0 -1.35 6.53 26.62 0 1.35 -6.53z"/>
   <path class="fil2" d="M187.17 0l-26.62 0 -1.35 6.53 26.62 0 1.35 -6.53z"/>
   <path class="fil3" d="M133.93 0l-26.62 0 -1.35 6.53 26.62 0 1.35 -6.53z"/>
   <path class="fil4" d="M25.46 0l0 0 0 0 -7.63 0 -6.87 8.73 -3.92 -8.73 -7.05 0 6.96 15.41 -2.77 13.1 6.4 0 2.61 -12.56 12.26 -15.96zm-4.82 28.52l0 0 0 0 5.18 -23.8c0.99,-3.14 2.74,-4.71 5.23,-4.71l18.46 0 -6.15 28.52 -6 0 1.71 -7.87 3.05 -14.12 -10.2 0c-0.14,0 -0.28,0.07 -0.41,0.19 -0.15,0.13 -0.25,0.3 -0.3,0.51l-1.49 6.89 9.02 0 -1.43 6.55 -8.99 0 -1.7 7.84 -5.97 0zm25.54 0l0 0 0 0 5.14 -23.8c1.07,-3.14 2.84,-4.71 5.32,-4.71l1.62 0 11.14 14.8 3.01 -14.8 6.03 0 -6.13 28.52 -5.95 0 1.13 -5.32 -11.01 -14.71 -4.27 20.04 -6.03 0zm40.32 -21.99l0 0 0 0c0.31,0 1.29,0 2.94,0 1.64,0 3.47,0 5.49,0 2.01,0 3.76,0 5.26,0 1.49,0 2.31,0 2.47,0 0.03,-0.21 0.13,-0.66 0.27,-1.33 0.14,-0.68 0.3,-1.41 0.48,-2.22 0.17,-0.79 0.32,-1.49 0.45,-2.09 0.12,-0.6 0.19,-0.9 0.19,-0.9 -0.35,0 -1.46,0 -3.33,0 -1.87,0 -3.94,0 -6.22,0 -2.27,0 -4.26,0 -5.95,0 -1.69,0 -2.63,0 -2.8,0 -0.03,0 -0.05,0 -0.06,0 0,0 0,0 0,0 -2.51,0 -4.3,1.54 -5.36,4.6 -0.05,0.23 -0.15,0.71 -0.31,1.43 -0.16,0.73 -0.32,1.47 -0.49,2.23 -0.17,0.77 -0.29,1.31 -0.37,1.63 -0.03,0.13 -0.04,0.19 -0.04,0.19 0,0.03 0,0.05 0,0.07 0,0 0,0 0,0 -0.4,1.98 -0.08,3.69 0.94,5.14 1.01,1.45 2.38,2.18 4.09,2.18 0.2,0 0.77,0 1.71,0 0.94,0 1.99,0 3.13,0 1.14,0 2.13,0 2.98,0 0.85,0 1.32,0 1.4,0 0.03,0 0.05,0 0.06,0 0,0 -0.01,0 -0.02,0 0.22,0 0.41,0.1 0.55,0.32 0.14,0.21 0.16,0.44 0.08,0.69 -0.03,0.12 -0.07,0.32 -0.14,0.61 -0.06,0.29 -0.13,0.6 -0.2,0.94 -0.06,0.34 -0.13,0.63 -0.19,0.89 -0.06,0.25 -0.08,0.38 -0.08,0.38 -0.13,0.41 -0.39,0.61 -0.73,0.61 -0.32,0 -1.29,0 -2.94,0 -1.64,0 -3.48,0 -5.49,0 -2.02,0 -3.76,0 -5.25,0 -1.48,0 -2.31,0 -2.45,0 -0.04,0.21 -0.13,0.66 -0.27,1.34 -0.15,0.69 -0.31,1.43 -0.48,2.24 -0.17,0.81 -0.33,1.51 -0.45,2.12 -0.13,0.61 -0.19,0.91 -0.19,0.91 0.35,0 1.46,0 3.32,0 1.86,0 3.94,0 6.22,0 2.28,0 4.27,0 5.95,0 1.69,0 2.62,0 2.79,0 0.03,0 0.04,0 0.06,0 0,0 0,0 0,0 1.3,0 2.45,-0.44 3.42,-1.31 0.98,-0.89 1.64,-2.03 1.97,-3.42 0.03,-0.17 0.1,-0.53 0.23,-1.1 0.12,-0.56 0.26,-1.18 0.4,-1.84 0.14,-0.66 0.27,-1.23 0.37,-1.72 0.11,-0.49 0.16,-0.74 0.16,-0.77 0.01,-0.03 0.02,-0.05 0.02,-0.07 0,0 0,0 0,0 0.39,-1.93 0.08,-3.64 -0.94,-5.12 -1.02,-1.49 -2.38,-2.24 -4.07,-2.24 -0.21,0 -0.79,0 -1.73,0 -0.94,0 -1.98,0 -3.12,0 -1.14,0 -2.13,0 -2.97,0 -0.83,0 -1.29,0 -1.38,0 -0.23,0 -0.41,-0.09 -0.55,-0.3 -0.14,-0.19 -0.19,-0.43 -0.15,-0.69 0.03,-0.12 0.06,-0.32 0.13,-0.61 0.06,-0.29 0.13,-0.6 0.2,-0.94 0.07,-0.34 0.13,-0.63 0.19,-0.89 0.06,-0.25 0.09,-0.38 0.09,-0.38 0.04,-0.15 0.13,-0.3 0.26,-0.42 0.13,-0.12 0.28,-0.17 0.46,-0.17z"/>
  </g>
  <path class="fil5" d="M44.81 32.85l0 0 0 0c-0.7,0 -1.18,0.37 -1.45,1.11 -0.03,0.13 -0.11,0.48 -0.25,1.05 -0.14,0.57 -0.3,1.21 -0.47,1.92 -0.17,0.7 -0.32,1.32 -0.45,1.86 -0.13,0.53 -0.19,0.8 -0.19,0.8 0.05,0 0.16,0 0.33,0 0.18,0 0.36,0 0.57,0 0.21,0 0.39,0 0.54,0 0.15,0 0.24,0 0.25,0 0.01,-0.05 0.05,-0.19 0.1,-0.42 0.06,-0.23 0.12,-0.49 0.18,-0.77 0.07,-0.27 0.12,-0.5 0.17,-0.7 0.05,-0.2 0.07,-0.3 0.07,-0.31 0,-0 0,-0 0,0 -0,0 -0.01,0 -0.01,0.01l3.5 0.02c0.35,0 0.65,-0.11 0.92,-0.32 0.27,-0.21 0.44,-0.48 0.52,-0.8 0.05,-0.23 0.11,-0.47 0.18,-0.73 0.07,-0.26 0.12,-0.49 0.17,-0.69 0.05,-0.2 0.07,-0.3 0.07,-0.3 0.1,-0.46 0,-0.86 -0.29,-1.2 -0.29,-0.35 -0.67,-0.52 -1.15,-0.52l-3.32 0zm-0.14 3l0 0 0 0c0.09,-0.38 0.15,-0.67 0.2,-0.89 0.06,-0.27 0.1,-0.4 0.1,-0.4 0.01,-0.05 0.04,-0.09 0.08,-0.12 0.04,-0.03 0.08,-0.04 0.12,-0.04 0.06,0 0.22,0 0.49,0 0.27,0 0.56,0 0.88,0 0.32,0 0.6,0 0.84,0 0.24,0 0.37,0 0.39,0 0.06,0 0.11,0.02 0.16,0.07 0.04,0.05 0.05,0.1 0.04,0.17 -0.19,0.72 -0.28,1.08 -0.28,1.08 -0.03,0.09 -0.1,0.14 -0.2,0.14l-2.82 0z"/>
  <path class="fil5" d="M50.42 33.96l0 0 0 0c-0.02,0.1 -0.08,0.35 -0.18,0.75 -0.1,0.4 -0.2,0.84 -0.32,1.33 -0.12,0.48 -0.22,0.91 -0.31,1.28 -0.09,0.37 -0.13,0.55 -0.13,0.55 -0.09,0.46 0.02,0.86 0.32,1.2 0.31,0.35 0.72,0.53 1.23,0.53 0.07,0 0.29,0 0.64,0 0.35,0 0.74,0 1.17,0 0.43,0 0.8,0 1.12,0 0.32,0 0.49,0 0.52,0 0.76,0 1.27,-0.37 1.54,-1.11 0.03,-0.1 0.09,-0.37 0.19,-0.79 0.1,-0.42 0.22,-0.89 0.34,-1.39 0.12,-0.5 0.23,-0.92 0.31,-1.27 0.07,-0.3 0.11,-0.46 0.11,-0.46 0.1,-0.46 -0.01,-0.86 -0.32,-1.2 -0.31,-0.35 -0.71,-0.52 -1.21,-0.52 -0.07,0 -0.29,0 -0.64,0 -0.35,0 -0.75,0 -1.18,0 -0.43,0 -0.8,0 -1.12,0 -0.32,0 -0.5,0 -0.53,0 -0.01,0 -0.01,0 -0.01,0 0,0 0,0 0,0 -0.73,0 -1.25,0.37 -1.54,1.11zm3.77 4.08l0 0 0 0c-0.06,0 -0.23,0 -0.51,0 -0.28,0 -0.59,0 -0.92,0 -0.34,0 -0.63,0 -0.88,0 -0.25,0 -0.38,0 -0.41,0 -0.06,0 -0.12,-0.02 -0.17,-0.07 -0.04,-0.05 -0.06,-0.1 -0.05,-0.17 0.02,-0.08 0.08,-0.29 0.15,-0.62 0.08,-0.33 0.17,-0.7 0.27,-1.11 0.1,-0.4 0.18,-0.75 0.26,-1.05 0.07,-0.3 0.11,-0.46 0.11,-0.47 0.03,-0.11 0.1,-0.17 0.21,-0.17 0.06,0 0.23,0 0.51,0 0.28,0 0.58,0 0.92,0 0.34,0 0.63,0 0.87,0 0.25,0 0.38,0 0.41,0 0.01,0 0.01,0 0.02,0 0,0 0,0 0,0 0.08,0 0.13,0.02 0.17,0.07 0.04,0.05 0.05,0.1 0.04,0.17 -0.02,0.08 -0.07,0.29 -0.15,0.62 -0.08,0.33 -0.17,0.7 -0.27,1.1 -0.1,0.4 -0.19,0.76 -0.26,1.06 -0.07,0.31 -0.11,0.46 -0.11,0.46 -0.04,0.11 -0.11,0.17 -0.21,0.17z"/>
  <path class="fil5" d="M59.46 34.39l0 0 0 0c0.08,0 0.34,0 0.78,0 0.44,0 0.92,0 1.46,0 0.53,0 1,0 1.4,0 0.4,0 0.61,0 0.66,0 0.01,-0.05 0.03,-0.16 0.07,-0.31 0.04,-0.16 0.08,-0.33 0.13,-0.52 0.05,-0.19 0.09,-0.35 0.12,-0.49 0.03,-0.14 0.05,-0.21 0.05,-0.21 -0.09,0 -0.39,0 -0.88,0 -0.5,0 -1.05,0 -1.65,0 -0.6,0 -1.13,0 -1.58,0 -0.45,0 -0.7,0 -0.74,0 -0.01,0 -0.01,0 -0.02,0 0,0 0,0 0,0 -0.67,0 -1.14,0.36 -1.43,1.09 -0.01,0.05 -0.04,0.17 -0.08,0.34 -0.04,0.17 -0.08,0.35 -0.13,0.53 -0.04,0.18 -0.08,0.31 -0.1,0.39 -0.01,0.03 -0.01,0.04 -0.01,0.04 0,0.01 0,0.01 0,0.02 0,0 0,0 0,0 -0.11,0.47 -0.02,0.87 0.25,1.21 0.27,0.34 0.63,0.51 1.09,0.51 0.05,0 0.2,0 0.45,0 0.25,0 0.53,0 0.83,0 0.3,0 0.57,0 0.79,0 0.23,0 0.35,0 0.37,0 0.01,0 0.01,0 0.02,0 0,0 -0,0 -0.01,0 0.06,0 0.11,0.02 0.14,0.08 0.04,0.05 0.04,0.1 0.02,0.16 -0.01,0.03 -0.02,0.07 -0.04,0.14 -0.02,0.07 -0.03,0.14 -0.05,0.22 -0.02,0.08 -0.03,0.15 -0.05,0.21 -0.02,0.06 -0.02,0.09 -0.02,0.09 -0.04,0.1 -0.1,0.14 -0.19,0.14 -0.08,0 -0.34,0 -0.78,0 -0.44,0 -0.92,0 -1.46,0 -0.54,0 -1,0 -1.4,0 -0.39,0 -0.61,0 -0.65,0 -0.01,0.05 -0.03,0.16 -0.07,0.32 -0.04,0.16 -0.08,0.34 -0.13,0.53 -0.05,0.19 -0.09,0.36 -0.12,0.5 -0.03,0.14 -0.05,0.22 -0.05,0.22 0.09,0 0.39,0 0.88,0 0.5,0 1.05,0 1.66,0 0.61,0 1.13,0 1.58,0 0.45,0 0.7,0 0.74,0 0.01,0 0.01,0 0.02,0 0,0 0,0 0,0 0.35,0 0.65,-0.1 0.91,-0.31 0.26,-0.21 0.44,-0.48 0.52,-0.81 0.01,-0.04 0.03,-0.13 0.06,-0.26 0.03,-0.13 0.07,-0.28 0.11,-0.44 0.04,-0.16 0.07,-0.29 0.1,-0.41 0.03,-0.12 0.04,-0.18 0.04,-0.18 0,-0.01 0.01,-0.01 0.01,-0.02 0,0 0,0 0,0 0.1,-0.46 0.02,-0.86 -0.25,-1.21 -0.27,-0.35 -0.63,-0.53 -1.08,-0.53 -0.06,0 -0.21,0 -0.46,0 -0.25,0 -0.53,0 -0.83,0 -0.3,0 -0.57,0 -0.79,0 -0.22,0 -0.34,0 -0.37,0 -0.06,0 -0.11,-0.02 -0.15,-0.07 -0.04,-0.05 -0.05,-0.1 -0.04,-0.16 0.01,-0.03 0.02,-0.08 0.03,-0.14 0.02,-0.07 0.03,-0.14 0.05,-0.22 0.02,-0.08 0.04,-0.15 0.05,-0.21 0.02,-0.06 0.02,-0.09 0.02,-0.09 0.01,-0.04 0.04,-0.07 0.07,-0.1 0.03,-0.03 0.07,-0.04 0.12,-0.04z"/>
  <path class="fil5" d="M66.15 34.39l0 0 0 0c0.08,0 0.34,0 0.78,0 0.44,0 0.92,0 1.46,0 0.53,0 1,0 1.4,0 0.4,0 0.61,0 0.66,0 0.01,-0.05 0.03,-0.16 0.07,-0.31 0.04,-0.16 0.08,-0.33 0.13,-0.52 0.05,-0.19 0.09,-0.35 0.12,-0.49 0.03,-0.14 0.05,-0.21 0.05,-0.21 -0.09,0 -0.39,0 -0.88,0 -0.5,0 -1.05,0 -1.65,0 -0.6,0 -1.13,0 -1.58,0 -0.45,0 -0.7,0 -0.74,0 -0.01,0 -0.01,0 -0.02,0 0,0 0,0 0,0 -0.67,0 -1.14,0.36 -1.43,1.09 -0.01,0.05 -0.04,0.17 -0.08,0.34 -0.04,0.17 -0.09,0.35 -0.13,0.53 -0.04,0.18 -0.08,0.31 -0.1,0.39 -0.01,0.03 -0.01,0.04 -0.01,0.04 0,0.01 0,0.01 0,0.02 0,0 0,0 0,0 -0.11,0.47 -0.02,0.87 0.25,1.21 0.27,0.34 0.63,0.51 1.09,0.51 0.05,0 0.2,0 0.45,0 0.25,0 0.53,0 0.83,0 0.3,0 0.57,0 0.79,0 0.23,0 0.35,0 0.37,0 0.01,0 0.01,0 0.02,0 0,0 -0,0 -0.01,0 0.06,0 0.11,0.02 0.14,0.08 0.04,0.05 0.04,0.1 0.02,0.16 -0.01,0.03 -0.02,0.07 -0.04,0.14 -0.02,0.07 -0.03,0.14 -0.05,0.22 -0.02,0.08 -0.03,0.15 -0.05,0.21 -0.02,0.06 -0.02,0.09 -0.02,0.09 -0.04,0.1 -0.1,0.14 -0.2,0.14 -0.08,0 -0.34,0 -0.78,0 -0.44,0 -0.92,0 -1.46,0 -0.54,0 -1,0 -1.4,0 -0.39,0 -0.61,0 -0.65,0 -0.01,0.05 -0.03,0.16 -0.07,0.32 -0.04,0.16 -0.08,0.34 -0.13,0.53 -0.05,0.19 -0.09,0.36 -0.12,0.5 -0.03,0.14 -0.05,0.22 -0.05,0.22 0.09,0 0.39,0 0.88,0 0.5,0 1.05,0 1.65,0 0.61,0 1.13,0 1.58,0 0.45,0 0.7,0 0.74,0 0.01,0 0.01,0 0.02,0 0,0 0,0 0,0 0.35,0 0.65,-0.1 0.91,-0.31 0.26,-0.21 0.44,-0.48 0.52,-0.81 0.01,-0.04 0.03,-0.13 0.06,-0.26 0.03,-0.13 0.07,-0.28 0.11,-0.44 0.04,-0.16 0.07,-0.29 0.1,-0.41 0.03,-0.12 0.04,-0.18 0.04,-0.18 0,-0.01 0.01,-0.01 0.01,-0.02 0,0 0,0 0,0 0.1,-0.46 0.02,-0.86 -0.25,-1.21 -0.27,-0.35 -0.63,-0.53 -1.08,-0.53 -0.06,0 -0.21,0 -0.46,0 -0.25,0 -0.53,0 -0.83,0 -0.3,0 -0.57,0 -0.79,0 -0.22,0 -0.34,0 -0.37,0 -0.06,0 -0.11,-0.02 -0.15,-0.07 -0.04,-0.05 -0.05,-0.1 -0.04,-0.16 0.01,-0.03 0.02,-0.08 0.03,-0.14 0.02,-0.07 0.03,-0.14 0.05,-0.22 0.02,-0.08 0.04,-0.15 0.05,-0.21 0.02,-0.06 0.02,-0.09 0.02,-0.09 0.01,-0.04 0.04,-0.07 0.07,-0.1 0.03,-0.03 0.07,-0.04 0.12,-0.04z"/>
  <path class="fil5" d="M70.24 37.86l0 0 0 0 0.94 -3.9c0.27,-0.74 0.75,-1.11 1.45,-1.11l4.64 0 -0.37 1.54 -2.7 0 0 0 -1.3 0c-0.04,0 -0.08,0.02 -0.11,0.04 -0.04,0.03 -0.07,0.07 -0.09,0.12l-0.22 0.89 2.73 0 -0.36 1.54 -2.74 0 -0.2 0.82c-0.01,0.06 0.01,0.12 0.04,0.17 0.04,0.05 0.09,0.07 0.15,0.07l3.91 0.01c-0.11,0.47 -0.23,0.98 -0.37,1.54l-3.97 0c-0.47,0 -0.85,-0.18 -1.14,-0.53 -0.29,-0.35 -0.38,-0.75 -0.29,-1.2z"/>
  <path class="fil5" d="M79.35 34.39l0 0 0 0c0.08,0 0.34,0 0.78,0 0.44,0 0.92,0 1.46,0 0.53,0 1,0 1.4,0 0.4,0 0.61,0 0.66,0 0.01,-0.05 0.03,-0.16 0.07,-0.31 0.04,-0.16 0.08,-0.33 0.13,-0.52 0.05,-0.19 0.09,-0.35 0.12,-0.49 0.03,-0.14 0.05,-0.21 0.05,-0.21 -0.09,0 -0.39,0 -0.88,0 -0.5,0 -1.05,0 -1.66,0 -0.6,0 -1.13,0 -1.58,0 -0.45,0 -0.7,0 -0.74,0 -0.01,0 -0.01,0 -0.02,0 0,0 0,0 0,0 -0.67,0 -1.14,0.36 -1.43,1.09 -0.01,0.05 -0.04,0.17 -0.08,0.34 -0.04,0.17 -0.08,0.35 -0.13,0.53 -0.04,0.18 -0.08,0.31 -0.1,0.39 -0.01,0.03 -0.01,0.04 -0.01,0.04 0,0.01 0,0.01 0,0.02 0,0 0,0 0,0 -0.11,0.47 -0.02,0.87 0.25,1.21 0.27,0.34 0.63,0.51 1.09,0.51 0.05,0 0.2,0 0.45,0 0.25,0 0.53,0 0.83,0 0.3,0 0.57,0 0.79,0 0.23,0 0.35,0 0.37,0 0.01,0 0.01,0 0.02,0 0,0 -0,0 -0.01,0 0.06,0 0.11,0.02 0.14,0.08 0.04,0.05 0.04,0.1 0.02,0.16 -0.01,0.03 -0.02,0.07 -0.04,0.14 -0.02,0.07 -0.03,0.14 -0.05,0.22 -0.02,0.08 -0.03,0.15 -0.05,0.21 -0.02,0.06 -0.02,0.09 -0.02,0.09 -0.04,0.1 -0.1,0.14 -0.19,0.14 -0.08,0 -0.34,0 -0.78,0 -0.44,0 -0.92,0 -1.46,0 -0.54,0 -1,0 -1.4,0 -0.39,0 -0.61,0 -0.65,0 -0.01,0.05 -0.03,0.16 -0.07,0.32 -0.04,0.16 -0.08,0.34 -0.13,0.53 -0.05,0.19 -0.09,0.36 -0.12,0.5 -0.03,0.14 -0.05,0.22 -0.05,0.22 0.09,0 0.39,0 0.88,0 0.49,0 1.05,0 1.65,0 0.61,0 1.13,0 1.58,0 0.45,0 0.7,0 0.74,0 0.01,0 0.01,0 0.02,0 0,0 0,0 0,0 0.35,0 0.65,-0.1 0.91,-0.31 0.26,-0.21 0.44,-0.48 0.52,-0.81 0.01,-0.04 0.03,-0.13 0.06,-0.26 0.03,-0.13 0.07,-0.28 0.11,-0.44 0.04,-0.16 0.07,-0.29 0.1,-0.41 0.03,-0.12 0.04,-0.18 0.04,-0.18 0,-0.01 0.01,-0.01 0.01,-0.02 0,0 0,0 0,0 0.1,-0.46 0.02,-0.86 -0.25,-1.21 -0.27,-0.35 -0.63,-0.53 -1.08,-0.53 -0.06,0 -0.21,0 -0.46,0 -0.25,0 -0.53,0 -0.83,0 -0.3,0 -0.57,0 -0.79,0 -0.22,0 -0.34,0 -0.37,0 -0.06,0 -0.11,-0.02 -0.15,-0.07 -0.04,-0.05 -0.05,-0.1 -0.04,-0.16 0.01,-0.03 0.02,-0.08 0.03,-0.14 0.02,-0.07 0.03,-0.14 0.05,-0.22 0.02,-0.08 0.04,-0.15 0.05,-0.21 0.02,-0.06 0.02,-0.09 0.02,-0.09 0.01,-0.04 0.04,-0.07 0.07,-0.1 0.03,-0.03 0.07,-0.04 0.12,-0.04z"/>
  <path class="fil5" d="M86.04 34.39l0 0 0 0c0.08,0 0.34,0 0.78,0 0.44,0 0.92,0 1.46,0 0.53,0 1,0 1.4,0 0.4,0 0.61,0 0.66,0 0.01,-0.05 0.03,-0.16 0.07,-0.31 0.04,-0.16 0.08,-0.33 0.13,-0.52 0.05,-0.19 0.09,-0.35 0.12,-0.49 0.03,-0.14 0.05,-0.21 0.05,-0.21 -0.09,0 -0.39,0 -0.88,0 -0.5,0 -1.05,0 -1.65,0 -0.6,0 -1.13,0 -1.58,0 -0.45,0 -0.7,0 -0.74,0 -0.01,0 -0.01,0 -0.02,0 0,0 0,0 0,0 -0.67,0 -1.14,0.36 -1.43,1.09 -0.01,0.05 -0.04,0.17 -0.08,0.34 -0.04,0.17 -0.09,0.35 -0.13,0.53 -0.04,0.18 -0.08,0.31 -0.1,0.39 -0.01,0.03 -0.01,0.04 -0.01,0.04 0,0.01 0,0.01 0,0.02 0,0 0,0 0,0 -0.11,0.47 -0.02,0.87 0.25,1.21 0.27,0.34 0.63,0.51 1.09,0.51 0.05,0 0.2,0 0.45,0 0.25,0 0.53,0 0.83,0 0.3,0 0.57,0 0.79,0 0.23,0 0.35,0 0.37,0 0.01,0 0.01,0 0.02,0 0,0 -0,0 -0.01,0 0.06,0 0.11,0.02 0.14,0.08 0.04,0.05 0.04,0.1 0.02,0.16 -0.01,0.03 -0.02,0.07 -0.04,0.14 -0.02,0.07 -0.03,0.14 -0.05,0.22 -0.02,0.08 -0.03,0.15 -0.05,0.21 -0.02,0.06 -0.02,0.09 -0.02,0.09 -0.04,0.1 -0.1,0.14 -0.2,0.14 -0.08,0 -0.34,0 -0.78,0 -0.44,0 -0.92,0 -1.46,0 -0.54,0 -1,0 -1.4,0 -0.39,0 -0.61,0 -0.65,0 -0.01,0.05 -0.03,0.16 -0.07,0.32 -0.04,0.16 -0.08,0.34 -0.13,0.53 -0.05,0.19 -0.09,0.36 -0.12,0.5 -0.03,0.14 -0.05,0.22 -0.05,0.22 0.09,0 0.39,0 0.88,0 0.5,0 1.05,0 1.65,0 0.61,0 1.13,0 1.58,0 0.45,0 0.7,0 0.74,0 0.01,0 0.01,0 0.02,0 0,0 0,0 0,0 0.35,0 0.65,-0.1 0.91,-0.31 0.26,-0.21 0.44,-0.48 0.52,-0.81 0.01,-0.04 0.03,-0.13 0.06,-0.26 0.03,-0.13 0.07,-0.28 0.11,-0.44 0.04,-0.16 0.07,-0.29 0.1,-0.41 0.03,-0.12 0.04,-0.18 0.04,-0.18 0,-0.01 0.01,-0.01 0.01,-0.02 0,0 0,0 0,0 0.1,-0.46 0.02,-0.86 -0.25,-1.21 -0.27,-0.35 -0.63,-0.53 -1.08,-0.53 -0.06,0 -0.21,0 -0.46,0 -0.25,0 -0.53,0 -0.83,0 -0.3,0 -0.57,0 -0.79,0 -0.22,0 -0.34,0 -0.37,0 -0.06,0 -0.11,-0.02 -0.14,-0.07 -0.04,-0.05 -0.05,-0.1 -0.04,-0.16 0.01,-0.03 0.02,-0.08 0.03,-0.14 0.02,-0.07 0.03,-0.14 0.05,-0.22 0.02,-0.08 0.04,-0.15 0.05,-0.21 0.02,-0.06 0.02,-0.09 0.02,-0.09 0.01,-0.04 0.04,-0.07 0.07,-0.1 0.03,-0.03 0.07,-0.04 0.12,-0.04z"/>
  <path class="fil5" d="M97.06 39.59l0 0 0 0 1.32 -5.21 -2.23 0 0.38 -1.53 5.97 0 -0.38 1.53 -2.16 0 -1.3 5.21 -1.6 0z"/>
  <path class="fil5" d="M101.65 39.59l0 0 0 0 1.38 -5.63c0.28,-0.74 0.75,-1.11 1.42,-1.11l0.43 0 -0.47 2.06 -0.13 0.52 2.56 0c0.08,0 0.16,-0.02 0.23,-0.07 0.07,-0.05 0.12,-0.12 0.13,-0.21l0.06 -0.25 0.01 0 0.47 -2.05 1.64 0 -1.4 5.63c-0.26,0.74 -0.74,1.11 -1.42,1.11l-0.43 0 0.48 -1.98 0.15 -0.6 -2.55 0c-0.19,0 -0.32,0.09 -0.39,0.28l-0.04 0.19 0 0 -0.51 2.11 -1.6 0z"/>
  <path class="fil5" d="M108.82 37.86l0 0 0 0 0.94 -3.9c0.27,-0.74 0.75,-1.11 1.45,-1.11l4.64 0 -0.37 1.54 -2.7 0 0 0 -1.3 0c-0.04,0 -0.07,0.02 -0.11,0.04 -0.04,0.03 -0.07,0.07 -0.09,0.12l-0.22 0.89 2.73 0 -0.36 1.54 -2.74 0 -0.2 0.82c-0.01,0.06 0.01,0.12 0.04,0.17 0.04,0.05 0.09,0.07 0.15,0.07l3.91 0.01c-0.11,0.47 -0.23,0.98 -0.37,1.54l-3.97 0c-0.47,0 -0.85,-0.18 -1.14,-0.53 -0.29,-0.35 -0.38,-0.75 -0.28,-1.2z"/>
  <path class="fil5" d="M120.24 32.85l0 0 0 0c-0.69,0 -1.17,0.37 -1.44,1.11 -0.03,0.13 -0.11,0.48 -0.25,1.05 -0.14,0.57 -0.29,1.21 -0.46,1.92 -0.17,0.7 -0.32,1.32 -0.45,1.86 -0.13,0.53 -0.19,0.8 -0.19,0.8 0.1,0 0.41,0 0.94,0 0.52,0 1.11,0 1.75,0 0.64,0 1.2,0 1.68,0 0.48,0 0.74,0 0.79,0 0.69,0 1.17,-0.37 1.44,-1.11 0.02,-0.05 0.04,-0.14 0.07,-0.27 0.03,-0.13 0.06,-0.25 0.09,-0.37 0.03,-0.12 0.05,-0.2 0.05,-0.23 0,-0.01 0,-0.01 0,-0.01l0 0c0.08,-0.4 -0,-0.76 -0.24,-1.09 -0.01,-0.02 -0.04,-0.04 -0.07,-0.07 -0.03,-0.03 -0.06,-0.05 -0.09,-0.08 -0.03,-0.03 -0.05,-0.04 -0.06,-0.04 0.12,-0.03 0.26,-0.11 0.44,-0.22 0.18,-0.11 0.32,-0.26 0.43,-0.44 0.03,-0.05 0.07,-0.14 0.1,-0.25 0.03,-0.11 0.07,-0.23 0.1,-0.35 0.03,-0.12 0.05,-0.23 0.07,-0.32 0.02,-0.09 0.03,-0.14 0.03,-0.15 0.1,-0.46 -0,-0.86 -0.3,-1.2 -0.29,-0.35 -0.67,-0.52 -1.14,-0.52l-3.3 0zm0.05 1.71l0 0 0 0c0.02,-0.05 0.05,-0.09 0.08,-0.12 0.04,-0.03 0.08,-0.04 0.11,-0.04 0.06,0 0.22,0 0.49,0 0.27,0 0.56,0 0.88,0 0.32,0 0.6,0 0.84,0 0.24,0 0.37,0 0.39,0 0.06,0 0.11,0.02 0.15,0.07 0.04,0.05 0.05,0.1 0.04,0.17 -0,0.02 -0.01,0.05 -0.03,0.1 -0.01,0.05 -0.03,0.1 -0.04,0.15 -0.02,0.05 -0.03,0.1 -0.04,0.14 -0.01,0.04 -0.02,0.06 -0.02,0.06 -0.03,0.11 -0.08,0.19 -0.17,0.26 -0.09,0.06 -0.19,0.09 -0.3,0.09 -0.06,0 -0.22,0 -0.49,0 -0.26,0 -0.56,0 -0.88,0 -0.32,0 -0.6,0 -0.84,0 -0.24,0 -0.37,0 -0.39,0l0.2 -0.87zm-0.82 3.49l0 0 0 0c0.01,-0.04 0.02,-0.11 0.05,-0.22 0.03,-0.11 0.05,-0.23 0.09,-0.35 0.03,-0.13 0.06,-0.24 0.08,-0.33 0.02,-0.09 0.03,-0.14 0.03,-0.14 0.05,0 0.2,0 0.44,0 0.24,0 0.51,0 0.8,0 0.29,0 0.55,0 0.76,0 0.22,0 0.33,0 0.36,0 0.01,0 0.02,0 0.02,0l0 0c0.16,0 0.29,0.06 0.38,0.17 0.09,0.12 0.12,0.25 0.09,0.39 -0,0.02 -0.01,0.04 -0.02,0.07 -0.01,0.03 -0.01,0.06 -0.02,0.1 -0.01,0.03 -0.02,0.07 -0.02,0.09 -0.01,0.03 -0.01,0.04 -0.01,0.04 0,0.01 -0.01,0.03 -0.02,0.06 -0.02,0.03 -0.04,0.05 -0.06,0.08 -0.03,0.02 -0.05,0.04 -0.09,0.04l-2.85 0z"/>
  <path class="fil5" d="M124.69 37.86l0 0 0 0 0.94 -3.9c0.27,-0.74 0.75,-1.11 1.45,-1.11l4.64 0 -0.37 1.54 -2.7 0 0 0 -1.3 0c-0.04,0 -0.08,0.02 -0.11,0.04 -0.04,0.03 -0.07,0.07 -0.09,0.12l-0.22 0.89 2.73 0 -0.36 1.54 -2.74 0 -0.2 0.82c-0.01,0.06 0.01,0.12 0.04,0.17 0.04,0.05 0.09,0.07 0.15,0.07l3.91 0.01c-0.11,0.47 -0.23,0.98 -0.37,1.54l-3.97 0c-0.47,0 -0.85,-0.18 -1.14,-0.53 -0.29,-0.35 -0.38,-0.75 -0.29,-1.2z"/>
  <path class="fil5" d="M133.79 34.39l0 0 0 0c0.08,0 0.34,0 0.78,0 0.44,0 0.92,0 1.46,0 0.53,0 1,0 1.4,0 0.4,0 0.61,0 0.66,0 0.01,-0.05 0.03,-0.16 0.07,-0.31 0.04,-0.16 0.08,-0.33 0.13,-0.52 0.05,-0.19 0.09,-0.35 0.12,-0.49 0.03,-0.14 0.05,-0.21 0.05,-0.21 -0.09,0 -0.39,0 -0.88,0 -0.5,0 -1.05,0 -1.65,0 -0.6,0 -1.13,0 -1.58,0 -0.45,0 -0.7,0 -0.74,0 -0.01,0 -0.01,0 -0.02,0 0,0 0,0 0,0 -0.67,0 -1.14,0.36 -1.43,1.09 -0.01,0.05 -0.04,0.17 -0.08,0.34 -0.04,0.17 -0.09,0.35 -0.13,0.53 -0.04,0.18 -0.08,0.31 -0.1,0.39 -0.01,0.03 -0.01,0.04 -0.01,0.04 0,0.01 0,0.01 0,0.02 0,0 0,0 0,0 -0.11,0.47 -0.02,0.87 0.25,1.21 0.27,0.34 0.63,0.51 1.09,0.51 0.05,0 0.21,0 0.45,0 0.25,0 0.53,0 0.83,0 0.3,0 0.57,0 0.79,0 0.23,0 0.35,0 0.37,0 0.01,0 0.01,0 0.02,0 0,0 -0,0 -0.01,0 0.06,0 0.11,0.02 0.15,0.08 0.04,0.05 0.04,0.1 0.02,0.16 -0.01,0.03 -0.02,0.07 -0.04,0.14 -0.02,0.07 -0.03,0.14 -0.05,0.22 -0.02,0.08 -0.03,0.15 -0.05,0.21 -0.02,0.06 -0.02,0.09 -0.02,0.09 -0.04,0.1 -0.1,0.14 -0.2,0.14 -0.08,0 -0.34,0 -0.78,0 -0.44,0 -0.92,0 -1.46,0 -0.54,0 -1,0 -1.4,0 -0.39,0 -0.61,0 -0.65,0 -0.01,0.05 -0.03,0.16 -0.07,0.32 -0.04,0.16 -0.08,0.34 -0.13,0.53 -0.05,0.19 -0.09,0.36 -0.12,0.5 -0.03,0.14 -0.05,0.22 -0.05,0.22 0.09,0 0.39,0 0.88,0 0.5,0 1.05,0 1.65,0 0.61,0 1.13,0 1.58,0 0.45,0 0.7,0 0.74,0 0.01,0 0.01,0 0.02,0 0,0 0,0 0,0 0.35,0 0.65,-0.1 0.91,-0.31 0.26,-0.21 0.44,-0.48 0.52,-0.81 0.01,-0.04 0.03,-0.13 0.06,-0.26 0.03,-0.13 0.07,-0.28 0.11,-0.44 0.04,-0.16 0.07,-0.29 0.1,-0.41 0.03,-0.12 0.04,-0.18 0.04,-0.18 0,-0.01 0.01,-0.01 0.01,-0.02 0,0 0,0 0,0 0.1,-0.46 0.02,-0.86 -0.25,-1.21 -0.27,-0.35 -0.63,-0.53 -1.08,-0.53 -0.06,0 -0.21,0 -0.46,0 -0.25,0 -0.53,0 -0.83,0 -0.3,0 -0.57,0 -0.79,0 -0.22,0 -0.34,0 -0.37,0 -0.06,0 -0.11,-0.02 -0.14,-0.07 -0.04,-0.05 -0.05,-0.1 -0.04,-0.16 0.01,-0.03 0.02,-0.08 0.03,-0.14 0.02,-0.07 0.03,-0.14 0.05,-0.22 0.02,-0.08 0.04,-0.15 0.05,-0.21 0.02,-0.06 0.02,-0.09 0.02,-0.09 0.01,-0.04 0.04,-0.07 0.07,-0.1 0.03,-0.03 0.07,-0.04 0.12,-0.04z"/>
  <path class="fil5" d="M139.74 39.59l0 0 0 0 1.32 -5.21 -2.23 0 0.38 -1.53 5.97 0 -0.38 1.53 -2.16 0 -1.3 5.21 -1.6 0z"/>
 </g>
</svg>
