<?xml version="1.0" standalone="no"?>
<!DOCTYPE svg PUBLIC "-//W3C//DTD SVG 20010904//EN"
 "http://www.w3.org/TR/2001/REC-SVG-20010904/DTD/svg10.dtd">
<svg version="1.0" xmlns="http://www.w3.org/2000/svg"
 width="303.000000pt" height="303.000000pt" viewBox="0 0 303.000000 303.000000"
 preserveAspectRatio="xMidYMid meet">
<metadata>
Created by potrace 1.14, written by Peter Selinger 2001-2017
</metadata>
<g transform="translate(0.000000,303.000000) scale(0.100000,-0.100000)"
fill="#000000" stroke="none">
<path d="M2467 2988 c-13 -31 -422 -951 -466 -1049 -11 -24 -26 -60 -34 -79
-48 -112 -150 -339 -163 -362 -8 -16 -12 -28 -8 -28 3 0 2 -6 -4 -12 -5 -7
-33 -67 -62 -133 -29 -66 -63 -142 -75 -170 -19 -41 -116 -261 -207 -465 -11
-25 -28 -63 -38 -85 -10 -22 -35 -78 -55 -125 -21 -47 -46 -103 -55 -125 -126
-283 -150 -338 -148 -341 2 -1 44 37 94 84 222 212 442 422 474 452 19 18 113
107 209 199 96 91 191 182 211 201 20 19 112 107 204 194 l167 160 -7 415 c-9
596 -11 764 -14 1049 -2 138 -4 252 -6 252 -2 0 -10 -15 -17 -32z"/>
<path d="M526 2778 c4 -13 49 -110 100 -217 52 -106 94 -195 94 -196 0 -1 41
-87 91 -191 50 -104 108 -225 129 -269 44 -94 223 -469 322 -675 39 -80 84
-174 101 -210 18 -38 32 -59 35 -50 2 8 15 39 28 67 22 48 42 94 94 208 10 22
29 65 43 95 14 30 62 138 107 240 45 102 93 209 106 238 13 29 24 54 24 57 0
2 -21 19 -48 37 -26 18 -51 36 -57 41 -5 4 -242 174 -525 377 -283 204 -526
378 -539 387 -14 10 -45 33 -69 51 -41 31 -43 32 -36 10z"/>
</g>
</svg>
