<svg width="51" height="35" viewBox="0 0 51 35" fill="none" xmlns="http://www.w3.org/2000/svg">
<g id="American Express">
<path id="Rectangle Copy 4" fill-rule="evenodd" clip-rule="evenodd" d="M0 3C0 1.34315 1.34315 0 3 0H48C49.6569 0 51 1.34315 51 3V32C51 33.6569 49.6569 35 48 35H3C1.34315 35 0 33.6569 0 32V3Z" fill="#016FD0"/>
<g id="American_Express_logo_(2018)">
<path id="path3082" fill-rule="evenodd" clip-rule="evenodd" d="M9.90625 26.4708V18.6635H18.3462L19.2517 19.8196L20.1872 18.6635H50.8221V25.9323C50.8221 25.9323 50.021 26.463 49.0944 26.4708H32.1312L31.1103 25.2401V26.4708H27.7647V24.3699C27.7647 24.3699 27.3077 24.6632 26.3197 24.6632H25.181V26.4708H20.1156L19.2114 25.2898L18.2933 26.4708H9.90625Z" fill="white"/>
<path id="path3080" fill-rule="evenodd" clip-rule="evenodd" d="M0.0507813 12.7792L1.95402 8.43323H5.24548L6.3256 10.8677V8.43323H10.4172L11.0602 10.1928L11.6835 8.43323H30.0505V9.3178C30.0505 9.3178 31.0161 8.43323 32.6029 8.43323L38.5623 8.45363L39.6237 10.8562V8.43323H43.0478L43.9902 9.81331V8.43323H47.4457V16.2405H43.9902L43.0871 14.856V16.2405H38.0564L37.5505 15.0098H36.198L35.7004 16.2405H32.2887C30.9233 16.2405 30.0505 15.374 30.0505 15.374V16.2405H24.9066L23.8857 15.0098V16.2405H4.75787L4.25232 15.0098H2.90421L2.40222 16.2405H0.0507812L0.0507813 12.7792Z" fill="white"/>
<path id="path3046" fill-rule="evenodd" clip-rule="evenodd" d="M0.0625 15.2415L2.62956 9.39563H4.57571L7.14032 15.2415H5.43222L4.96102 14.0709H2.20744L1.73379 15.2415H0.0625ZM4.41865 12.8017L3.57932 10.7561L2.73754 12.8017H4.41865Z" fill="#016FD0"/>
<path id="path3048" fill-rule="evenodd" clip-rule="evenodd" d="M7.31641 15.2405V9.39465L9.6914 9.40329L11.0728 13.1723L12.4211 9.39465H14.7771V15.2405H13.2849V10.933L11.7032 15.2405H10.3946L8.80854 10.933V15.2405H7.31641Z" fill="#016FD0"/>
<path id="path3050" fill-rule="evenodd" clip-rule="evenodd" d="M15.7969 15.2405V9.39465H20.6659V10.7023H17.3047V11.7022H20.5874V12.9329H17.3047V13.9714H20.6659V15.2405H15.7969Z" fill="#016FD0"/>
<path id="path3052" fill-rule="evenodd" clip-rule="evenodd" d="M21.5312 15.2415V9.39563H24.8517C25.952 9.39563 26.9378 10.062 26.9378 11.2922C26.9378 12.3438 26.1066 13.0212 25.3009 13.0878L27.2642 15.2415H25.4407L23.6517 13.1647H23.0234V15.2415H21.5312ZM24.729 10.7033H23.0234V11.934H24.7511C25.0502 11.934 25.4358 11.707 25.4358 11.3186C25.4358 11.0167 25.1382 10.7033 24.729 10.7033Z" fill="#016FD0"/>
<path id="path3054" fill-rule="evenodd" clip-rule="evenodd" d="M29.0704 15.2405H27.5469V9.39465H29.0704V15.2405Z" fill="#016FD0"/>
<path id="path3056" fill-rule="evenodd" clip-rule="evenodd" d="M32.683 15.2405H32.3541C30.763 15.2405 29.7969 14.0127 29.7969 12.3416C29.7969 10.6293 30.7521 9.39465 32.7615 9.39465H34.4107V10.7792H32.7012C31.8855 10.7792 31.3086 11.4027 31.3086 12.3561C31.3086 13.4882 31.9683 13.9637 32.9186 13.9637H33.3112L32.683 15.2405Z" fill="#016FD0"/>
<path id="path3058" fill-rule="evenodd" clip-rule="evenodd" d="M33.3594 15.2415L35.9264 9.39563H37.8726L40.4372 15.2415H38.7291L38.2579 14.0709H35.5043L35.0307 15.2415H33.3594ZM37.7155 12.8017L36.8762 10.7561L36.0344 12.8017H37.7155Z" fill="#016FD0"/>
<path id="path3060" fill-rule="evenodd" clip-rule="evenodd" d="M40.6133 15.2405V9.39465H42.5104L44.9326 13.0676V9.39465H46.4247V15.2405H44.589L42.1054 11.4715V15.2405H40.6133Z" fill="#016FD0"/>
<path id="path3062" fill-rule="evenodd" clip-rule="evenodd" d="M10.9297 25.4709V19.625H15.7988V20.9326H12.4375V21.9326H15.7202V23.1633H12.4375V24.2017H15.7988V25.4709H10.9297Z" fill="#016FD0"/>
<path id="path3064" fill-rule="evenodd" clip-rule="evenodd" d="M34.7852 25.4709V19.625H39.6542V20.9326H36.293V21.9326H39.56V23.1633H36.293V24.2017H39.6542V25.4709H34.7852Z" fill="#016FD0"/>
<path id="path3066" fill-rule="evenodd" clip-rule="evenodd" d="M15.9861 25.4709L18.3569 22.584L15.9297 19.625H17.8096L19.2551 21.4542L20.7055 19.625H22.5118L20.1165 22.5479L22.4916 25.4709H20.612L19.2085 23.6705L17.839 25.4709H15.9861Z" fill="#016FD0"/>
<path id="path3068" fill-rule="evenodd" clip-rule="evenodd" d="M22.668 25.4719V19.626H25.9639C27.3163 19.626 28.1064 20.4797 28.1064 21.5922C28.1064 22.9352 27.099 23.6258 25.77 23.6258H24.1994V25.4719H22.668ZM25.8535 20.948H24.1994V22.2941H25.8486C26.2844 22.2941 26.5897 22.0112 26.5897 21.6211C26.5897 21.2058 26.2828 20.948 25.8535 20.948Z" fill="#016FD0"/>
<path id="path3072" fill-rule="evenodd" clip-rule="evenodd" d="M28.7539 25.4709V19.625H32.0744C33.1746 19.625 34.1604 20.2914 34.1604 21.5215C34.1604 22.5732 33.3293 23.2505 32.5235 23.3171L34.4868 25.4709H32.6634L30.8743 23.3941H30.246V25.4709H28.7539ZM31.9517 20.9326H30.246V22.1633H31.9738C32.2728 22.1633 32.6585 21.9364 32.6585 21.548C32.6585 21.2461 32.3608 20.9326 31.9517 20.9326Z" fill="#016FD0"/>
<path id="path3074" fill-rule="evenodd" clip-rule="evenodd" d="M40.3457 25.4709V24.2017H43.3319C43.7738 24.2017 43.9651 23.9678 43.9651 23.7113C43.9651 23.4656 43.7744 23.2171 43.3319 23.2171H41.9825C40.8095 23.2171 40.1562 22.5172 40.1562 21.4663C40.1562 20.5289 40.7545 19.625 42.4975 19.625H45.4033L44.775 20.9403H42.2619C41.7815 20.9403 41.6337 21.1872 41.6337 21.423C41.6337 21.6653 41.8164 21.9326 42.1834 21.9326H43.597C44.9046 21.9326 45.472 22.6591 45.472 23.6104C45.472 24.6332 44.8397 25.4709 43.5258 25.4709H40.3457Z" fill="#016FD0"/>
<path id="path3076" fill-rule="evenodd" clip-rule="evenodd" d="M45.8223 25.4709V24.2017H48.8085C49.2504 24.2017 49.4417 23.9678 49.4417 23.7113C49.4417 23.4656 49.251 23.2171 48.8085 23.2171H47.4591C46.2861 23.2171 45.6328 22.5172 45.6328 21.4663C45.6328 20.5289 46.231 19.625 47.9741 19.625H50.8798L50.2516 20.9403H47.7385C47.2581 20.9403 47.1102 21.1872 47.1102 21.423C47.1102 21.6653 47.293 21.9326 47.66 21.9326H49.0736C50.3811 21.9326 50.9485 22.6591 50.9485 23.6104C50.9485 24.6332 50.3163 25.4709 49.0024 25.4709H45.8223Z" fill="#016FD0"/>
</g>
</g>
</svg>
