<svg width="50" height="35" viewBox="0 0 50 35" fill="none" xmlns="http://www.w3.org/2000/svg">
<g id="Mastercard">
<path id="Rectangle Copy 4" fill-rule="evenodd" clip-rule="evenodd" d="M0 3C0 1.34315 1.34315 0 3 0H47C48.6569 0 50 1.34315 50 3V32C50 33.6569 48.6569 35 47 35H3C1.34315 35 0 33.6569 0 32V3Z" fill="#262626"/>
<g id="mc_symbol">
<g id="Group" opacity="0.01">
<rect id="Rectangle" x="9.84766" y="7.60864" width="30.163" height="19.7599" fill="white"/>
</g>
<rect id="Rectangle_2" x="20.9531" y="11.0513" width="7.95684" height="12.8723" fill="#FF5F00"/>
<path id="Path" fill-rule="evenodd" clip-rule="evenodd" d="M21.7732 17.4886C21.7712 14.9771 22.9352 12.6042 24.9297 11.0536C21.5413 8.41591 16.6753 8.80011 13.7515 11.9362C10.8276 15.0722 10.8276 19.9073 13.7515 23.0433C16.6753 26.1794 21.5413 26.5636 24.9297 23.9259C22.9345 22.3748 21.7705 20.0009 21.7732 17.4886Z" fill="#EB001B"/>
<path id="Shape" fill-rule="evenodd" clip-rule="evenodd" d="M37.5816 22.3886V23.0916H37.5082V22.3886H37.3516V22.2432H37.7482V22.3886H37.5816ZM38.3516 22.2432V23.0916H38.2682V22.4492L38.1382 23.0007H38.0482L37.9182 22.4492V23.0916H37.8316V22.2432H37.9516L38.0916 22.8492L38.2316 22.2432H38.3516Z" fill="#F79E1B"/>
<path id="Path_2" fill-rule="evenodd" clip-rule="evenodd" d="M38.302 17.4886C38.302 20.6227 36.4952 23.4817 33.6491 24.8513C30.803 26.2209 27.4172 25.8607 24.9297 23.9236C26.9234 22.3717 28.0875 19.9991 28.0875 17.4875C28.0875 14.9758 26.9234 12.6032 24.9297 11.0513C27.4172 9.11421 30.803 8.75397 33.6491 10.1236C36.4952 11.4932 38.302 14.3522 38.302 17.4863V17.4886Z" fill="#F79E1B"/>
</g>
</g>
</svg>
