<svg width="51" height="35" viewBox="0 0 51 35" fill="none" xmlns="http://www.w3.org/2000/svg">
    <g id="Pay Pal">
        <path id="Rectangle Copy 4" fill-rule="evenodd" clip-rule="evenodd" d="M0 3C0 1.34315 1.34315 0 3 0H48C49.6569 0 51 1.34315 51 3V32C51 33.6569 49.6569 35 48 35H3C1.34315 35 0 33.6569 0 32V3Z" fill="#1B3D92"/>
        <g id="Group">
            <path id="Path" opacity="0.68" fill-rule="evenodd" clip-rule="evenodd" d="M32.2583 13.1622C32.4897 11.6947 32.2567 10.6963 31.4587 9.79172C30.5801 8.79605 28.9929 8.36951 26.9622 8.36951H21.0675C20.6525 8.36951 20.299 8.66982 20.2345 9.07773L17.7797 24.5587C17.7314 24.8642 17.9688 25.1403 18.2795 25.1403H21.9186L21.6675 26.7245C21.6252 26.9918 21.8326 27.2333 22.1046 27.2333H25.1722C25.5352 27.2333 25.8443 26.9707 25.9009 26.6139L25.931 26.4586L26.5088 22.8141L26.5461 22.6128C26.6027 22.2561 26.9118 21.9931 27.2748 21.9931H27.7336C30.7053 21.9931 33.0322 20.7924 33.712 17.3197C33.9961 15.8687 33.8491 14.6574 33.0979 13.8059C32.8709 13.5488 32.588 13.3359 32.2583 13.1622Z" fill="white"/>
            <path id="Path_2" opacity="0.7" fill-rule="evenodd" clip-rule="evenodd" d="M32.2583 13.1622C32.4897 11.6947 32.2567 10.6963 31.4587 9.79172C30.5801 8.79605 28.9929 8.36951 26.9622 8.36951H21.0675C20.6525 8.36951 20.299 8.66982 20.2345 9.07773L17.7797 24.5587C17.7314 24.8642 17.9688 25.1403 18.2795 25.1403H21.9186L22.8328 19.3748L22.8044 19.5556C22.8691 19.1479 23.2193 18.8474 23.6345 18.8474H25.3642C28.7611 18.8474 31.421 17.4748 32.198 13.5052C32.2212 13.388 32.2407 13.274 32.2583 13.1622Z" fill="white"/>
            <path id="Path_3" fill-rule="evenodd" clip-rule="evenodd" d="M23.8149 13.1816C23.8537 12.9365 24.0121 12.7355 24.2252 12.634C24.322 12.5879 24.4304 12.5622 24.5438 12.5622H29.1645C29.712 12.5622 30.2223 12.5979 30.6889 12.6726C30.8222 12.694 30.952 12.7186 31.0781 12.7464C31.2041 12.7743 31.3266 12.8052 31.445 12.8398C31.5043 12.8569 31.5624 12.8752 31.6198 12.894C31.8489 12.9697 32.0624 13.0588 32.2587 13.1624C32.4901 11.6949 32.2571 10.6965 31.4591 9.79191C30.5801 8.79605 28.9929 8.36951 26.9622 8.36951H21.0675C20.6525 8.36951 20.299 8.66982 20.2345 9.07773L17.7797 24.5587C17.7314 24.8642 17.9688 25.1403 18.2795 25.1403H21.9186L22.8328 19.3748L23.8149 13.1816Z" fill="white"/>
        </g>
    </g>
</svg>
