<svg width="50" height="35" viewBox="0 0 50 35" fill="none" xmlns="http://www.w3.org/2000/svg">
<g id="Visa">
<path id="Rectangle Copy 4" fill-rule="evenodd" clip-rule="evenodd" d="M0 3C0 1.34315 1.34315 0 3 0H47C48.6569 0 50 1.34315 50 3V32C50 33.6569 48.6569 35 47 35H3C1.34315 35 0 33.6569 0 32V3Z" fill="#0742A6"/>
<g id="Visa_Inc._logo">
<path id="polygon9" fill-rule="evenodd" clip-rule="evenodd" d="M22.7441 22.6313H20.0625L21.7398 12.4873H24.4212L22.7441 22.6313Z" fill="white"/>
<path id="path11" fill-rule="evenodd" clip-rule="evenodd" d="M32.462 12.7353C31.9331 12.5301 31.0941 12.3035 30.0568 12.3035C27.4087 12.3035 25.5439 13.6847 25.5324 15.6595C25.5104 17.1164 26.8676 17.9257 27.8826 18.4115C28.9201 18.9079 29.2727 19.2319 29.2727 19.6744C29.2622 20.354 28.4344 20.6672 27.6624 20.6672C26.5917 20.6672 26.0181 20.5057 25.1463 20.1276L24.7932 19.9655L24.418 22.2426C25.0469 22.5229 26.2056 22.7716 27.4087 22.7825C30.2224 22.7825 32.0542 21.4227 32.0759 19.3182C32.0866 18.1635 31.37 17.2787 29.825 16.5556C28.8871 16.0915 28.3127 15.7785 28.3127 15.3036C28.3237 14.8719 28.7985 14.4297 29.8572 14.4297C30.729 14.408 31.3695 14.613 31.8548 14.8181L32.0973 14.9258L32.462 12.7353Z" fill="white"/>
<path id="path13" fill-rule="evenodd" clip-rule="evenodd" d="M37.2636 12.4873H39.3378L41.5012 22.6312H39.0183C39.0183 22.6312 38.7753 21.4656 38.6984 21.1095H35.2554C35.1558 21.3792 34.6926 22.6312 34.6926 22.6312H31.8789L35.8621 13.329C36.138 12.6706 36.624 12.4873 37.2636 12.4873ZM37.0984 16.1994C37.0984 16.1994 36.2486 18.4549 36.0278 19.0376H38.2567C38.1464 18.5305 37.6386 16.1023 37.6386 16.1023L37.4512 15.2283C37.3723 15.4533 37.2581 15.7628 37.1812 15.9715C37.129 16.113 37.0939 16.2082 37.0984 16.1994Z" fill="white"/>
<path id="path15" fill-rule="evenodd" clip-rule="evenodd" d="M17.8198 12.4873L15.1937 19.4045L14.9067 18.0016C14.4212 16.3829 12.8985 14.6241 11.1992 13.7496L13.6047 22.6205H16.4404L20.6554 12.4873H17.8198V12.4873Z" fill="white"/>
<path id="path17" fill-rule="evenodd" clip-rule="evenodd" d="M12.757 12.4873H8.44258L8.39844 12.6923C11.7639 13.5341 13.9929 15.5632 14.9086 18.0021L13.9707 13.34C13.8163 12.6921 13.3418 12.5087 12.757 12.4873Z" fill="white"/>
</g>
</g>
</svg>
